G04 CAM350 V10.0 (Build 275) Date:  Sat Sep 14 14:12:12 2013 *
G04 Database: (Untitled) *
G04 Layer 5: SABOTEN-MB.PHO *
%FSLAX25Y25*%
%MOIN*%
%SFA1.000B1.000*%

%MIA0B0*%
%IPPOS*%
%ADD17R,0.03500X0.03500*%
%ADD19C,0.25000*%
%ADD21C,0.06500*%
%ADD25R,0.06000X0.06000*%
%ADD26C,0.06000*%
%ADD41R,0.06496X0.06496*%
%ADD42C,0.06496*%
%ADD60R,0.05906X0.05906*%
%ADD61C,0.05906*%
%ADD64C,0.09843*%
%ADD65C,0.06299*%
%ADD68C,0.07087*%
%ADD87C,0.43307*%
%LNSABOTEN-MB.PHO*%
%LPD*%
G54D19*
X297508Y31134D03*
X57108Y31234D03*
X57208Y464334D03*
X297408Y464434D03*
G54D21*
X37108Y71734D03*
Y61734D03*
G54D25*
X52608Y103734D03*
X180408Y184734D03*
X70608Y305734D03*
X260608Y271734D03*
X70608Y235734D03*
X260608Y185734D03*
X209608Y18734D03*
G54D26*
X42608Y103734D03*
X52608Y113734D03*
X42608D03*
X52608Y123734D03*
X42608D03*
X52608Y133734D03*
X42608D03*
X52608Y143734D03*
X42608D03*
X180408Y174734D03*
X170408Y184734D03*
Y174734D03*
X160408Y184734D03*
Y174734D03*
X70608Y295734D03*
Y285734D03*
Y275734D03*
Y265734D03*
Y255734D03*
X260608Y281734D03*
Y291734D03*
Y301734D03*
Y311734D03*
Y321734D03*
Y331734D03*
Y341734D03*
X70608Y225734D03*
Y215734D03*
Y205734D03*
Y195734D03*
Y185734D03*
X260608Y195734D03*
Y205734D03*
Y215734D03*
Y225734D03*
Y235734D03*
Y245734D03*
Y255734D03*
X219608Y18734D03*
X229608D03*
X239608D03*
X249608D03*
X259608D03*
G54D41*
X312108Y351734D03*
Y404234D03*
X182108Y381734D03*
G54D42*
X312108Y361577D03*
Y414077D03*
X192108Y381734D03*
Y411734D03*
X182108D03*
G54D60*
X259588Y424234D03*
Y434234D03*
G54D61*
X294628Y424234D03*
Y434234D03*
G54D64*
X99153Y469147D03*
X89153Y459147D03*
X109153D03*
X89153Y479147D03*
X109153D03*
G54D65*
X186734Y474234D03*
X194608D03*
X202482D03*
G54D68*
X210750D03*
X178466D03*
G54D87*
X177408Y442634D03*
X177308Y52734D03*
G54D17*
X155208Y424234D02*
G01X154808D01*
X149408D02*
G01X149008D01*
X155208Y459234D02*
G01X154808D01*
X149408D02*
G01X149008D01*
M02*
