M48
INCH,TZ
VER,1
FMAT,2
T01C0.016F95B1000S3H2000
T02C0.035F197B1000S55H2000
T03C0.03543F197B1000S55H2000
T04C0.03937F197B1000S55H2000
T05C0.043F139B1000S55H2000
T06C0.05118F107B1000S55H2000
T07C0.07087F81B1000S55H2000
T08C0.13F35B1000S794H2000
T09C0.17323F35B1000S1033H2000
DETECT,ON
ATC,ON
%
T01
X4211Y1413
X4501Y16253
X4881Y21083
X4401Y23103
X3791Y23113
X3921Y26793
X4891Y27003
X4451Y31793
X4111Y34633
X4161Y36523
X5341Y5893
X5751Y15483
X5251Y26023
X5311Y28033
X5511Y29763
X5231Y33943
X7721Y3363
X6911Y4433
X7781Y4883
X7441Y6483
X6971Y14373
X6471Y29023
X6631Y32563
X7851Y15733
X7531Y16593
X7981Y25583
X8031Y34673
X7961Y35923
X9111Y9433
X9101Y10293
X9191Y24863
X8421Y26033
X9101Y28923
X9011Y36093
X8961Y38673
X8211Y39673
X8961
X8211Y40673
Y41673
X9561Y12693
X9861Y22033
X9921Y26193
X9561Y28373
X9511Y31243
X9471Y36833
X9851Y38023
X8961Y40673
Y41673
X8211Y42673
X8961
Y43673
X8211
X8461Y44213
X10521Y3863
X10241Y5893
X11221Y6443
X10631Y7403
X10901Y10523
X10321Y16183
X11501Y10483
X11151Y17333
X10881Y19643
X10931Y33373
X10311Y33863
X10061Y37443
X11181Y26663
X10821Y32013
X9971Y34323
X11161Y35173
Y35873
X10491Y37093
X10711Y39583
X11971Y5343
X11741Y6903
X12181Y10413
X12921Y10523
X11931Y12413
X12721Y13403
X12881Y19953
X12191Y20213
X11951Y24103
X11191Y24483
X11221Y25173
X12181Y28883
X11361Y30233
X11381Y31683
X11761Y32393
X11411Y32893
X12181Y33743
X11861Y35173
Y35873
X12271Y39583
X11661Y40873
X11361Y41173
X11981Y45413
X12211Y46173
X14111Y7803
X13581Y8653
X14311Y10733
X13791Y11813
X13311Y15383
Y16283
X12531Y21153
X12961Y23043
X13201Y26193
X12931Y26673
X13371Y27003
X13541Y27703
X12641Y28453
X13191Y29303
X12601Y29813
X13601Y30273
X12901Y32263
X12991Y32933
X12591Y34493
X12501Y36813
X12581Y37283
X13091Y37373
X12711Y38173
X12341Y41933
X15041Y9573
X14231Y24143
X14261Y41093
X14141Y43843
X14081Y44593
X13691Y47483
X15351Y2183
X14361Y35553
X14381Y38113
X14481Y38843
X14351Y42123
X15581Y14423
X15331Y19103
X15551Y26703
X15061Y34113
X14711Y39423
X14731Y41733
X14711Y43153
X14671Y43643
X14711Y44423
X15771Y35413
X14801Y45293
X14051Y45343
X14301Y45813
X14121Y46293
X16431Y1413
X16401Y2923
X15871Y7043
X16581Y12863
X16191Y19163
X16691Y19663
X16001Y22083
X16241Y23323
X16841Y24793
X15981Y24943
X15931Y27653
X17091Y25593
X17061Y26483
X16481Y26883
X15841Y41663
X17091Y27063
X16801Y27573
X16231Y31173
X17101Y32263
X16591Y33143
X16181Y42103
X16201Y46223
X15391Y46503
X17211Y19863
X17961Y22083
X18401Y23313
X17591Y23453
X18771Y25083
X17781Y25123
X17921Y27843
X18191Y30153
X18021Y31163
X17631Y31753
X17341Y33303
X18461Y32573
X17971Y35933
X18171Y40203
X17791Y48103
X19531Y16443
X18951Y23273
X19541Y24073
X18861Y35933
X19221Y39563
X21121Y3073
X21141Y7653
X20501Y15853
X20961Y17003
X20641Y18443
X21141Y22813
X21251Y25363
X20291Y40213
X19671Y42723
X19891Y46283
X21931Y3753
X21321Y17433
X21511Y19883
X22351Y21623
X21781Y22363
X21721Y24993
X21401Y26133
X21321Y28513
X20711Y29213
X21251Y30223
X20671Y31163
X21691Y36713
X21671Y37933
X20791Y39643
X20691Y46053
X22871Y3363
X22781Y20623
X23081Y22613
X22851Y24233
X22621Y24663
X22111Y29533
X22101Y31893
X23161Y26273
X23351Y31653
X23301Y36013
X22461Y38673
Y41163
X23981Y5413
X24091Y12873
X24481Y13523
X23791Y22013
X24091Y23643
X24061Y26703
X24331Y27223
X23361Y42913
Y47013
X24491Y24623
X24861Y27643
X25151Y29833
X25241Y30593
X25251Y32113
X24621Y39633
X24381Y45823
X25281Y47983
X26431Y39053
X27871Y3383
X26921Y45803
X28261Y3803
X27821Y18473
X28311Y19963
X27991Y33623
X28211Y34663
X29101Y12873
X29681Y28303
X30201Y32723
X29211Y34453
X29191Y36883
X29691Y37953
X29771Y40703
X29291Y41393
X30211Y42983
X30101Y44673
X31501Y44303
T02
X4261Y10373
X5261
X4261Y11373
X5261
X4261Y12373
X5261
Y13373
X4261
Y14373
X5261
X7061Y18573
Y19573
Y20573
Y21573
Y22573
Y23573
Y25573
Y26573
Y27573
Y28573
Y29573
Y30573
X17041Y17473
X16041
Y18473
X17041
X18041
Y17473
X21961Y1873
X20961
X22961
X23961
X24961
X25961
X26061Y18573
Y19573
Y20573
Y21573
Y22573
Y23573
Y24573
Y25573
Y27173
Y28173
Y29173
Y30173
Y31173
Y32173
Y33173
Y34173
T03
X25959Y42423
Y43423
X29463
Y42423
T04
X19211Y38173
X18211
X19211Y41173
X18211
X19461Y47423
X18674
X20248
X31211Y41407
Y40423
Y36157
Y35173
T05
X3711Y6173
Y7173
T06
X17847Y47423
X21075
T07
X8915Y45914
X10915
X9915Y46914
X8915Y47914
X10915
T08
X5711Y3123
X5721Y46433
X29751Y3113
X29741Y46443
T09
X17731Y5273
X17741Y44263
M30
