%
M48
M72
T01C0.01969
T02C0.02362
T03C0.02400
T04C0.03150
T05C0.03200
T06C0.04000
T07C0.04400
T08C0.04700
T09C0.05200
T10C0.07874
T11C0.08661
%
T01
X159100Y136600
T02
X121600Y121600
X66600Y116600
T03
X55700Y118700
X115100Y117800
T04
X202663Y19100
X210537Y19100
T05
X51600Y21600
X41600Y21600
X41600Y51600
X51600Y51600
T06
X136600Y46600
X136600Y56600
X136600Y36600
T07
X164100Y39100
X164100Y54100
X164100Y24100
X159100Y231600
X144100Y231600
X174100Y231600
T08
X121600Y229100
X101600Y229100
X51600Y229100
X31600Y229100
X91600Y29100
X111600Y29100
T09
X214100Y41600
X194100Y241600
X234100Y241600
T10
X19100Y19100
X76600Y236600
X241600Y19100
T11
X236600Y41600
X194100Y41600
M30
