G75*
%MOIN*%
%OFA0B0*%
%FSLAX25Y25*%
%IPPOS*%
%LPD*%
%AMOC8*
5,1,8,0,0,1.08239X$1,22.5*
%
%ADD10C,0.00000*%
%ADD11C,0.07050*%
%ADD12R,0.16929X0.09843*%
%ADD13R,0.01772X0.03937*%
%ADD14R,0.17717X0.08858*%
%ADD15R,0.06299X0.05118*%
%ADD16R,0.05118X0.06299*%
%ADD17C,0.05200*%
%ADD18C,0.06000*%
%ADD19R,0.04724X0.02165*%
%ADD20R,0.06299X0.07874*%
%ADD21R,0.03150X0.03150*%
%ADD22OC8,0.12400*%
%ADD23C,0.06600*%
%ADD24C,0.05600*%
%ADD25C,0.03000*%
%ADD26C,0.01000*%
%ADD27C,0.04000*%
%ADD28C,0.02000*%
%ADD29C,0.01200*%
%ADD30C,0.01600*%
%ADD31C,0.03962*%
%ADD32C,0.03569*%
%ADD33OC8,0.12661*%
D10*
X0011600Y0006600D02*
X0011600Y0255301D01*
X0249021Y0255301D01*
X0249021Y0006600D01*
X0011600Y0006600D01*
X0015163Y0019100D02*
X0015165Y0019225D01*
X0015171Y0019350D01*
X0015181Y0019474D01*
X0015195Y0019598D01*
X0015212Y0019722D01*
X0015234Y0019845D01*
X0015260Y0019967D01*
X0015289Y0020089D01*
X0015322Y0020209D01*
X0015360Y0020328D01*
X0015400Y0020447D01*
X0015445Y0020563D01*
X0015493Y0020678D01*
X0015545Y0020792D01*
X0015601Y0020904D01*
X0015660Y0021014D01*
X0015722Y0021122D01*
X0015788Y0021229D01*
X0015857Y0021333D01*
X0015930Y0021434D01*
X0016005Y0021534D01*
X0016084Y0021631D01*
X0016166Y0021725D01*
X0016251Y0021817D01*
X0016338Y0021906D01*
X0016429Y0021992D01*
X0016522Y0022075D01*
X0016618Y0022156D01*
X0016716Y0022233D01*
X0016816Y0022307D01*
X0016919Y0022378D01*
X0017024Y0022445D01*
X0017132Y0022510D01*
X0017241Y0022570D01*
X0017352Y0022628D01*
X0017465Y0022681D01*
X0017579Y0022731D01*
X0017695Y0022778D01*
X0017812Y0022820D01*
X0017931Y0022859D01*
X0018051Y0022895D01*
X0018172Y0022926D01*
X0018294Y0022954D01*
X0018416Y0022977D01*
X0018540Y0022997D01*
X0018664Y0023013D01*
X0018788Y0023025D01*
X0018913Y0023033D01*
X0019038Y0023037D01*
X0019162Y0023037D01*
X0019287Y0023033D01*
X0019412Y0023025D01*
X0019536Y0023013D01*
X0019660Y0022997D01*
X0019784Y0022977D01*
X0019906Y0022954D01*
X0020028Y0022926D01*
X0020149Y0022895D01*
X0020269Y0022859D01*
X0020388Y0022820D01*
X0020505Y0022778D01*
X0020621Y0022731D01*
X0020735Y0022681D01*
X0020848Y0022628D01*
X0020959Y0022570D01*
X0021069Y0022510D01*
X0021176Y0022445D01*
X0021281Y0022378D01*
X0021384Y0022307D01*
X0021484Y0022233D01*
X0021582Y0022156D01*
X0021678Y0022075D01*
X0021771Y0021992D01*
X0021862Y0021906D01*
X0021949Y0021817D01*
X0022034Y0021725D01*
X0022116Y0021631D01*
X0022195Y0021534D01*
X0022270Y0021434D01*
X0022343Y0021333D01*
X0022412Y0021229D01*
X0022478Y0021122D01*
X0022540Y0021014D01*
X0022599Y0020904D01*
X0022655Y0020792D01*
X0022707Y0020678D01*
X0022755Y0020563D01*
X0022800Y0020447D01*
X0022840Y0020328D01*
X0022878Y0020209D01*
X0022911Y0020089D01*
X0022940Y0019967D01*
X0022966Y0019845D01*
X0022988Y0019722D01*
X0023005Y0019598D01*
X0023019Y0019474D01*
X0023029Y0019350D01*
X0023035Y0019225D01*
X0023037Y0019100D01*
X0023035Y0018975D01*
X0023029Y0018850D01*
X0023019Y0018726D01*
X0023005Y0018602D01*
X0022988Y0018478D01*
X0022966Y0018355D01*
X0022940Y0018233D01*
X0022911Y0018111D01*
X0022878Y0017991D01*
X0022840Y0017872D01*
X0022800Y0017753D01*
X0022755Y0017637D01*
X0022707Y0017522D01*
X0022655Y0017408D01*
X0022599Y0017296D01*
X0022540Y0017186D01*
X0022478Y0017078D01*
X0022412Y0016971D01*
X0022343Y0016867D01*
X0022270Y0016766D01*
X0022195Y0016666D01*
X0022116Y0016569D01*
X0022034Y0016475D01*
X0021949Y0016383D01*
X0021862Y0016294D01*
X0021771Y0016208D01*
X0021678Y0016125D01*
X0021582Y0016044D01*
X0021484Y0015967D01*
X0021384Y0015893D01*
X0021281Y0015822D01*
X0021176Y0015755D01*
X0021068Y0015690D01*
X0020959Y0015630D01*
X0020848Y0015572D01*
X0020735Y0015519D01*
X0020621Y0015469D01*
X0020505Y0015422D01*
X0020388Y0015380D01*
X0020269Y0015341D01*
X0020149Y0015305D01*
X0020028Y0015274D01*
X0019906Y0015246D01*
X0019784Y0015223D01*
X0019660Y0015203D01*
X0019536Y0015187D01*
X0019412Y0015175D01*
X0019287Y0015167D01*
X0019162Y0015163D01*
X0019038Y0015163D01*
X0018913Y0015167D01*
X0018788Y0015175D01*
X0018664Y0015187D01*
X0018540Y0015203D01*
X0018416Y0015223D01*
X0018294Y0015246D01*
X0018172Y0015274D01*
X0018051Y0015305D01*
X0017931Y0015341D01*
X0017812Y0015380D01*
X0017695Y0015422D01*
X0017579Y0015469D01*
X0017465Y0015519D01*
X0017352Y0015572D01*
X0017241Y0015630D01*
X0017131Y0015690D01*
X0017024Y0015755D01*
X0016919Y0015822D01*
X0016816Y0015893D01*
X0016716Y0015967D01*
X0016618Y0016044D01*
X0016522Y0016125D01*
X0016429Y0016208D01*
X0016338Y0016294D01*
X0016251Y0016383D01*
X0016166Y0016475D01*
X0016084Y0016569D01*
X0016005Y0016666D01*
X0015930Y0016766D01*
X0015857Y0016867D01*
X0015788Y0016971D01*
X0015722Y0017078D01*
X0015660Y0017186D01*
X0015601Y0017296D01*
X0015545Y0017408D01*
X0015493Y0017522D01*
X0015445Y0017637D01*
X0015400Y0017753D01*
X0015360Y0017872D01*
X0015322Y0017991D01*
X0015289Y0018111D01*
X0015260Y0018233D01*
X0015234Y0018355D01*
X0015212Y0018478D01*
X0015195Y0018602D01*
X0015181Y0018726D01*
X0015171Y0018850D01*
X0015165Y0018975D01*
X0015163Y0019100D01*
X0072663Y0236600D02*
X0072665Y0236725D01*
X0072671Y0236850D01*
X0072681Y0236974D01*
X0072695Y0237098D01*
X0072712Y0237222D01*
X0072734Y0237345D01*
X0072760Y0237467D01*
X0072789Y0237589D01*
X0072822Y0237709D01*
X0072860Y0237828D01*
X0072900Y0237947D01*
X0072945Y0238063D01*
X0072993Y0238178D01*
X0073045Y0238292D01*
X0073101Y0238404D01*
X0073160Y0238514D01*
X0073222Y0238622D01*
X0073288Y0238729D01*
X0073357Y0238833D01*
X0073430Y0238934D01*
X0073505Y0239034D01*
X0073584Y0239131D01*
X0073666Y0239225D01*
X0073751Y0239317D01*
X0073838Y0239406D01*
X0073929Y0239492D01*
X0074022Y0239575D01*
X0074118Y0239656D01*
X0074216Y0239733D01*
X0074316Y0239807D01*
X0074419Y0239878D01*
X0074524Y0239945D01*
X0074632Y0240010D01*
X0074741Y0240070D01*
X0074852Y0240128D01*
X0074965Y0240181D01*
X0075079Y0240231D01*
X0075195Y0240278D01*
X0075312Y0240320D01*
X0075431Y0240359D01*
X0075551Y0240395D01*
X0075672Y0240426D01*
X0075794Y0240454D01*
X0075916Y0240477D01*
X0076040Y0240497D01*
X0076164Y0240513D01*
X0076288Y0240525D01*
X0076413Y0240533D01*
X0076538Y0240537D01*
X0076662Y0240537D01*
X0076787Y0240533D01*
X0076912Y0240525D01*
X0077036Y0240513D01*
X0077160Y0240497D01*
X0077284Y0240477D01*
X0077406Y0240454D01*
X0077528Y0240426D01*
X0077649Y0240395D01*
X0077769Y0240359D01*
X0077888Y0240320D01*
X0078005Y0240278D01*
X0078121Y0240231D01*
X0078235Y0240181D01*
X0078348Y0240128D01*
X0078459Y0240070D01*
X0078569Y0240010D01*
X0078676Y0239945D01*
X0078781Y0239878D01*
X0078884Y0239807D01*
X0078984Y0239733D01*
X0079082Y0239656D01*
X0079178Y0239575D01*
X0079271Y0239492D01*
X0079362Y0239406D01*
X0079449Y0239317D01*
X0079534Y0239225D01*
X0079616Y0239131D01*
X0079695Y0239034D01*
X0079770Y0238934D01*
X0079843Y0238833D01*
X0079912Y0238729D01*
X0079978Y0238622D01*
X0080040Y0238514D01*
X0080099Y0238404D01*
X0080155Y0238292D01*
X0080207Y0238178D01*
X0080255Y0238063D01*
X0080300Y0237947D01*
X0080340Y0237828D01*
X0080378Y0237709D01*
X0080411Y0237589D01*
X0080440Y0237467D01*
X0080466Y0237345D01*
X0080488Y0237222D01*
X0080505Y0237098D01*
X0080519Y0236974D01*
X0080529Y0236850D01*
X0080535Y0236725D01*
X0080537Y0236600D01*
X0080535Y0236475D01*
X0080529Y0236350D01*
X0080519Y0236226D01*
X0080505Y0236102D01*
X0080488Y0235978D01*
X0080466Y0235855D01*
X0080440Y0235733D01*
X0080411Y0235611D01*
X0080378Y0235491D01*
X0080340Y0235372D01*
X0080300Y0235253D01*
X0080255Y0235137D01*
X0080207Y0235022D01*
X0080155Y0234908D01*
X0080099Y0234796D01*
X0080040Y0234686D01*
X0079978Y0234578D01*
X0079912Y0234471D01*
X0079843Y0234367D01*
X0079770Y0234266D01*
X0079695Y0234166D01*
X0079616Y0234069D01*
X0079534Y0233975D01*
X0079449Y0233883D01*
X0079362Y0233794D01*
X0079271Y0233708D01*
X0079178Y0233625D01*
X0079082Y0233544D01*
X0078984Y0233467D01*
X0078884Y0233393D01*
X0078781Y0233322D01*
X0078676Y0233255D01*
X0078568Y0233190D01*
X0078459Y0233130D01*
X0078348Y0233072D01*
X0078235Y0233019D01*
X0078121Y0232969D01*
X0078005Y0232922D01*
X0077888Y0232880D01*
X0077769Y0232841D01*
X0077649Y0232805D01*
X0077528Y0232774D01*
X0077406Y0232746D01*
X0077284Y0232723D01*
X0077160Y0232703D01*
X0077036Y0232687D01*
X0076912Y0232675D01*
X0076787Y0232667D01*
X0076662Y0232663D01*
X0076538Y0232663D01*
X0076413Y0232667D01*
X0076288Y0232675D01*
X0076164Y0232687D01*
X0076040Y0232703D01*
X0075916Y0232723D01*
X0075794Y0232746D01*
X0075672Y0232774D01*
X0075551Y0232805D01*
X0075431Y0232841D01*
X0075312Y0232880D01*
X0075195Y0232922D01*
X0075079Y0232969D01*
X0074965Y0233019D01*
X0074852Y0233072D01*
X0074741Y0233130D01*
X0074631Y0233190D01*
X0074524Y0233255D01*
X0074419Y0233322D01*
X0074316Y0233393D01*
X0074216Y0233467D01*
X0074118Y0233544D01*
X0074022Y0233625D01*
X0073929Y0233708D01*
X0073838Y0233794D01*
X0073751Y0233883D01*
X0073666Y0233975D01*
X0073584Y0234069D01*
X0073505Y0234166D01*
X0073430Y0234266D01*
X0073357Y0234367D01*
X0073288Y0234471D01*
X0073222Y0234578D01*
X0073160Y0234686D01*
X0073101Y0234796D01*
X0073045Y0234908D01*
X0072993Y0235022D01*
X0072945Y0235137D01*
X0072900Y0235253D01*
X0072860Y0235372D01*
X0072822Y0235491D01*
X0072789Y0235611D01*
X0072760Y0235733D01*
X0072734Y0235855D01*
X0072712Y0235978D01*
X0072695Y0236102D01*
X0072681Y0236226D01*
X0072671Y0236350D01*
X0072665Y0236475D01*
X0072663Y0236600D01*
X0237663Y0019100D02*
X0237665Y0019225D01*
X0237671Y0019350D01*
X0237681Y0019474D01*
X0237695Y0019598D01*
X0237712Y0019722D01*
X0237734Y0019845D01*
X0237760Y0019967D01*
X0237789Y0020089D01*
X0237822Y0020209D01*
X0237860Y0020328D01*
X0237900Y0020447D01*
X0237945Y0020563D01*
X0237993Y0020678D01*
X0238045Y0020792D01*
X0238101Y0020904D01*
X0238160Y0021014D01*
X0238222Y0021122D01*
X0238288Y0021229D01*
X0238357Y0021333D01*
X0238430Y0021434D01*
X0238505Y0021534D01*
X0238584Y0021631D01*
X0238666Y0021725D01*
X0238751Y0021817D01*
X0238838Y0021906D01*
X0238929Y0021992D01*
X0239022Y0022075D01*
X0239118Y0022156D01*
X0239216Y0022233D01*
X0239316Y0022307D01*
X0239419Y0022378D01*
X0239524Y0022445D01*
X0239632Y0022510D01*
X0239741Y0022570D01*
X0239852Y0022628D01*
X0239965Y0022681D01*
X0240079Y0022731D01*
X0240195Y0022778D01*
X0240312Y0022820D01*
X0240431Y0022859D01*
X0240551Y0022895D01*
X0240672Y0022926D01*
X0240794Y0022954D01*
X0240916Y0022977D01*
X0241040Y0022997D01*
X0241164Y0023013D01*
X0241288Y0023025D01*
X0241413Y0023033D01*
X0241538Y0023037D01*
X0241662Y0023037D01*
X0241787Y0023033D01*
X0241912Y0023025D01*
X0242036Y0023013D01*
X0242160Y0022997D01*
X0242284Y0022977D01*
X0242406Y0022954D01*
X0242528Y0022926D01*
X0242649Y0022895D01*
X0242769Y0022859D01*
X0242888Y0022820D01*
X0243005Y0022778D01*
X0243121Y0022731D01*
X0243235Y0022681D01*
X0243348Y0022628D01*
X0243459Y0022570D01*
X0243569Y0022510D01*
X0243676Y0022445D01*
X0243781Y0022378D01*
X0243884Y0022307D01*
X0243984Y0022233D01*
X0244082Y0022156D01*
X0244178Y0022075D01*
X0244271Y0021992D01*
X0244362Y0021906D01*
X0244449Y0021817D01*
X0244534Y0021725D01*
X0244616Y0021631D01*
X0244695Y0021534D01*
X0244770Y0021434D01*
X0244843Y0021333D01*
X0244912Y0021229D01*
X0244978Y0021122D01*
X0245040Y0021014D01*
X0245099Y0020904D01*
X0245155Y0020792D01*
X0245207Y0020678D01*
X0245255Y0020563D01*
X0245300Y0020447D01*
X0245340Y0020328D01*
X0245378Y0020209D01*
X0245411Y0020089D01*
X0245440Y0019967D01*
X0245466Y0019845D01*
X0245488Y0019722D01*
X0245505Y0019598D01*
X0245519Y0019474D01*
X0245529Y0019350D01*
X0245535Y0019225D01*
X0245537Y0019100D01*
X0245535Y0018975D01*
X0245529Y0018850D01*
X0245519Y0018726D01*
X0245505Y0018602D01*
X0245488Y0018478D01*
X0245466Y0018355D01*
X0245440Y0018233D01*
X0245411Y0018111D01*
X0245378Y0017991D01*
X0245340Y0017872D01*
X0245300Y0017753D01*
X0245255Y0017637D01*
X0245207Y0017522D01*
X0245155Y0017408D01*
X0245099Y0017296D01*
X0245040Y0017186D01*
X0244978Y0017078D01*
X0244912Y0016971D01*
X0244843Y0016867D01*
X0244770Y0016766D01*
X0244695Y0016666D01*
X0244616Y0016569D01*
X0244534Y0016475D01*
X0244449Y0016383D01*
X0244362Y0016294D01*
X0244271Y0016208D01*
X0244178Y0016125D01*
X0244082Y0016044D01*
X0243984Y0015967D01*
X0243884Y0015893D01*
X0243781Y0015822D01*
X0243676Y0015755D01*
X0243568Y0015690D01*
X0243459Y0015630D01*
X0243348Y0015572D01*
X0243235Y0015519D01*
X0243121Y0015469D01*
X0243005Y0015422D01*
X0242888Y0015380D01*
X0242769Y0015341D01*
X0242649Y0015305D01*
X0242528Y0015274D01*
X0242406Y0015246D01*
X0242284Y0015223D01*
X0242160Y0015203D01*
X0242036Y0015187D01*
X0241912Y0015175D01*
X0241787Y0015167D01*
X0241662Y0015163D01*
X0241538Y0015163D01*
X0241413Y0015167D01*
X0241288Y0015175D01*
X0241164Y0015187D01*
X0241040Y0015203D01*
X0240916Y0015223D01*
X0240794Y0015246D01*
X0240672Y0015274D01*
X0240551Y0015305D01*
X0240431Y0015341D01*
X0240312Y0015380D01*
X0240195Y0015422D01*
X0240079Y0015469D01*
X0239965Y0015519D01*
X0239852Y0015572D01*
X0239741Y0015630D01*
X0239631Y0015690D01*
X0239524Y0015755D01*
X0239419Y0015822D01*
X0239316Y0015893D01*
X0239216Y0015967D01*
X0239118Y0016044D01*
X0239022Y0016125D01*
X0238929Y0016208D01*
X0238838Y0016294D01*
X0238751Y0016383D01*
X0238666Y0016475D01*
X0238584Y0016569D01*
X0238505Y0016666D01*
X0238430Y0016766D01*
X0238357Y0016867D01*
X0238288Y0016971D01*
X0238222Y0017078D01*
X0238160Y0017186D01*
X0238101Y0017296D01*
X0238045Y0017408D01*
X0237993Y0017522D01*
X0237945Y0017637D01*
X0237900Y0017753D01*
X0237860Y0017872D01*
X0237822Y0017991D01*
X0237789Y0018111D01*
X0237760Y0018233D01*
X0237734Y0018355D01*
X0237712Y0018478D01*
X0237695Y0018602D01*
X0237681Y0018726D01*
X0237671Y0018850D01*
X0237665Y0018975D01*
X0237663Y0019100D01*
D11*
X0111600Y0025575D02*
X0111600Y0032625D01*
X0091600Y0032625D02*
X0091600Y0025575D01*
X0101600Y0225575D02*
X0101600Y0232625D01*
X0121600Y0232625D02*
X0121600Y0225575D01*
X0051600Y0225575D02*
X0051600Y0232625D01*
X0031600Y0232625D02*
X0031600Y0225575D01*
D12*
X0025261Y0181600D03*
X0057939Y0181600D03*
X0095261Y0181600D03*
X0127939Y0181600D03*
X0117939Y0081600D03*
X0085261Y0081600D03*
X0057939Y0081600D03*
X0025261Y0081600D03*
D13*
X0052761Y0123529D03*
X0055320Y0123529D03*
X0057880Y0123529D03*
X0060439Y0123529D03*
X0060439Y0139671D03*
X0057880Y0139671D03*
X0055320Y0139671D03*
X0052761Y0139671D03*
X0107761Y0139671D03*
X0110320Y0139671D03*
X0112880Y0139671D03*
X0115439Y0139671D03*
X0115439Y0123529D03*
X0112880Y0123529D03*
X0110320Y0123529D03*
X0107761Y0123529D03*
D14*
X0081600Y0118281D03*
X0081600Y0144919D03*
X0026600Y0144919D03*
X0026600Y0118281D03*
D15*
X0131600Y0115340D03*
X0131600Y0107860D03*
X0131600Y0127860D03*
X0131600Y0135340D03*
D16*
X0130340Y0151600D03*
X0122860Y0151600D03*
X0110340Y0151600D03*
X0102860Y0151600D03*
X0107860Y0111600D03*
X0115340Y0111600D03*
D17*
X0051600Y0054200D02*
X0051600Y0049000D01*
X0041600Y0049000D02*
X0041600Y0054200D01*
X0041600Y0024200D02*
X0041600Y0019000D01*
X0051600Y0019000D02*
X0051600Y0024200D01*
D18*
X0133600Y0036600D02*
X0139600Y0036600D01*
X0139600Y0046600D02*
X0133600Y0046600D01*
X0133600Y0056600D02*
X0139600Y0056600D01*
D19*
X0158982Y0145360D03*
X0158982Y0149100D03*
X0158982Y0152840D03*
X0169218Y0152840D03*
X0169218Y0145360D03*
D20*
X0169612Y0184100D03*
X0158588Y0184100D03*
X0158588Y0204100D03*
X0169612Y0204100D03*
X0172112Y0084100D03*
X0161088Y0084100D03*
D21*
X0164100Y0103647D03*
X0164100Y0109553D03*
X0151600Y0163647D03*
X0151600Y0169553D03*
D22*
X0194100Y0241600D03*
X0234100Y0241600D03*
X0214100Y0041600D03*
D23*
X0167400Y0039100D02*
X0160800Y0039100D01*
X0160800Y0054100D02*
X0167400Y0054100D01*
X0167400Y0024100D02*
X0160800Y0024100D01*
X0159100Y0228300D02*
X0159100Y0234900D01*
X0144100Y0234900D02*
X0144100Y0228300D01*
X0174100Y0228300D02*
X0174100Y0234900D01*
D24*
X0202663Y0019100D03*
X0210537Y0019100D03*
D25*
X0105900Y0112400D02*
X0084800Y0133500D01*
X0074050Y0133500D01*
X0058400Y0149150D01*
X0058400Y0180800D01*
X0057500Y0181700D02*
X0057500Y0223100D01*
X0052100Y0228500D01*
X0031400Y0228500D02*
X0031400Y0187100D01*
X0095300Y0181700D02*
X0101600Y0188000D01*
X0101600Y0229100D01*
X0122300Y0228500D02*
X0122300Y0187100D01*
X0107000Y0169100D02*
X0095300Y0180800D01*
X0107000Y0169100D02*
X0107000Y0156500D01*
X0078200Y0117800D02*
X0046350Y0090950D01*
X0046350Y0059450D01*
X0051200Y0052100D01*
X0041300Y0052100D02*
X0041300Y0065600D01*
X0026000Y0080900D01*
X0026000Y0081800D02*
X0026000Y0111500D01*
X0029600Y0115100D01*
X0026600Y0118281D01*
X0042200Y0021500D02*
X0051200Y0021500D01*
D26*
X0051600Y0021600D01*
X0052100Y0022400D01*
X0042200Y0021500D02*
X0041600Y0021600D01*
X0041600Y0051600D02*
X0041300Y0052100D01*
X0051200Y0052100D02*
X0051600Y0051600D01*
X0057939Y0081600D02*
X0058400Y0081800D01*
X0084500Y0081800D01*
X0085261Y0081600D01*
X0117800Y0081800D02*
X0117939Y0081600D01*
X0117800Y0081800D02*
X0081800Y0117800D01*
X0081600Y0118281D01*
X0080900Y0117800D01*
X0078200Y0117800D01*
X0060200Y0117800D02*
X0057500Y0115100D01*
X0029600Y0115100D01*
X0026900Y0117800D01*
X0026600Y0118281D01*
X0047600Y0124100D02*
X0026900Y0144800D01*
X0026600Y0144919D01*
X0047600Y0124100D02*
X0052100Y0124100D01*
X0052761Y0123529D01*
X0055320Y0123529D02*
X0055700Y0124100D01*
X0057500Y0124100D01*
X0057880Y0123529D01*
X0055700Y0123200D02*
X0055320Y0123529D01*
X0055700Y0123200D02*
X0055700Y0118700D01*
X0060200Y0117800D02*
X0060200Y0123200D01*
X0060439Y0123529D01*
X0061100Y0124100D01*
X0052761Y0139671D02*
X0052100Y0140300D01*
X0081600Y0144919D02*
X0081800Y0144800D01*
X0102500Y0124100D01*
X0107000Y0124100D01*
X0107761Y0123529D01*
X0110320Y0123529D02*
X0110600Y0124100D01*
X0112400Y0124100D01*
X0112880Y0123529D01*
X0115100Y0123200D02*
X0115439Y0123529D01*
X0116000Y0124100D01*
X0115100Y0123200D02*
X0115100Y0117800D01*
X0110600Y0115100D02*
X0110600Y0123200D01*
X0110320Y0123529D01*
X0110600Y0115100D02*
X0107900Y0112400D01*
X0107860Y0111600D01*
X0107000Y0112400D01*
X0105900Y0112400D01*
X0115340Y0111600D02*
X0116000Y0111500D01*
X0119600Y0107900D01*
X0131300Y0107900D01*
X0131600Y0107860D01*
X0131600Y0115340D02*
X0131300Y0116000D01*
X0131300Y0127700D01*
X0131600Y0127860D01*
X0131600Y0135340D02*
X0131300Y0135800D01*
X0130400Y0136700D01*
X0130400Y0151100D01*
X0130340Y0151600D01*
X0122860Y0151600D02*
X0122300Y0152000D01*
X0117800Y0152000D01*
X0113300Y0156500D01*
X0107000Y0156500D01*
X0102500Y0152000D01*
X0102860Y0151600D01*
X0102500Y0151100D01*
X0107000Y0146600D01*
X0107000Y0140300D01*
X0107761Y0139671D01*
X0110320Y0139671D02*
X0110600Y0140300D01*
X0110600Y0151100D01*
X0110340Y0151600D01*
X0095300Y0180800D02*
X0095261Y0181600D01*
X0095300Y0181700D01*
X0122300Y0187100D02*
X0127700Y0181700D01*
X0127939Y0181600D01*
X0122300Y0228500D02*
X0121600Y0229100D01*
X0057939Y0181600D02*
X0058400Y0180800D01*
X0057939Y0181600D02*
X0057500Y0181700D01*
X0031400Y0187100D02*
X0026000Y0181700D01*
X0025261Y0181600D01*
X0026000Y0180800D01*
X0031400Y0228500D02*
X0031600Y0229100D01*
X0051600Y0229100D02*
X0052100Y0228500D01*
X0026000Y0081800D02*
X0025261Y0081600D01*
X0026000Y0080900D01*
D27*
X0055700Y0118700D03*
X0115100Y0117800D03*
D28*
X0052100Y0140300D02*
X0052100Y0154700D01*
X0026000Y0180800D01*
D29*
X0028500Y0187921D02*
X0016217Y0187921D01*
X0016200Y0187904D01*
X0016200Y0250701D01*
X0244421Y0250701D01*
X0244421Y0027172D01*
X0243298Y0027637D01*
X0239902Y0027637D01*
X0236764Y0026337D01*
X0234363Y0023936D01*
X0233063Y0020798D01*
X0233063Y0017402D01*
X0234363Y0014264D01*
X0236764Y0011863D01*
X0238364Y0011200D01*
X0022336Y0011200D01*
X0023936Y0011863D01*
X0026337Y0014264D01*
X0027637Y0017402D01*
X0027637Y0020798D01*
X0026337Y0023936D01*
X0023936Y0026337D01*
X0020798Y0027637D01*
X0017402Y0027637D01*
X0016200Y0027139D01*
X0016200Y0075296D01*
X0016217Y0075279D01*
X0027520Y0075279D01*
X0038400Y0064399D01*
X0038400Y0056657D01*
X0038209Y0056466D01*
X0037600Y0054996D01*
X0037600Y0048204D01*
X0038209Y0046734D01*
X0039334Y0045609D01*
X0040804Y0045000D01*
X0042396Y0045000D01*
X0043866Y0045609D01*
X0044991Y0046734D01*
X0045600Y0048204D01*
X0045600Y0054996D01*
X0045238Y0055870D01*
X0047600Y0052290D01*
X0047600Y0048204D01*
X0048209Y0046734D01*
X0049334Y0045609D01*
X0050804Y0045000D01*
X0052396Y0045000D01*
X0053866Y0045609D01*
X0054991Y0046734D01*
X0055600Y0048204D01*
X0055600Y0054996D01*
X0054991Y0056466D01*
X0053866Y0057591D01*
X0052396Y0058200D01*
X0050804Y0058200D01*
X0050683Y0058150D01*
X0049250Y0060321D01*
X0049250Y0075082D01*
X0049263Y0075079D01*
X0057339Y0075079D01*
X0057339Y0081000D01*
X0058539Y0081000D01*
X0058539Y0082200D01*
X0068003Y0082200D01*
X0068003Y0086732D01*
X0067894Y0087139D01*
X0067683Y0087504D01*
X0067386Y0087802D01*
X0067021Y0088012D01*
X0066614Y0088121D01*
X0058539Y0088121D01*
X0058539Y0082200D01*
X0057339Y0082200D01*
X0057339Y0088121D01*
X0049263Y0088121D01*
X0049250Y0088118D01*
X0049250Y0089602D01*
X0076355Y0112452D01*
X0084461Y0112452D01*
X0108992Y0087921D01*
X0108894Y0087921D01*
X0108074Y0087101D01*
X0108074Y0076099D01*
X0108894Y0075279D01*
X0126983Y0075279D01*
X0127803Y0076099D01*
X0127803Y0087101D01*
X0126983Y0087921D01*
X0114366Y0087921D01*
X0089835Y0112452D01*
X0091038Y0112452D01*
X0091858Y0113272D01*
X0091858Y0123290D01*
X0091038Y0124110D01*
X0072162Y0124110D01*
X0071342Y0123290D01*
X0071342Y0115811D01*
X0044825Y0093457D01*
X0044707Y0093408D01*
X0044387Y0093088D01*
X0044040Y0092795D01*
X0043981Y0092683D01*
X0043891Y0092593D01*
X0043718Y0092174D01*
X0043509Y0091771D01*
X0043499Y0091644D01*
X0043450Y0091527D01*
X0043450Y0091073D01*
X0043412Y0090621D01*
X0043450Y0090500D01*
X0043450Y0067551D01*
X0035014Y0075987D01*
X0035126Y0076099D01*
X0035126Y0087101D01*
X0034306Y0087921D01*
X0028900Y0087921D01*
X0028900Y0110299D01*
X0031053Y0112452D01*
X0036038Y0112452D01*
X0036786Y0113200D01*
X0058287Y0113200D01*
X0059400Y0114313D01*
X0062100Y0117013D01*
X0062100Y0120356D01*
X0062724Y0120981D01*
X0062724Y0122992D01*
X0062937Y0123176D01*
X0063053Y0124746D01*
X0062724Y0125126D01*
X0062724Y0126078D01*
X0061904Y0126898D01*
X0059540Y0126898D01*
X0059383Y0126989D01*
X0058976Y0127098D01*
X0057880Y0127098D01*
X0057880Y0123529D01*
X0057880Y0119961D01*
X0058300Y0119961D01*
X0058300Y0118587D01*
X0056713Y0117000D01*
X0036858Y0117000D01*
X0036858Y0123290D01*
X0036038Y0124110D01*
X0017162Y0124110D01*
X0016342Y0123290D01*
X0016342Y0113272D01*
X0017162Y0112452D01*
X0023255Y0112452D01*
X0023100Y0112077D01*
X0023100Y0087921D01*
X0016217Y0087921D01*
X0016200Y0087904D01*
X0016200Y0175296D01*
X0016217Y0175279D01*
X0028127Y0175279D01*
X0049700Y0153706D01*
X0049700Y0139823D01*
X0050065Y0138941D01*
X0050476Y0138530D01*
X0050476Y0137122D01*
X0051296Y0136302D01*
X0058239Y0136302D01*
X0058239Y0131850D01*
X0064400Y0125689D01*
X0064400Y0119182D01*
X0063734Y0118515D01*
X0063219Y0117273D01*
X0063219Y0115927D01*
X0063734Y0114685D01*
X0064685Y0113734D01*
X0065927Y0113219D01*
X0067273Y0113219D01*
X0068515Y0113734D01*
X0069466Y0114685D01*
X0069981Y0115927D01*
X0069981Y0117273D01*
X0069466Y0118515D01*
X0068800Y0119182D01*
X0068800Y0127511D01*
X0067511Y0128800D01*
X0062639Y0133673D01*
X0062639Y0137037D01*
X0062724Y0137122D01*
X0062724Y0142219D01*
X0061904Y0143039D01*
X0054500Y0143039D01*
X0054500Y0155177D01*
X0054135Y0156059D01*
X0034611Y0175583D01*
X0035126Y0176099D01*
X0035126Y0187101D01*
X0034306Y0187921D01*
X0034300Y0187921D01*
X0034300Y0221363D01*
X0034390Y0221400D01*
X0035775Y0222785D01*
X0036525Y0224595D01*
X0036525Y0233605D01*
X0035775Y0235415D01*
X0034390Y0236800D01*
X0032580Y0237550D01*
X0030620Y0237550D01*
X0028810Y0236800D01*
X0027425Y0235415D01*
X0026675Y0233605D01*
X0026675Y0224595D01*
X0027425Y0222785D01*
X0028500Y0221710D01*
X0028500Y0187921D01*
X0028500Y0188980D02*
X0016200Y0188980D01*
X0016200Y0190178D02*
X0028500Y0190178D01*
X0028500Y0191377D02*
X0016200Y0191377D01*
X0016200Y0192575D02*
X0028500Y0192575D01*
X0028500Y0193774D02*
X0016200Y0193774D01*
X0016200Y0194972D02*
X0028500Y0194972D01*
X0028500Y0196171D02*
X0016200Y0196171D01*
X0016200Y0197369D02*
X0028500Y0197369D01*
X0028500Y0198568D02*
X0016200Y0198568D01*
X0016200Y0199766D02*
X0028500Y0199766D01*
X0028500Y0200965D02*
X0016200Y0200965D01*
X0016200Y0202163D02*
X0028500Y0202163D01*
X0028500Y0203362D02*
X0016200Y0203362D01*
X0016200Y0204560D02*
X0028500Y0204560D01*
X0028500Y0205759D02*
X0016200Y0205759D01*
X0016200Y0206957D02*
X0028500Y0206957D01*
X0028500Y0208156D02*
X0016200Y0208156D01*
X0016200Y0209354D02*
X0028500Y0209354D01*
X0028500Y0210553D02*
X0016200Y0210553D01*
X0016200Y0211751D02*
X0028500Y0211751D01*
X0028500Y0212950D02*
X0016200Y0212950D01*
X0016200Y0214148D02*
X0028500Y0214148D01*
X0028500Y0215347D02*
X0016200Y0215347D01*
X0016200Y0216545D02*
X0028500Y0216545D01*
X0028500Y0217744D02*
X0016200Y0217744D01*
X0016200Y0218942D02*
X0028500Y0218942D01*
X0028500Y0220141D02*
X0016200Y0220141D01*
X0016200Y0221339D02*
X0028500Y0221339D01*
X0027672Y0222538D02*
X0016200Y0222538D01*
X0016200Y0223737D02*
X0027031Y0223737D01*
X0026675Y0224935D02*
X0016200Y0224935D01*
X0016200Y0226134D02*
X0026675Y0226134D01*
X0026675Y0227332D02*
X0016200Y0227332D01*
X0016200Y0228531D02*
X0026675Y0228531D01*
X0026675Y0229729D02*
X0016200Y0229729D01*
X0016200Y0230928D02*
X0026675Y0230928D01*
X0026675Y0232126D02*
X0016200Y0232126D01*
X0016200Y0233325D02*
X0026675Y0233325D01*
X0027055Y0234523D02*
X0016200Y0234523D01*
X0016200Y0235722D02*
X0027732Y0235722D01*
X0029100Y0236920D02*
X0016200Y0236920D01*
X0016200Y0238119D02*
X0068063Y0238119D01*
X0068063Y0238298D02*
X0068063Y0234902D01*
X0069363Y0231764D01*
X0071764Y0229363D01*
X0074902Y0228063D01*
X0078298Y0228063D01*
X0081436Y0229363D01*
X0083837Y0231764D01*
X0085137Y0234902D01*
X0085137Y0238298D01*
X0083837Y0241436D01*
X0081436Y0243837D01*
X0078298Y0245137D01*
X0074902Y0245137D01*
X0071764Y0243837D01*
X0069363Y0241436D01*
X0068063Y0238298D01*
X0068485Y0239317D02*
X0016200Y0239317D01*
X0016200Y0240516D02*
X0068982Y0240516D01*
X0069641Y0241714D02*
X0016200Y0241714D01*
X0016200Y0242913D02*
X0070840Y0242913D01*
X0072425Y0244111D02*
X0016200Y0244111D01*
X0016200Y0245310D02*
X0187062Y0245310D01*
X0186500Y0244748D02*
X0186500Y0238452D01*
X0190952Y0234000D01*
X0197248Y0234000D01*
X0201700Y0238452D01*
X0201700Y0244748D01*
X0197248Y0249200D01*
X0190952Y0249200D01*
X0186500Y0244748D01*
X0186500Y0244111D02*
X0080775Y0244111D01*
X0082360Y0242913D02*
X0186500Y0242913D01*
X0186500Y0241714D02*
X0083559Y0241714D01*
X0084218Y0240516D02*
X0186500Y0240516D01*
X0186500Y0239317D02*
X0175718Y0239317D01*
X0175035Y0239600D02*
X0176762Y0238884D01*
X0178084Y0237562D01*
X0178800Y0235835D01*
X0178800Y0227365D01*
X0178084Y0225638D01*
X0176762Y0224316D01*
X0175035Y0223600D01*
X0173165Y0223600D01*
X0171438Y0224316D01*
X0170116Y0225638D01*
X0169400Y0227365D01*
X0169400Y0235835D01*
X0170116Y0237562D01*
X0171438Y0238884D01*
X0173165Y0239600D01*
X0175035Y0239600D01*
X0172482Y0239317D02*
X0160718Y0239317D01*
X0160035Y0239600D02*
X0161762Y0238884D01*
X0163084Y0237562D01*
X0163800Y0235835D01*
X0163800Y0227365D01*
X0163084Y0225638D01*
X0161762Y0224316D01*
X0160035Y0223600D01*
X0158165Y0223600D01*
X0156438Y0224316D01*
X0155116Y0225638D01*
X0154400Y0227365D01*
X0154400Y0235835D01*
X0155116Y0237562D01*
X0156438Y0238884D01*
X0158165Y0239600D01*
X0160035Y0239600D01*
X0157482Y0239317D02*
X0145718Y0239317D01*
X0145035Y0239600D02*
X0143165Y0239600D01*
X0141438Y0238884D01*
X0140116Y0237562D01*
X0139400Y0235835D01*
X0139400Y0227365D01*
X0140116Y0225638D01*
X0141438Y0224316D01*
X0143165Y0223600D01*
X0145035Y0223600D01*
X0146762Y0224316D01*
X0148084Y0225638D01*
X0148800Y0227365D01*
X0148800Y0235835D01*
X0148084Y0237562D01*
X0146762Y0238884D01*
X0145035Y0239600D01*
X0142482Y0239317D02*
X0084715Y0239317D01*
X0085137Y0238119D02*
X0140672Y0238119D01*
X0139850Y0236920D02*
X0124407Y0236920D01*
X0124286Y0237008D02*
X0123567Y0237375D01*
X0122800Y0237624D01*
X0122175Y0237723D01*
X0122175Y0229675D01*
X0121025Y0229675D01*
X0121025Y0237723D01*
X0120400Y0237624D01*
X0119633Y0237375D01*
X0118914Y0237008D01*
X0118261Y0236534D01*
X0117691Y0235964D01*
X0117217Y0235311D01*
X0116850Y0234592D01*
X0116601Y0233825D01*
X0116475Y0233028D01*
X0116475Y0229675D01*
X0121025Y0229675D01*
X0121025Y0228525D01*
X0116475Y0228525D01*
X0116475Y0225172D01*
X0116601Y0224375D01*
X0116850Y0223608D01*
X0117217Y0222889D01*
X0117691Y0222236D01*
X0118261Y0221666D01*
X0118914Y0221192D01*
X0119633Y0220825D01*
X0120400Y0220576D01*
X0121025Y0220477D01*
X0121025Y0228525D01*
X0122175Y0228525D01*
X0122175Y0229675D01*
X0126725Y0229675D01*
X0126725Y0233028D01*
X0126599Y0233825D01*
X0126350Y0234592D01*
X0125983Y0235311D01*
X0125509Y0235964D01*
X0124939Y0236534D01*
X0124286Y0237008D01*
X0125685Y0235722D02*
X0139400Y0235722D01*
X0139400Y0234523D02*
X0126372Y0234523D01*
X0126678Y0233325D02*
X0139400Y0233325D01*
X0139400Y0232126D02*
X0126725Y0232126D01*
X0126725Y0230928D02*
X0139400Y0230928D01*
X0139400Y0229729D02*
X0126725Y0229729D01*
X0126725Y0228525D02*
X0122175Y0228525D01*
X0122175Y0220477D01*
X0122800Y0220576D01*
X0123567Y0220825D01*
X0124286Y0221192D01*
X0124939Y0221666D01*
X0125509Y0222236D01*
X0125983Y0222889D01*
X0126350Y0223608D01*
X0126599Y0224375D01*
X0126725Y0225172D01*
X0126725Y0228525D01*
X0126725Y0227332D02*
X0139414Y0227332D01*
X0139400Y0228531D02*
X0122175Y0228531D01*
X0121025Y0228531D02*
X0106525Y0228531D01*
X0106525Y0229729D02*
X0116475Y0229729D01*
X0116475Y0230928D02*
X0106525Y0230928D01*
X0106525Y0232126D02*
X0116475Y0232126D01*
X0116522Y0233325D02*
X0106525Y0233325D01*
X0106525Y0233605D02*
X0105775Y0235415D01*
X0104390Y0236800D01*
X0102580Y0237550D01*
X0100620Y0237550D01*
X0098810Y0236800D01*
X0097425Y0235415D01*
X0096675Y0233605D01*
X0096675Y0224595D01*
X0097425Y0222785D01*
X0098700Y0221510D01*
X0098700Y0189201D01*
X0097420Y0187921D01*
X0086217Y0187921D01*
X0085397Y0187101D01*
X0085397Y0176099D01*
X0086217Y0175279D01*
X0096720Y0175279D01*
X0104100Y0167899D01*
X0104100Y0156287D01*
X0103963Y0156150D01*
X0099721Y0156150D01*
X0098901Y0155330D01*
X0098901Y0147870D01*
X0099721Y0147050D01*
X0103863Y0147050D01*
X0105100Y0145813D01*
X0105100Y0140983D01*
X0105034Y0140904D01*
X0105100Y0140210D01*
X0105100Y0139513D01*
X0105173Y0139440D01*
X0105183Y0139337D01*
X0105476Y0139095D01*
X0105476Y0137122D01*
X0106296Y0136302D01*
X0113239Y0136302D01*
X0113239Y0131850D01*
X0119400Y0125689D01*
X0119400Y0124182D01*
X0118734Y0123515D01*
X0118219Y0122273D01*
X0118219Y0120927D01*
X0118734Y0119685D01*
X0119685Y0118734D01*
X0120927Y0118219D01*
X0122273Y0118219D01*
X0123515Y0118734D01*
X0124466Y0119685D01*
X0124981Y0120927D01*
X0124981Y0122273D01*
X0124466Y0123515D01*
X0123800Y0124182D01*
X0123800Y0127511D01*
X0122511Y0128800D01*
X0117639Y0133673D01*
X0117639Y0137037D01*
X0117724Y0137122D01*
X0117724Y0142100D01*
X0120772Y0142100D01*
X0122100Y0140772D01*
X0122100Y0129522D01*
X0124600Y0127022D01*
X0125772Y0125850D01*
X0127050Y0125850D01*
X0127050Y0124721D01*
X0127870Y0123901D01*
X0129400Y0123901D01*
X0129400Y0119299D01*
X0127870Y0119299D01*
X0127050Y0118479D01*
X0127050Y0112201D01*
X0127652Y0111600D01*
X0127050Y0110999D01*
X0127050Y0109800D01*
X0120387Y0109800D01*
X0119299Y0110888D01*
X0119299Y0115330D01*
X0118479Y0116150D01*
X0118096Y0116150D01*
X0118500Y0117124D01*
X0118500Y0118476D01*
X0117982Y0119726D01*
X0117226Y0120482D01*
X0117724Y0120981D01*
X0117724Y0123144D01*
X0117906Y0123329D01*
X0117893Y0124903D01*
X0117724Y0125069D01*
X0117724Y0126078D01*
X0116904Y0126898D01*
X0114540Y0126898D01*
X0114383Y0126989D01*
X0113976Y0127098D01*
X0112880Y0127098D01*
X0112880Y0123529D01*
X0112879Y0123529D01*
X0110394Y0123529D01*
X0110321Y0123529D01*
X0110321Y0123529D01*
X0112879Y0123529D01*
X0112879Y0123529D01*
X0112879Y0127098D01*
X0111783Y0127098D01*
X0111600Y0127049D01*
X0111417Y0127098D01*
X0110321Y0127098D01*
X0110321Y0123529D01*
X0110321Y0119961D01*
X0111417Y0119961D01*
X0111600Y0120010D01*
X0111783Y0119961D01*
X0112452Y0119961D01*
X0112218Y0119726D01*
X0111700Y0118476D01*
X0111700Y0117124D01*
X0112132Y0116080D01*
X0111730Y0115678D01*
X0111699Y0115732D01*
X0111401Y0116030D01*
X0111036Y0116241D01*
X0110630Y0116350D01*
X0108460Y0116350D01*
X0108460Y0112200D01*
X0107260Y0112200D01*
X0107260Y0116350D01*
X0105090Y0116350D01*
X0104683Y0116241D01*
X0104318Y0116030D01*
X0104020Y0115732D01*
X0103810Y0115367D01*
X0103701Y0114960D01*
X0103701Y0112200D01*
X0107260Y0112200D01*
X0107260Y0111000D01*
X0108460Y0111000D01*
X0108460Y0106850D01*
X0110630Y0106850D01*
X0111036Y0106959D01*
X0111401Y0107170D01*
X0111699Y0107468D01*
X0111730Y0107521D01*
X0112201Y0107050D01*
X0117763Y0107050D01*
X0118813Y0106000D01*
X0127050Y0106000D01*
X0127050Y0104721D01*
X0127870Y0103901D01*
X0135330Y0103901D01*
X0136150Y0104721D01*
X0136150Y0110999D01*
X0135548Y0111600D01*
X0136150Y0112201D01*
X0136150Y0118479D01*
X0135330Y0119299D01*
X0133200Y0119299D01*
X0133200Y0123901D01*
X0135330Y0123901D01*
X0136150Y0124721D01*
X0136150Y0130999D01*
X0135548Y0131600D01*
X0136150Y0132201D01*
X0136150Y0138479D01*
X0135330Y0139299D01*
X0132300Y0139299D01*
X0132300Y0147050D01*
X0133479Y0147050D01*
X0134299Y0147870D01*
X0134299Y0155330D01*
X0133479Y0156150D01*
X0127201Y0156150D01*
X0126600Y0155548D01*
X0125999Y0156150D01*
X0119721Y0156150D01*
X0118901Y0155330D01*
X0118901Y0153900D01*
X0118587Y0153900D01*
X0115200Y0157287D01*
X0114087Y0158400D01*
X0109900Y0158400D01*
X0109900Y0169677D01*
X0109458Y0170743D01*
X0104614Y0175587D01*
X0105126Y0176099D01*
X0105126Y0187101D01*
X0104500Y0187727D01*
X0104500Y0221510D01*
X0105775Y0222785D01*
X0106525Y0224595D01*
X0106525Y0233605D01*
X0106145Y0234523D02*
X0116828Y0234523D01*
X0117515Y0235722D02*
X0105468Y0235722D01*
X0104100Y0236920D02*
X0118793Y0236920D01*
X0121025Y0236920D02*
X0122175Y0236920D01*
X0122175Y0235722D02*
X0121025Y0235722D01*
X0121025Y0234523D02*
X0122175Y0234523D01*
X0122175Y0233325D02*
X0121025Y0233325D01*
X0121025Y0232126D02*
X0122175Y0232126D01*
X0122175Y0230928D02*
X0121025Y0230928D01*
X0121025Y0229729D02*
X0122175Y0229729D01*
X0122175Y0227332D02*
X0121025Y0227332D01*
X0121025Y0226134D02*
X0122175Y0226134D01*
X0122175Y0224935D02*
X0121025Y0224935D01*
X0121025Y0223737D02*
X0122175Y0223737D01*
X0122175Y0222538D02*
X0121025Y0222538D01*
X0121025Y0221339D02*
X0122175Y0221339D01*
X0124489Y0221339D02*
X0244421Y0221339D01*
X0244421Y0220141D02*
X0104500Y0220141D01*
X0104500Y0221339D02*
X0118711Y0221339D01*
X0117472Y0222538D02*
X0105528Y0222538D01*
X0106169Y0223737D02*
X0116809Y0223737D01*
X0116512Y0224935D02*
X0106525Y0224935D01*
X0106525Y0226134D02*
X0116475Y0226134D01*
X0116475Y0227332D02*
X0106525Y0227332D01*
X0098700Y0221339D02*
X0054489Y0221339D01*
X0054286Y0221192D02*
X0054939Y0221666D01*
X0055509Y0222236D01*
X0055983Y0222889D01*
X0056350Y0223608D01*
X0056599Y0224375D01*
X0056725Y0225172D01*
X0056725Y0228525D01*
X0052175Y0228525D01*
X0052175Y0229675D01*
X0051025Y0229675D01*
X0051025Y0237723D01*
X0050400Y0237624D01*
X0049633Y0237375D01*
X0048914Y0237008D01*
X0048261Y0236534D01*
X0047691Y0235964D01*
X0047217Y0235311D01*
X0046850Y0234592D01*
X0046601Y0233825D01*
X0046475Y0233028D01*
X0046475Y0229675D01*
X0051025Y0229675D01*
X0051025Y0228525D01*
X0046475Y0228525D01*
X0046475Y0225172D01*
X0046601Y0224375D01*
X0046850Y0223608D01*
X0047217Y0222889D01*
X0047691Y0222236D01*
X0048261Y0221666D01*
X0048914Y0221192D01*
X0049633Y0220825D01*
X0050400Y0220576D01*
X0051025Y0220477D01*
X0051025Y0228525D01*
X0052175Y0228525D01*
X0052175Y0220477D01*
X0052800Y0220576D01*
X0053567Y0220825D01*
X0054286Y0221192D01*
X0055728Y0222538D02*
X0097672Y0222538D01*
X0097031Y0223737D02*
X0056391Y0223737D01*
X0056687Y0224935D02*
X0096675Y0224935D01*
X0096675Y0226134D02*
X0056725Y0226134D01*
X0056725Y0227332D02*
X0096675Y0227332D01*
X0096675Y0228531D02*
X0079427Y0228531D01*
X0081802Y0229729D02*
X0096675Y0229729D01*
X0096675Y0230928D02*
X0083001Y0230928D01*
X0083987Y0232126D02*
X0096675Y0232126D01*
X0096675Y0233325D02*
X0084484Y0233325D01*
X0084980Y0234523D02*
X0097055Y0234523D01*
X0097732Y0235722D02*
X0085137Y0235722D01*
X0085137Y0236920D02*
X0099100Y0236920D01*
X0098700Y0220141D02*
X0034300Y0220141D01*
X0034300Y0221339D02*
X0048711Y0221339D01*
X0047472Y0222538D02*
X0035528Y0222538D01*
X0036169Y0223737D02*
X0046809Y0223737D01*
X0046512Y0224935D02*
X0036525Y0224935D01*
X0036525Y0226134D02*
X0046475Y0226134D01*
X0046475Y0227332D02*
X0036525Y0227332D01*
X0036525Y0228531D02*
X0051025Y0228531D01*
X0052175Y0228531D02*
X0073773Y0228531D01*
X0071398Y0229729D02*
X0056725Y0229729D01*
X0056725Y0229675D02*
X0056725Y0233028D01*
X0056599Y0233825D01*
X0056350Y0234592D01*
X0055983Y0235311D01*
X0055509Y0235964D01*
X0054939Y0236534D01*
X0054286Y0237008D01*
X0053567Y0237375D01*
X0052800Y0237624D01*
X0052175Y0237723D01*
X0052175Y0229675D01*
X0056725Y0229675D01*
X0056725Y0230928D02*
X0070199Y0230928D01*
X0069213Y0232126D02*
X0056725Y0232126D01*
X0056678Y0233325D02*
X0068716Y0233325D01*
X0068220Y0234523D02*
X0056372Y0234523D01*
X0055685Y0235722D02*
X0068063Y0235722D01*
X0068063Y0236920D02*
X0054407Y0236920D01*
X0052175Y0236920D02*
X0051025Y0236920D01*
X0051025Y0235722D02*
X0052175Y0235722D01*
X0052175Y0234523D02*
X0051025Y0234523D01*
X0051025Y0233325D02*
X0052175Y0233325D01*
X0052175Y0232126D02*
X0051025Y0232126D01*
X0051025Y0230928D02*
X0052175Y0230928D01*
X0052175Y0229729D02*
X0051025Y0229729D01*
X0051025Y0227332D02*
X0052175Y0227332D01*
X0052175Y0226134D02*
X0051025Y0226134D01*
X0051025Y0224935D02*
X0052175Y0224935D01*
X0052175Y0223737D02*
X0051025Y0223737D01*
X0051025Y0222538D02*
X0052175Y0222538D01*
X0052175Y0221339D02*
X0051025Y0221339D01*
X0046475Y0229729D02*
X0036525Y0229729D01*
X0036525Y0230928D02*
X0046475Y0230928D01*
X0046475Y0232126D02*
X0036525Y0232126D01*
X0036525Y0233325D02*
X0046522Y0233325D01*
X0046828Y0234523D02*
X0036145Y0234523D01*
X0035468Y0235722D02*
X0047515Y0235722D01*
X0048793Y0236920D02*
X0034100Y0236920D01*
X0034300Y0218942D02*
X0098700Y0218942D01*
X0098700Y0217744D02*
X0034300Y0217744D01*
X0034300Y0216545D02*
X0098700Y0216545D01*
X0098700Y0215347D02*
X0034300Y0215347D01*
X0034300Y0214148D02*
X0098700Y0214148D01*
X0098700Y0212950D02*
X0034300Y0212950D01*
X0034300Y0211751D02*
X0098700Y0211751D01*
X0098700Y0210553D02*
X0034300Y0210553D01*
X0034300Y0209354D02*
X0098700Y0209354D01*
X0098700Y0208156D02*
X0034300Y0208156D01*
X0034300Y0206957D02*
X0098700Y0206957D01*
X0098700Y0205759D02*
X0034300Y0205759D01*
X0034300Y0204560D02*
X0098700Y0204560D01*
X0098700Y0203362D02*
X0034300Y0203362D01*
X0034300Y0202163D02*
X0098700Y0202163D01*
X0098700Y0200965D02*
X0034300Y0200965D01*
X0034300Y0199766D02*
X0098700Y0199766D01*
X0098700Y0198568D02*
X0034300Y0198568D01*
X0034300Y0197369D02*
X0098700Y0197369D01*
X0098700Y0196171D02*
X0034300Y0196171D01*
X0034300Y0194972D02*
X0098700Y0194972D01*
X0098700Y0193774D02*
X0034300Y0193774D01*
X0034300Y0192575D02*
X0098700Y0192575D01*
X0098700Y0191377D02*
X0034300Y0191377D01*
X0034300Y0190178D02*
X0098700Y0190178D01*
X0098478Y0188980D02*
X0034300Y0188980D01*
X0034446Y0187781D02*
X0048471Y0187781D01*
X0048492Y0187802D02*
X0048194Y0187504D01*
X0047983Y0187139D01*
X0047874Y0186732D01*
X0047874Y0182200D01*
X0057339Y0182200D01*
X0057339Y0188121D01*
X0049263Y0188121D01*
X0048856Y0188012D01*
X0048492Y0187802D01*
X0047874Y0186583D02*
X0035126Y0186583D01*
X0035126Y0185384D02*
X0047874Y0185384D01*
X0047874Y0184186D02*
X0035126Y0184186D01*
X0035126Y0182987D02*
X0047874Y0182987D01*
X0047874Y0181000D02*
X0047874Y0176468D01*
X0047983Y0176061D01*
X0048194Y0175696D01*
X0048492Y0175398D01*
X0048856Y0175188D01*
X0049263Y0175079D01*
X0057339Y0175079D01*
X0057339Y0181000D01*
X0058539Y0181000D01*
X0058539Y0182200D01*
X0068003Y0182200D01*
X0068003Y0186732D01*
X0067894Y0187139D01*
X0067683Y0187504D01*
X0067386Y0187802D01*
X0067021Y0188012D01*
X0066614Y0188121D01*
X0058539Y0188121D01*
X0058539Y0182200D01*
X0057339Y0182200D01*
X0057339Y0181000D01*
X0047874Y0181000D01*
X0047874Y0180590D02*
X0035126Y0180590D01*
X0035126Y0179392D02*
X0047874Y0179392D01*
X0047874Y0178193D02*
X0035126Y0178193D01*
X0035126Y0176995D02*
X0047874Y0176995D01*
X0048136Y0175796D02*
X0034823Y0175796D01*
X0035597Y0174598D02*
X0097401Y0174598D01*
X0098600Y0173399D02*
X0036795Y0173399D01*
X0037994Y0172201D02*
X0099798Y0172201D01*
X0100997Y0171002D02*
X0039192Y0171002D01*
X0040391Y0169803D02*
X0102195Y0169803D01*
X0103394Y0168605D02*
X0041589Y0168605D01*
X0042788Y0167406D02*
X0104100Y0167406D01*
X0104100Y0166208D02*
X0043986Y0166208D01*
X0045185Y0165009D02*
X0104100Y0165009D01*
X0104100Y0163811D02*
X0046383Y0163811D01*
X0047582Y0162612D02*
X0104100Y0162612D01*
X0104100Y0161414D02*
X0048780Y0161414D01*
X0049979Y0160215D02*
X0104100Y0160215D01*
X0104100Y0159017D02*
X0051177Y0159017D01*
X0052376Y0157818D02*
X0104100Y0157818D01*
X0104100Y0156620D02*
X0053574Y0156620D01*
X0054399Y0155421D02*
X0098993Y0155421D01*
X0098901Y0154223D02*
X0054500Y0154223D01*
X0054500Y0153024D02*
X0098901Y0153024D01*
X0098901Y0151826D02*
X0054500Y0151826D01*
X0054500Y0150627D02*
X0072041Y0150627D01*
X0072162Y0150748D02*
X0071342Y0149928D01*
X0071342Y0139910D01*
X0072162Y0139090D01*
X0084823Y0139090D01*
X0101713Y0122200D01*
X0105476Y0122200D01*
X0105476Y0120981D01*
X0106296Y0120161D01*
X0108660Y0120161D01*
X0108817Y0120070D01*
X0109224Y0119961D01*
X0110320Y0119961D01*
X0110320Y0123529D01*
X0110321Y0123529D01*
X0110320Y0123529D01*
X0110320Y0127098D01*
X0109224Y0127098D01*
X0108817Y0126989D01*
X0108660Y0126898D01*
X0106296Y0126898D01*
X0105476Y0126078D01*
X0105476Y0126000D01*
X0103287Y0126000D01*
X0090197Y0139090D01*
X0091038Y0139090D01*
X0091858Y0139910D01*
X0091858Y0149928D01*
X0091038Y0150748D01*
X0072162Y0150748D01*
X0071342Y0149429D02*
X0054500Y0149429D01*
X0054500Y0148230D02*
X0071342Y0148230D01*
X0071342Y0147032D02*
X0054500Y0147032D01*
X0054500Y0145833D02*
X0071342Y0145833D01*
X0071342Y0144635D02*
X0054500Y0144635D01*
X0054500Y0143436D02*
X0071342Y0143436D01*
X0071342Y0142238D02*
X0062706Y0142238D01*
X0062724Y0141039D02*
X0071342Y0141039D01*
X0071411Y0139841D02*
X0062724Y0139841D01*
X0062724Y0138642D02*
X0085271Y0138642D01*
X0086469Y0137444D02*
X0062724Y0137444D01*
X0062639Y0136245D02*
X0087668Y0136245D01*
X0088866Y0135047D02*
X0062639Y0135047D01*
X0062639Y0133848D02*
X0090065Y0133848D01*
X0091263Y0132650D02*
X0063662Y0132650D01*
X0064860Y0131451D02*
X0092462Y0131451D01*
X0093660Y0130253D02*
X0066059Y0130253D01*
X0067257Y0129054D02*
X0094859Y0129054D01*
X0096057Y0127856D02*
X0068456Y0127856D01*
X0068800Y0126657D02*
X0097256Y0126657D01*
X0098454Y0125459D02*
X0068800Y0125459D01*
X0068800Y0124260D02*
X0099653Y0124260D01*
X0100851Y0123062D02*
X0091858Y0123062D01*
X0091858Y0121863D02*
X0105476Y0121863D01*
X0105792Y0120665D02*
X0091858Y0120665D01*
X0091858Y0119466D02*
X0112110Y0119466D01*
X0111700Y0118268D02*
X0091858Y0118268D01*
X0091858Y0117069D02*
X0111723Y0117069D01*
X0111561Y0115870D02*
X0111922Y0115870D01*
X0108460Y0115870D02*
X0107260Y0115870D01*
X0107260Y0114672D02*
X0108460Y0114672D01*
X0108460Y0113473D02*
X0107260Y0113473D01*
X0107260Y0112275D02*
X0108460Y0112275D01*
X0107260Y0111076D02*
X0091211Y0111076D01*
X0092409Y0109878D02*
X0103701Y0109878D01*
X0103701Y0111000D02*
X0103701Y0108240D01*
X0103810Y0107833D01*
X0104020Y0107468D01*
X0104318Y0107170D01*
X0104683Y0106959D01*
X0105090Y0106850D01*
X0107260Y0106850D01*
X0107260Y0111000D01*
X0103701Y0111000D01*
X0103701Y0112275D02*
X0090012Y0112275D01*
X0091858Y0113473D02*
X0103701Y0113473D01*
X0103701Y0114672D02*
X0091858Y0114672D01*
X0091858Y0115870D02*
X0104159Y0115870D01*
X0107260Y0109878D02*
X0108460Y0109878D01*
X0108460Y0108679D02*
X0107260Y0108679D01*
X0107260Y0107481D02*
X0108460Y0107481D01*
X0111707Y0107481D02*
X0111771Y0107481D01*
X0118531Y0106282D02*
X0096005Y0106282D01*
X0097203Y0105084D02*
X0127050Y0105084D01*
X0127050Y0109878D02*
X0120309Y0109878D01*
X0119299Y0111076D02*
X0127128Y0111076D01*
X0127050Y0112275D02*
X0119299Y0112275D01*
X0119299Y0113473D02*
X0127050Y0113473D01*
X0127050Y0114672D02*
X0119299Y0114672D01*
X0118758Y0115870D02*
X0127050Y0115870D01*
X0127050Y0117069D02*
X0118477Y0117069D01*
X0118500Y0118268D02*
X0120810Y0118268D01*
X0122390Y0118268D02*
X0127050Y0118268D01*
X0129400Y0119466D02*
X0124248Y0119466D01*
X0124872Y0120665D02*
X0129400Y0120665D01*
X0129400Y0121863D02*
X0124981Y0121863D01*
X0124654Y0123062D02*
X0129400Y0123062D01*
X0127511Y0124260D02*
X0123800Y0124260D01*
X0123800Y0125459D02*
X0127050Y0125459D01*
X0124964Y0126657D02*
X0123800Y0126657D01*
X0123766Y0127856D02*
X0123456Y0127856D01*
X0122567Y0129054D02*
X0122257Y0129054D01*
X0122100Y0130253D02*
X0121059Y0130253D01*
X0122100Y0131451D02*
X0119860Y0131451D01*
X0118662Y0132650D02*
X0122100Y0132650D01*
X0122100Y0133848D02*
X0117639Y0133848D01*
X0117639Y0135047D02*
X0122100Y0135047D01*
X0122100Y0136245D02*
X0117639Y0136245D01*
X0117724Y0137444D02*
X0122100Y0137444D01*
X0122100Y0138642D02*
X0117724Y0138642D01*
X0117724Y0139841D02*
X0122100Y0139841D01*
X0121832Y0141039D02*
X0117724Y0141039D01*
X0114100Y0144100D02*
X0121600Y0144100D01*
X0124100Y0141600D01*
X0124100Y0130350D01*
X0126600Y0127850D01*
X0131590Y0127850D01*
X0131600Y0127860D01*
X0136150Y0127856D02*
X0154400Y0127856D01*
X0154400Y0128189D02*
X0154400Y0087677D01*
X0156539Y0085538D01*
X0156539Y0079583D01*
X0157359Y0078763D01*
X0159400Y0078763D01*
X0159400Y0065689D01*
X0160689Y0064400D01*
X0161900Y0063189D01*
X0161900Y0058800D01*
X0159865Y0058800D01*
X0158138Y0058084D01*
X0156816Y0056762D01*
X0156100Y0055035D01*
X0156100Y0053165D01*
X0156816Y0051438D01*
X0158138Y0050116D01*
X0159865Y0049400D01*
X0168335Y0049400D01*
X0170062Y0050116D01*
X0171384Y0051438D01*
X0172100Y0053165D01*
X0172100Y0055035D01*
X0171384Y0056762D01*
X0170062Y0058084D01*
X0168335Y0058800D01*
X0166300Y0058800D01*
X0166300Y0065011D01*
X0163800Y0067511D01*
X0163800Y0078763D01*
X0164818Y0078763D01*
X0165638Y0079583D01*
X0165638Y0088617D01*
X0164818Y0089437D01*
X0158862Y0089437D01*
X0158800Y0089499D01*
X0158800Y0118189D01*
X0171418Y0130807D01*
X0171418Y0142877D01*
X0172160Y0142877D01*
X0172980Y0143697D01*
X0172980Y0147022D01*
X0172160Y0147843D01*
X0166276Y0147843D01*
X0165456Y0147022D01*
X0165456Y0143697D01*
X0166276Y0142877D01*
X0167018Y0142877D01*
X0167018Y0132629D01*
X0158800Y0124411D01*
X0158800Y0130011D01*
X0157511Y0131300D01*
X0148800Y0140011D01*
X0148800Y0161318D01*
X0149400Y0160718D01*
X0149400Y0153189D01*
X0150689Y0151900D01*
X0151949Y0150640D01*
X0155086Y0150640D01*
X0155020Y0150393D01*
X0155020Y0149100D01*
X0155020Y0147807D01*
X0155129Y0147400D01*
X0155300Y0147103D01*
X0155220Y0147022D01*
X0155220Y0143697D01*
X0156040Y0142877D01*
X0156782Y0142877D01*
X0156782Y0138785D01*
X0156401Y0138404D01*
X0155916Y0137233D01*
X0155916Y0135967D01*
X0156401Y0134796D01*
X0157296Y0133901D01*
X0158467Y0133416D01*
X0159733Y0133416D01*
X0160904Y0133901D01*
X0161799Y0134796D01*
X0162284Y0135967D01*
X0162284Y0137233D01*
X0161799Y0138404D01*
X0161182Y0139021D01*
X0161182Y0142877D01*
X0161924Y0142877D01*
X0162744Y0143697D01*
X0162744Y0147022D01*
X0162664Y0147103D01*
X0162835Y0147400D01*
X0162944Y0147807D01*
X0162944Y0149100D01*
X0162944Y0150393D01*
X0162835Y0150800D01*
X0162664Y0151097D01*
X0162744Y0151178D01*
X0162744Y0154503D01*
X0161924Y0155323D01*
X0156040Y0155323D01*
X0155757Y0155040D01*
X0153800Y0155040D01*
X0153800Y0160718D01*
X0154575Y0161493D01*
X0154575Y0165802D01*
X0153777Y0166600D01*
X0154575Y0167398D01*
X0154575Y0168964D01*
X0160011Y0174400D01*
X0161300Y0175689D01*
X0161300Y0178763D01*
X0162318Y0178763D01*
X0163138Y0179583D01*
X0163138Y0188617D01*
X0162318Y0189437D01*
X0154859Y0189437D01*
X0154039Y0188617D01*
X0154039Y0179583D01*
X0154859Y0178763D01*
X0156900Y0178763D01*
X0156900Y0177511D01*
X0151916Y0172528D01*
X0149445Y0172528D01*
X0148800Y0171882D01*
X0148800Y0188189D01*
X0152511Y0191900D01*
X0165689Y0191900D01*
X0167412Y0190177D01*
X0167412Y0189437D01*
X0165882Y0189437D01*
X0165062Y0188617D01*
X0165062Y0179583D01*
X0165882Y0178763D01*
X0173341Y0178763D01*
X0174161Y0179583D01*
X0174161Y0188617D01*
X0173341Y0189437D01*
X0171812Y0189437D01*
X0171812Y0191999D01*
X0168800Y0195011D01*
X0167511Y0196300D01*
X0150689Y0196300D01*
X0145689Y0191300D01*
X0144400Y0190011D01*
X0144400Y0138189D01*
X0154400Y0128189D01*
X0153535Y0129054D02*
X0136150Y0129054D01*
X0136150Y0130253D02*
X0152336Y0130253D01*
X0151138Y0131451D02*
X0135697Y0131451D01*
X0136150Y0132650D02*
X0149939Y0132650D01*
X0148741Y0133848D02*
X0136150Y0133848D01*
X0136150Y0135047D02*
X0147542Y0135047D01*
X0146344Y0136245D02*
X0136150Y0136245D01*
X0136150Y0137444D02*
X0145145Y0137444D01*
X0144400Y0138642D02*
X0135987Y0138642D01*
X0132300Y0139841D02*
X0144400Y0139841D01*
X0144400Y0141039D02*
X0132300Y0141039D01*
X0132300Y0142238D02*
X0144400Y0142238D01*
X0144400Y0143436D02*
X0132300Y0143436D01*
X0132300Y0144635D02*
X0144400Y0144635D01*
X0144400Y0145833D02*
X0132300Y0145833D01*
X0132300Y0147032D02*
X0144400Y0147032D01*
X0144400Y0148230D02*
X0134299Y0148230D01*
X0134299Y0149429D02*
X0144400Y0149429D01*
X0144400Y0150627D02*
X0134299Y0150627D01*
X0134299Y0151826D02*
X0144400Y0151826D01*
X0144400Y0153024D02*
X0134299Y0153024D01*
X0134299Y0154223D02*
X0144400Y0154223D01*
X0144400Y0155421D02*
X0134207Y0155421D01*
X0144400Y0156620D02*
X0115867Y0156620D01*
X0114669Y0157818D02*
X0144400Y0157818D01*
X0144400Y0159017D02*
X0109900Y0159017D01*
X0109900Y0160215D02*
X0144400Y0160215D01*
X0144400Y0161414D02*
X0109900Y0161414D01*
X0109900Y0162612D02*
X0144400Y0162612D01*
X0144400Y0163811D02*
X0109900Y0163811D01*
X0109900Y0165009D02*
X0144400Y0165009D01*
X0144400Y0166208D02*
X0109900Y0166208D01*
X0109900Y0167406D02*
X0144400Y0167406D01*
X0144400Y0168605D02*
X0109900Y0168605D01*
X0109848Y0169803D02*
X0144400Y0169803D01*
X0144400Y0171002D02*
X0109199Y0171002D01*
X0108001Y0172201D02*
X0144400Y0172201D01*
X0144400Y0173399D02*
X0106802Y0173399D01*
X0105604Y0174598D02*
X0144400Y0174598D01*
X0144400Y0175796D02*
X0137741Y0175796D01*
X0137683Y0175696D02*
X0137894Y0176061D01*
X0138003Y0176468D01*
X0138003Y0181000D01*
X0128539Y0181000D01*
X0128539Y0182200D01*
X0138003Y0182200D01*
X0138003Y0186732D01*
X0137894Y0187139D01*
X0137683Y0187504D01*
X0137386Y0187802D01*
X0137021Y0188012D01*
X0136614Y0188121D01*
X0128539Y0188121D01*
X0128539Y0182200D01*
X0127339Y0182200D01*
X0127339Y0188121D01*
X0119263Y0188121D01*
X0118856Y0188012D01*
X0118492Y0187802D01*
X0118194Y0187504D01*
X0117983Y0187139D01*
X0117874Y0186732D01*
X0117874Y0182200D01*
X0127339Y0182200D01*
X0127339Y0181000D01*
X0128539Y0181000D01*
X0128539Y0175079D01*
X0136614Y0175079D01*
X0137021Y0175188D01*
X0137386Y0175398D01*
X0137683Y0175696D01*
X0138003Y0176995D02*
X0144400Y0176995D01*
X0144400Y0178193D02*
X0138003Y0178193D01*
X0138003Y0179392D02*
X0144400Y0179392D01*
X0144400Y0180590D02*
X0138003Y0180590D01*
X0138003Y0182987D02*
X0144400Y0182987D01*
X0144400Y0181789D02*
X0128539Y0181789D01*
X0128539Y0182987D02*
X0127339Y0182987D01*
X0127339Y0181789D02*
X0105126Y0181789D01*
X0105126Y0182987D02*
X0117874Y0182987D01*
X0117874Y0184186D02*
X0105126Y0184186D01*
X0105126Y0185384D02*
X0117874Y0185384D01*
X0117874Y0186583D02*
X0105126Y0186583D01*
X0104500Y0187781D02*
X0118471Y0187781D01*
X0117874Y0181000D02*
X0117874Y0176468D01*
X0117983Y0176061D01*
X0118194Y0175696D01*
X0118492Y0175398D01*
X0118856Y0175188D01*
X0119263Y0175079D01*
X0127339Y0175079D01*
X0127339Y0181000D01*
X0117874Y0181000D01*
X0117874Y0180590D02*
X0105126Y0180590D01*
X0105126Y0179392D02*
X0117874Y0179392D01*
X0117874Y0178193D02*
X0105126Y0178193D01*
X0105126Y0176995D02*
X0117874Y0176995D01*
X0118136Y0175796D02*
X0104823Y0175796D01*
X0104500Y0188980D02*
X0144400Y0188980D01*
X0144400Y0187781D02*
X0137406Y0187781D01*
X0138003Y0186583D02*
X0144400Y0186583D01*
X0144400Y0185384D02*
X0138003Y0185384D01*
X0138003Y0184186D02*
X0144400Y0184186D01*
X0148800Y0184186D02*
X0154039Y0184186D01*
X0154039Y0185384D02*
X0148800Y0185384D01*
X0148800Y0186583D02*
X0154039Y0186583D01*
X0154039Y0187781D02*
X0148800Y0187781D01*
X0149591Y0188980D02*
X0154401Y0188980D01*
X0151988Y0191377D02*
X0166212Y0191377D01*
X0167411Y0190178D02*
X0150789Y0190178D01*
X0148162Y0193774D02*
X0104500Y0193774D01*
X0104500Y0194972D02*
X0149361Y0194972D01*
X0150559Y0196171D02*
X0104500Y0196171D01*
X0104500Y0197369D02*
X0176900Y0197369D01*
X0176900Y0196171D02*
X0167641Y0196171D01*
X0168839Y0194972D02*
X0176900Y0194972D01*
X0176900Y0193774D02*
X0170038Y0193774D01*
X0171236Y0192575D02*
X0176900Y0192575D01*
X0176900Y0191377D02*
X0171812Y0191377D01*
X0171812Y0190178D02*
X0176900Y0190178D01*
X0176900Y0188980D02*
X0173799Y0188980D01*
X0174161Y0187781D02*
X0176900Y0187781D01*
X0176900Y0186583D02*
X0174161Y0186583D01*
X0174161Y0185384D02*
X0176900Y0185384D01*
X0176900Y0184186D02*
X0174161Y0184186D01*
X0174161Y0182987D02*
X0176900Y0182987D01*
X0176900Y0181789D02*
X0174161Y0181789D01*
X0174161Y0180590D02*
X0176900Y0180590D01*
X0176900Y0179392D02*
X0173970Y0179392D01*
X0176900Y0178193D02*
X0161300Y0178193D01*
X0161300Y0176995D02*
X0176900Y0176995D01*
X0176900Y0175796D02*
X0161300Y0175796D01*
X0160209Y0174598D02*
X0176900Y0174598D01*
X0176900Y0173399D02*
X0159010Y0173399D01*
X0157812Y0172201D02*
X0176900Y0172201D01*
X0176900Y0171002D02*
X0156613Y0171002D01*
X0155415Y0169803D02*
X0176900Y0169803D01*
X0176900Y0168605D02*
X0154575Y0168605D01*
X0154575Y0167406D02*
X0176900Y0167406D01*
X0176900Y0166208D02*
X0154169Y0166208D01*
X0154575Y0165009D02*
X0176900Y0165009D01*
X0176900Y0163811D02*
X0154575Y0163811D01*
X0154575Y0162612D02*
X0175879Y0162612D01*
X0176900Y0163633D02*
X0168590Y0155323D01*
X0166276Y0155323D01*
X0165456Y0154503D01*
X0165456Y0151178D01*
X0166276Y0150357D01*
X0172160Y0150357D01*
X0172980Y0151178D01*
X0172980Y0153491D01*
X0181300Y0161811D01*
X0181300Y0202511D01*
X0180011Y0203800D01*
X0177511Y0206300D01*
X0174161Y0206300D01*
X0174161Y0208617D01*
X0173341Y0209437D01*
X0165882Y0209437D01*
X0165062Y0208617D01*
X0165062Y0199583D01*
X0165882Y0198763D01*
X0173341Y0198763D01*
X0174161Y0199583D01*
X0174161Y0201900D01*
X0175689Y0201900D01*
X0176900Y0200689D01*
X0176900Y0163633D01*
X0174681Y0161414D02*
X0154496Y0161414D01*
X0153800Y0160215D02*
X0173482Y0160215D01*
X0172284Y0159017D02*
X0153800Y0159017D01*
X0153800Y0157818D02*
X0171085Y0157818D01*
X0169887Y0156620D02*
X0153800Y0156620D01*
X0153800Y0155421D02*
X0168688Y0155421D01*
X0165456Y0154223D02*
X0162744Y0154223D01*
X0162744Y0153024D02*
X0165456Y0153024D01*
X0165456Y0151826D02*
X0162744Y0151826D01*
X0162881Y0150627D02*
X0166006Y0150627D01*
X0162944Y0149429D02*
X0244421Y0149429D01*
X0244421Y0150627D02*
X0172430Y0150627D01*
X0172980Y0151826D02*
X0244421Y0151826D01*
X0244421Y0153024D02*
X0172980Y0153024D01*
X0173712Y0154223D02*
X0244421Y0154223D01*
X0244421Y0155421D02*
X0174911Y0155421D01*
X0176109Y0156620D02*
X0244421Y0156620D01*
X0244421Y0157818D02*
X0177308Y0157818D01*
X0178506Y0159017D02*
X0244421Y0159017D01*
X0244421Y0160215D02*
X0179705Y0160215D01*
X0180903Y0161414D02*
X0244421Y0161414D01*
X0244421Y0162612D02*
X0181300Y0162612D01*
X0181300Y0163811D02*
X0244421Y0163811D01*
X0244421Y0165009D02*
X0181300Y0165009D01*
X0181300Y0166208D02*
X0244421Y0166208D01*
X0244421Y0167406D02*
X0181300Y0167406D01*
X0181300Y0168605D02*
X0244421Y0168605D01*
X0244421Y0169803D02*
X0181300Y0169803D01*
X0181300Y0171002D02*
X0244421Y0171002D01*
X0244421Y0172201D02*
X0181300Y0172201D01*
X0181300Y0173399D02*
X0244421Y0173399D01*
X0244421Y0174598D02*
X0181300Y0174598D01*
X0181300Y0175796D02*
X0244421Y0175796D01*
X0244421Y0176995D02*
X0181300Y0176995D01*
X0181300Y0178193D02*
X0244421Y0178193D01*
X0244421Y0179392D02*
X0181300Y0179392D01*
X0181300Y0180590D02*
X0244421Y0180590D01*
X0244421Y0181789D02*
X0181300Y0181789D01*
X0181300Y0182987D02*
X0244421Y0182987D01*
X0244421Y0184186D02*
X0181300Y0184186D01*
X0181300Y0185384D02*
X0244421Y0185384D01*
X0244421Y0186583D02*
X0181300Y0186583D01*
X0181300Y0187781D02*
X0244421Y0187781D01*
X0244421Y0188980D02*
X0181300Y0188980D01*
X0181300Y0190178D02*
X0244421Y0190178D01*
X0244421Y0191377D02*
X0181300Y0191377D01*
X0181300Y0192575D02*
X0244421Y0192575D01*
X0244421Y0193774D02*
X0181300Y0193774D01*
X0181300Y0194972D02*
X0244421Y0194972D01*
X0244421Y0196171D02*
X0181300Y0196171D01*
X0181300Y0197369D02*
X0244421Y0197369D01*
X0244421Y0198568D02*
X0181300Y0198568D01*
X0181300Y0199766D02*
X0244421Y0199766D01*
X0244421Y0200965D02*
X0181300Y0200965D01*
X0181300Y0202163D02*
X0244421Y0202163D01*
X0244421Y0203362D02*
X0180449Y0203362D01*
X0179251Y0204560D02*
X0244421Y0204560D01*
X0244421Y0205759D02*
X0178052Y0205759D01*
X0174161Y0206957D02*
X0244421Y0206957D01*
X0244421Y0208156D02*
X0174161Y0208156D01*
X0173424Y0209354D02*
X0244421Y0209354D01*
X0244421Y0210553D02*
X0104500Y0210553D01*
X0104500Y0211751D02*
X0244421Y0211751D01*
X0244421Y0212950D02*
X0104500Y0212950D01*
X0104500Y0214148D02*
X0244421Y0214148D01*
X0244421Y0215347D02*
X0104500Y0215347D01*
X0104500Y0216545D02*
X0244421Y0216545D01*
X0244421Y0217744D02*
X0104500Y0217744D01*
X0104500Y0218942D02*
X0244421Y0218942D01*
X0244421Y0222538D02*
X0125728Y0222538D01*
X0126391Y0223737D02*
X0142836Y0223737D01*
X0140818Y0224935D02*
X0126687Y0224935D01*
X0126725Y0226134D02*
X0139910Y0226134D01*
X0145364Y0223737D02*
X0157836Y0223737D01*
X0155818Y0224935D02*
X0147382Y0224935D01*
X0148290Y0226134D02*
X0154910Y0226134D01*
X0154414Y0227332D02*
X0148786Y0227332D01*
X0148800Y0228531D02*
X0154400Y0228531D01*
X0154400Y0229729D02*
X0148800Y0229729D01*
X0148800Y0230928D02*
X0154400Y0230928D01*
X0154400Y0232126D02*
X0148800Y0232126D01*
X0148800Y0233325D02*
X0154400Y0233325D01*
X0154400Y0234523D02*
X0148800Y0234523D01*
X0148800Y0235722D02*
X0154400Y0235722D01*
X0154850Y0236920D02*
X0148350Y0236920D01*
X0147528Y0238119D02*
X0155672Y0238119D01*
X0162528Y0238119D02*
X0170672Y0238119D01*
X0169850Y0236920D02*
X0163350Y0236920D01*
X0163800Y0235722D02*
X0169400Y0235722D01*
X0169400Y0234523D02*
X0163800Y0234523D01*
X0163800Y0233325D02*
X0169400Y0233325D01*
X0169400Y0232126D02*
X0163800Y0232126D01*
X0163800Y0230928D02*
X0169400Y0230928D01*
X0169400Y0229729D02*
X0163800Y0229729D01*
X0163800Y0228531D02*
X0169400Y0228531D01*
X0169414Y0227332D02*
X0163786Y0227332D01*
X0163290Y0226134D02*
X0169910Y0226134D01*
X0170818Y0224935D02*
X0162382Y0224935D01*
X0160364Y0223737D02*
X0172836Y0223737D01*
X0175364Y0223737D02*
X0244421Y0223737D01*
X0244421Y0224935D02*
X0177382Y0224935D01*
X0178290Y0226134D02*
X0244421Y0226134D01*
X0244421Y0227332D02*
X0178786Y0227332D01*
X0178800Y0228531D02*
X0244421Y0228531D01*
X0244421Y0229729D02*
X0178800Y0229729D01*
X0178800Y0230928D02*
X0244421Y0230928D01*
X0244421Y0232126D02*
X0178800Y0232126D01*
X0178800Y0233325D02*
X0244421Y0233325D01*
X0244421Y0234523D02*
X0237771Y0234523D01*
X0237248Y0234000D02*
X0241700Y0238452D01*
X0241700Y0244748D01*
X0237248Y0249200D01*
X0230952Y0249200D01*
X0226500Y0244748D01*
X0226500Y0238452D01*
X0230952Y0234000D01*
X0237248Y0234000D01*
X0238970Y0235722D02*
X0244421Y0235722D01*
X0244421Y0236920D02*
X0240168Y0236920D01*
X0241367Y0238119D02*
X0244421Y0238119D01*
X0244421Y0239317D02*
X0241700Y0239317D01*
X0241700Y0240516D02*
X0244421Y0240516D01*
X0244421Y0241714D02*
X0241700Y0241714D01*
X0241700Y0242913D02*
X0244421Y0242913D01*
X0244421Y0244111D02*
X0241700Y0244111D01*
X0241138Y0245310D02*
X0244421Y0245310D01*
X0244421Y0246508D02*
X0239940Y0246508D01*
X0238741Y0247707D02*
X0244421Y0247707D01*
X0244421Y0248905D02*
X0237543Y0248905D01*
X0244421Y0250104D02*
X0016200Y0250104D01*
X0016200Y0248905D02*
X0190657Y0248905D01*
X0189459Y0247707D02*
X0016200Y0247707D01*
X0016200Y0246508D02*
X0188260Y0246508D01*
X0186833Y0238119D02*
X0177528Y0238119D01*
X0178350Y0236920D02*
X0188032Y0236920D01*
X0189230Y0235722D02*
X0178800Y0235722D01*
X0178800Y0234523D02*
X0190429Y0234523D01*
X0197771Y0234523D02*
X0230429Y0234523D01*
X0229230Y0235722D02*
X0198970Y0235722D01*
X0200168Y0236920D02*
X0228032Y0236920D01*
X0226833Y0238119D02*
X0201367Y0238119D01*
X0201700Y0239317D02*
X0226500Y0239317D01*
X0226500Y0240516D02*
X0201700Y0240516D01*
X0201700Y0241714D02*
X0226500Y0241714D01*
X0226500Y0242913D02*
X0201700Y0242913D01*
X0201700Y0244111D02*
X0226500Y0244111D01*
X0227062Y0245310D02*
X0201138Y0245310D01*
X0199940Y0246508D02*
X0228260Y0246508D01*
X0229459Y0247707D02*
X0198741Y0247707D01*
X0197543Y0248905D02*
X0230657Y0248905D01*
X0176624Y0200965D02*
X0174161Y0200965D01*
X0174161Y0199766D02*
X0176900Y0199766D01*
X0176900Y0198568D02*
X0161966Y0198568D01*
X0161948Y0198563D02*
X0162355Y0198672D01*
X0162720Y0198883D01*
X0163018Y0199181D01*
X0163229Y0199545D01*
X0163338Y0199952D01*
X0163338Y0203500D01*
X0159188Y0203500D01*
X0159188Y0198563D01*
X0161948Y0198563D01*
X0163288Y0199766D02*
X0165062Y0199766D01*
X0165062Y0200965D02*
X0163338Y0200965D01*
X0163338Y0202163D02*
X0165062Y0202163D01*
X0165062Y0203362D02*
X0163338Y0203362D01*
X0163338Y0204700D02*
X0163338Y0208248D01*
X0163229Y0208655D01*
X0163018Y0209019D01*
X0162720Y0209317D01*
X0162355Y0209528D01*
X0161948Y0209637D01*
X0159188Y0209637D01*
X0159188Y0204700D01*
X0157988Y0204700D01*
X0157988Y0203500D01*
X0153839Y0203500D01*
X0153839Y0199952D01*
X0153948Y0199545D01*
X0154158Y0199181D01*
X0154456Y0198883D01*
X0154821Y0198672D01*
X0155228Y0198563D01*
X0157988Y0198563D01*
X0157988Y0203500D01*
X0159188Y0203500D01*
X0159188Y0204700D01*
X0163338Y0204700D01*
X0163338Y0205759D02*
X0165062Y0205759D01*
X0165062Y0206957D02*
X0163338Y0206957D01*
X0163338Y0208156D02*
X0165062Y0208156D01*
X0165800Y0209354D02*
X0162656Y0209354D01*
X0159188Y0209354D02*
X0157988Y0209354D01*
X0157988Y0209637D02*
X0155228Y0209637D01*
X0154821Y0209528D01*
X0154456Y0209317D01*
X0154158Y0209019D01*
X0153948Y0208655D01*
X0153839Y0208248D01*
X0153839Y0204700D01*
X0157988Y0204700D01*
X0157988Y0209637D01*
X0157988Y0208156D02*
X0159188Y0208156D01*
X0159188Y0206957D02*
X0157988Y0206957D01*
X0157988Y0205759D02*
X0159188Y0205759D01*
X0159188Y0204560D02*
X0165062Y0204560D01*
X0159188Y0203362D02*
X0157988Y0203362D01*
X0157988Y0204560D02*
X0104500Y0204560D01*
X0104500Y0203362D02*
X0153839Y0203362D01*
X0153839Y0202163D02*
X0104500Y0202163D01*
X0104500Y0200965D02*
X0153839Y0200965D01*
X0153888Y0199766D02*
X0104500Y0199766D01*
X0104500Y0198568D02*
X0155210Y0198568D01*
X0157988Y0198568D02*
X0159188Y0198568D01*
X0159188Y0199766D02*
X0157988Y0199766D01*
X0157988Y0200965D02*
X0159188Y0200965D01*
X0159188Y0202163D02*
X0157988Y0202163D01*
X0153839Y0205759D02*
X0104500Y0205759D01*
X0104500Y0206957D02*
X0153839Y0206957D01*
X0153839Y0208156D02*
X0104500Y0208156D01*
X0104500Y0209354D02*
X0154520Y0209354D01*
X0146964Y0192575D02*
X0104500Y0192575D01*
X0104500Y0191377D02*
X0145765Y0191377D01*
X0144567Y0190178D02*
X0104500Y0190178D01*
X0086077Y0187781D02*
X0067406Y0187781D01*
X0068003Y0186583D02*
X0085397Y0186583D01*
X0085397Y0185384D02*
X0068003Y0185384D01*
X0068003Y0184186D02*
X0085397Y0184186D01*
X0085397Y0182987D02*
X0068003Y0182987D01*
X0068003Y0181000D02*
X0058539Y0181000D01*
X0058539Y0175079D01*
X0066614Y0175079D01*
X0067021Y0175188D01*
X0067386Y0175398D01*
X0067683Y0175696D01*
X0067894Y0176061D01*
X0068003Y0176468D01*
X0068003Y0181000D01*
X0068003Y0180590D02*
X0085397Y0180590D01*
X0085397Y0179392D02*
X0068003Y0179392D01*
X0068003Y0178193D02*
X0085397Y0178193D01*
X0085397Y0176995D02*
X0068003Y0176995D01*
X0067741Y0175796D02*
X0085700Y0175796D01*
X0085397Y0181789D02*
X0058539Y0181789D01*
X0058539Y0182987D02*
X0057339Y0182987D01*
X0057339Y0181789D02*
X0035126Y0181789D01*
X0028808Y0174598D02*
X0016200Y0174598D01*
X0016200Y0173399D02*
X0030007Y0173399D01*
X0031205Y0172201D02*
X0016200Y0172201D01*
X0016200Y0171002D02*
X0032404Y0171002D01*
X0033602Y0169803D02*
X0016200Y0169803D01*
X0016200Y0168605D02*
X0034801Y0168605D01*
X0035999Y0167406D02*
X0016200Y0167406D01*
X0016200Y0166208D02*
X0037198Y0166208D01*
X0038396Y0165009D02*
X0016200Y0165009D01*
X0016200Y0163811D02*
X0039595Y0163811D01*
X0040793Y0162612D02*
X0016200Y0162612D01*
X0016200Y0161414D02*
X0041992Y0161414D01*
X0043190Y0160215D02*
X0016200Y0160215D01*
X0016200Y0159017D02*
X0044389Y0159017D01*
X0045587Y0157818D02*
X0016200Y0157818D01*
X0016200Y0156620D02*
X0046786Y0156620D01*
X0047985Y0155421D02*
X0016200Y0155421D01*
X0016200Y0154223D02*
X0049183Y0154223D01*
X0049700Y0153024D02*
X0016200Y0153024D01*
X0016200Y0151826D02*
X0049700Y0151826D01*
X0049700Y0150627D02*
X0036159Y0150627D01*
X0036038Y0150748D02*
X0036858Y0149928D01*
X0036858Y0139910D01*
X0036038Y0139090D01*
X0035297Y0139090D01*
X0048387Y0126000D01*
X0050476Y0126000D01*
X0050476Y0126078D01*
X0051296Y0126898D01*
X0053660Y0126898D01*
X0053817Y0126989D01*
X0054224Y0127098D01*
X0055320Y0127098D01*
X0055320Y0123529D01*
X0055321Y0123529D01*
X0055321Y0123529D01*
X0055394Y0123529D01*
X0057879Y0123529D01*
X0057879Y0123529D01*
X0055321Y0123529D01*
X0055321Y0119961D01*
X0056417Y0119961D01*
X0056600Y0120010D01*
X0056783Y0119961D01*
X0057879Y0119961D01*
X0057879Y0123529D01*
X0057880Y0123529D01*
X0057879Y0123529D01*
X0057879Y0127098D01*
X0056783Y0127098D01*
X0056600Y0127049D01*
X0056417Y0127098D01*
X0055321Y0127098D01*
X0055321Y0123529D01*
X0055320Y0123529D01*
X0055320Y0119961D01*
X0054224Y0119961D01*
X0053817Y0120070D01*
X0053660Y0120161D01*
X0051296Y0120161D01*
X0050476Y0120981D01*
X0050476Y0122200D01*
X0046813Y0122200D01*
X0029923Y0139090D01*
X0017162Y0139090D01*
X0016342Y0139910D01*
X0016342Y0149928D01*
X0017162Y0150748D01*
X0036038Y0150748D01*
X0036858Y0149429D02*
X0049700Y0149429D01*
X0049700Y0148230D02*
X0036858Y0148230D01*
X0036858Y0147032D02*
X0049700Y0147032D01*
X0049700Y0145833D02*
X0036858Y0145833D01*
X0036858Y0144635D02*
X0049700Y0144635D01*
X0049700Y0143436D02*
X0036858Y0143436D01*
X0036858Y0142238D02*
X0049700Y0142238D01*
X0049700Y0141039D02*
X0036858Y0141039D01*
X0036789Y0139841D02*
X0049700Y0139841D01*
X0050364Y0138642D02*
X0035745Y0138642D01*
X0036943Y0137444D02*
X0050476Y0137444D01*
X0058239Y0136245D02*
X0038142Y0136245D01*
X0039340Y0135047D02*
X0058239Y0135047D01*
X0058239Y0133848D02*
X0040539Y0133848D01*
X0041737Y0132650D02*
X0058239Y0132650D01*
X0058638Y0131451D02*
X0042936Y0131451D01*
X0044134Y0130253D02*
X0059836Y0130253D01*
X0061035Y0129054D02*
X0045333Y0129054D01*
X0046531Y0127856D02*
X0062233Y0127856D01*
X0062145Y0126657D02*
X0063432Y0126657D01*
X0062724Y0125459D02*
X0064400Y0125459D01*
X0064400Y0124260D02*
X0063017Y0124260D01*
X0062805Y0123062D02*
X0064400Y0123062D01*
X0064400Y0121863D02*
X0062724Y0121863D01*
X0062408Y0120665D02*
X0064400Y0120665D01*
X0064400Y0119466D02*
X0062100Y0119466D01*
X0062100Y0118268D02*
X0063631Y0118268D01*
X0063219Y0117069D02*
X0062100Y0117069D01*
X0063242Y0115870D02*
X0060957Y0115870D01*
X0059759Y0114672D02*
X0063746Y0114672D01*
X0065313Y0113473D02*
X0058560Y0113473D01*
X0056782Y0117069D02*
X0036858Y0117069D01*
X0036858Y0118268D02*
X0057981Y0118268D01*
X0058300Y0119466D02*
X0036858Y0119466D01*
X0036858Y0120665D02*
X0050792Y0120665D01*
X0050476Y0121863D02*
X0036858Y0121863D01*
X0036858Y0123062D02*
X0045951Y0123062D01*
X0044753Y0124260D02*
X0016200Y0124260D01*
X0016200Y0123062D02*
X0016342Y0123062D01*
X0016342Y0121863D02*
X0016200Y0121863D01*
X0016200Y0120665D02*
X0016342Y0120665D01*
X0016342Y0119466D02*
X0016200Y0119466D01*
X0016200Y0118268D02*
X0016342Y0118268D01*
X0016342Y0117069D02*
X0016200Y0117069D01*
X0016200Y0115870D02*
X0016342Y0115870D01*
X0016342Y0114672D02*
X0016200Y0114672D01*
X0016200Y0113473D02*
X0016342Y0113473D01*
X0016200Y0112275D02*
X0023182Y0112275D01*
X0023100Y0111076D02*
X0016200Y0111076D01*
X0016200Y0109878D02*
X0023100Y0109878D01*
X0023100Y0108679D02*
X0016200Y0108679D01*
X0016200Y0107481D02*
X0023100Y0107481D01*
X0023100Y0106282D02*
X0016200Y0106282D01*
X0016200Y0105084D02*
X0023100Y0105084D01*
X0023100Y0103885D02*
X0016200Y0103885D01*
X0016200Y0102687D02*
X0023100Y0102687D01*
X0023100Y0101488D02*
X0016200Y0101488D01*
X0016200Y0100290D02*
X0023100Y0100290D01*
X0023100Y0099091D02*
X0016200Y0099091D01*
X0016200Y0097893D02*
X0023100Y0097893D01*
X0023100Y0096694D02*
X0016200Y0096694D01*
X0016200Y0095496D02*
X0023100Y0095496D01*
X0023100Y0094297D02*
X0016200Y0094297D01*
X0016200Y0093099D02*
X0023100Y0093099D01*
X0023100Y0091900D02*
X0016200Y0091900D01*
X0016200Y0090702D02*
X0023100Y0090702D01*
X0023100Y0089503D02*
X0016200Y0089503D01*
X0016200Y0088305D02*
X0023100Y0088305D01*
X0028900Y0088305D02*
X0043450Y0088305D01*
X0043450Y0089503D02*
X0028900Y0089503D01*
X0028900Y0090702D02*
X0043418Y0090702D01*
X0043576Y0091900D02*
X0028900Y0091900D01*
X0028900Y0093099D02*
X0044398Y0093099D01*
X0045821Y0094297D02*
X0028900Y0094297D01*
X0028900Y0095496D02*
X0047243Y0095496D01*
X0048665Y0096694D02*
X0028900Y0096694D01*
X0028900Y0097893D02*
X0050086Y0097893D01*
X0051508Y0099091D02*
X0028900Y0099091D01*
X0028900Y0100290D02*
X0052930Y0100290D01*
X0054352Y0101488D02*
X0028900Y0101488D01*
X0028900Y0102687D02*
X0055773Y0102687D01*
X0057195Y0103885D02*
X0028900Y0103885D01*
X0028900Y0105084D02*
X0058617Y0105084D01*
X0060038Y0106282D02*
X0028900Y0106282D01*
X0028900Y0107481D02*
X0061460Y0107481D01*
X0062882Y0108679D02*
X0028900Y0108679D01*
X0028900Y0109878D02*
X0064303Y0109878D01*
X0065725Y0111076D02*
X0029678Y0111076D01*
X0030876Y0112275D02*
X0067147Y0112275D01*
X0067887Y0113473D02*
X0068568Y0113473D01*
X0069454Y0114672D02*
X0069990Y0114672D01*
X0069957Y0115870D02*
X0071342Y0115870D01*
X0071342Y0117069D02*
X0069981Y0117069D01*
X0069569Y0118268D02*
X0071342Y0118268D01*
X0071342Y0119466D02*
X0068800Y0119466D01*
X0068800Y0120665D02*
X0071342Y0120665D01*
X0071342Y0121863D02*
X0068800Y0121863D01*
X0068800Y0123062D02*
X0071342Y0123062D01*
X0076145Y0112275D02*
X0084638Y0112275D01*
X0085837Y0111076D02*
X0074724Y0111076D01*
X0073302Y0109878D02*
X0087035Y0109878D01*
X0088234Y0108679D02*
X0071880Y0108679D01*
X0070459Y0107481D02*
X0089432Y0107481D01*
X0090631Y0106282D02*
X0069037Y0106282D01*
X0067615Y0105084D02*
X0091829Y0105084D01*
X0093028Y0103885D02*
X0066193Y0103885D01*
X0064772Y0102687D02*
X0094226Y0102687D01*
X0095425Y0101488D02*
X0063350Y0101488D01*
X0061928Y0100290D02*
X0096623Y0100290D01*
X0097822Y0099091D02*
X0060507Y0099091D01*
X0059085Y0097893D02*
X0099020Y0097893D01*
X0100219Y0096694D02*
X0057663Y0096694D01*
X0056242Y0095496D02*
X0101417Y0095496D01*
X0102616Y0094297D02*
X0054820Y0094297D01*
X0053398Y0093099D02*
X0103814Y0093099D01*
X0105013Y0091900D02*
X0051977Y0091900D01*
X0050555Y0090702D02*
X0106211Y0090702D01*
X0107410Y0089503D02*
X0049250Y0089503D01*
X0049250Y0088305D02*
X0108608Y0088305D01*
X0108079Y0087106D02*
X0095226Y0087106D01*
X0095217Y0087139D02*
X0095006Y0087504D01*
X0094708Y0087802D01*
X0094344Y0088012D01*
X0093937Y0088121D01*
X0085861Y0088121D01*
X0085861Y0082200D01*
X0084661Y0082200D01*
X0084661Y0081000D01*
X0075197Y0081000D01*
X0075197Y0076468D01*
X0075306Y0076061D01*
X0075517Y0075696D01*
X0075814Y0075398D01*
X0076179Y0075188D01*
X0076586Y0075079D01*
X0084661Y0075079D01*
X0084661Y0081000D01*
X0085861Y0081000D01*
X0085861Y0075079D01*
X0093937Y0075079D01*
X0094344Y0075188D01*
X0094708Y0075398D01*
X0095006Y0075696D01*
X0095217Y0076061D01*
X0095326Y0076468D01*
X0095326Y0081000D01*
X0085861Y0081000D01*
X0085861Y0082200D01*
X0095326Y0082200D01*
X0095326Y0086732D01*
X0095217Y0087139D01*
X0095326Y0085908D02*
X0108074Y0085908D01*
X0108074Y0084709D02*
X0095326Y0084709D01*
X0095326Y0083511D02*
X0108074Y0083511D01*
X0108074Y0082312D02*
X0095326Y0082312D01*
X0095326Y0079915D02*
X0108074Y0079915D01*
X0108074Y0078717D02*
X0095326Y0078717D01*
X0095326Y0077518D02*
X0108074Y0077518D01*
X0108074Y0076320D02*
X0095286Y0076320D01*
X0094095Y0075121D02*
X0159400Y0075121D01*
X0159400Y0073923D02*
X0049250Y0073923D01*
X0049250Y0072724D02*
X0159400Y0072724D01*
X0159400Y0071526D02*
X0049250Y0071526D01*
X0049250Y0070327D02*
X0159400Y0070327D01*
X0159400Y0069129D02*
X0049250Y0069129D01*
X0049250Y0067930D02*
X0159400Y0067930D01*
X0159400Y0066732D02*
X0049250Y0066732D01*
X0049250Y0065533D02*
X0159556Y0065533D01*
X0160754Y0064334D02*
X0049250Y0064334D01*
X0049250Y0063136D02*
X0161900Y0063136D01*
X0161900Y0061937D02*
X0049250Y0061937D01*
X0049250Y0060739D02*
X0132095Y0060739D01*
X0132725Y0061000D02*
X0131108Y0060330D01*
X0129870Y0059092D01*
X0129200Y0057475D01*
X0129200Y0055725D01*
X0129870Y0054108D01*
X0131108Y0052870D01*
X0132725Y0052200D01*
X0140475Y0052200D01*
X0142092Y0052870D01*
X0143330Y0054108D01*
X0144000Y0055725D01*
X0144000Y0057475D01*
X0143330Y0059092D01*
X0142092Y0060330D01*
X0140475Y0061000D01*
X0132725Y0061000D01*
X0130318Y0059540D02*
X0049765Y0059540D01*
X0050556Y0058342D02*
X0129559Y0058342D01*
X0129200Y0057143D02*
X0054313Y0057143D01*
X0055207Y0055945D02*
X0129200Y0055945D01*
X0129605Y0054746D02*
X0055600Y0054746D01*
X0055600Y0053548D02*
X0130430Y0053548D01*
X0132364Y0052349D02*
X0055600Y0052349D01*
X0055600Y0051151D02*
X0157102Y0051151D01*
X0156438Y0052349D02*
X0140836Y0052349D01*
X0140475Y0051000D02*
X0142092Y0050330D01*
X0143330Y0049092D01*
X0144000Y0047475D01*
X0144000Y0045725D01*
X0143330Y0044108D01*
X0142092Y0042870D01*
X0140475Y0042200D01*
X0132725Y0042200D01*
X0131108Y0042870D01*
X0129870Y0044108D01*
X0129200Y0045725D01*
X0129200Y0047475D01*
X0129870Y0049092D01*
X0131108Y0050330D01*
X0132725Y0051000D01*
X0140475Y0051000D01*
X0142470Y0049952D02*
X0158532Y0049952D01*
X0156100Y0053548D02*
X0142770Y0053548D01*
X0143595Y0054746D02*
X0156100Y0054746D01*
X0156477Y0055945D02*
X0144000Y0055945D01*
X0144000Y0057143D02*
X0157197Y0057143D01*
X0158759Y0058342D02*
X0143641Y0058342D01*
X0142882Y0059540D02*
X0161900Y0059540D01*
X0161900Y0060739D02*
X0141105Y0060739D01*
X0130730Y0049952D02*
X0055600Y0049952D01*
X0055600Y0048754D02*
X0129730Y0048754D01*
X0129233Y0047555D02*
X0055331Y0047555D01*
X0054614Y0046357D02*
X0129200Y0046357D01*
X0129435Y0045158D02*
X0052778Y0045158D01*
X0050422Y0045158D02*
X0042778Y0045158D01*
X0044614Y0046357D02*
X0048586Y0046357D01*
X0047869Y0047555D02*
X0045331Y0047555D01*
X0045600Y0048754D02*
X0047600Y0048754D01*
X0047600Y0049952D02*
X0045600Y0049952D01*
X0045600Y0051151D02*
X0047600Y0051151D01*
X0047561Y0052349D02*
X0045600Y0052349D01*
X0045600Y0053548D02*
X0046770Y0053548D01*
X0045979Y0054746D02*
X0045600Y0054746D01*
X0038400Y0057143D02*
X0016200Y0057143D01*
X0016200Y0055945D02*
X0037993Y0055945D01*
X0037600Y0054746D02*
X0016200Y0054746D01*
X0016200Y0053548D02*
X0037600Y0053548D01*
X0037600Y0052349D02*
X0016200Y0052349D01*
X0016200Y0051151D02*
X0037600Y0051151D01*
X0037600Y0049952D02*
X0016200Y0049952D01*
X0016200Y0048754D02*
X0037600Y0048754D01*
X0037869Y0047555D02*
X0016200Y0047555D01*
X0016200Y0046357D02*
X0038586Y0046357D01*
X0040422Y0045158D02*
X0016200Y0045158D01*
X0016200Y0043960D02*
X0130018Y0043960D01*
X0131370Y0042761D02*
X0016200Y0042761D01*
X0016200Y0041563D02*
X0156733Y0041563D01*
X0156816Y0041762D02*
X0156100Y0040035D01*
X0156100Y0038165D01*
X0156816Y0036438D01*
X0158138Y0035116D01*
X0159865Y0034400D01*
X0168335Y0034400D01*
X0170062Y0035116D01*
X0171384Y0036438D01*
X0172100Y0038165D01*
X0172100Y0040035D01*
X0171384Y0041762D01*
X0170062Y0043084D01*
X0168335Y0043800D01*
X0159865Y0043800D01*
X0158138Y0043084D01*
X0156816Y0041762D01*
X0157814Y0042761D02*
X0141830Y0042761D01*
X0143182Y0043960D02*
X0206300Y0043960D01*
X0206300Y0044831D02*
X0206300Y0042200D01*
X0213500Y0042200D01*
X0213500Y0049400D01*
X0210869Y0049400D01*
X0206300Y0044831D01*
X0206627Y0045158D02*
X0143765Y0045158D01*
X0144000Y0046357D02*
X0207826Y0046357D01*
X0209024Y0047555D02*
X0143967Y0047555D01*
X0143470Y0048754D02*
X0210223Y0048754D01*
X0213500Y0048754D02*
X0214700Y0048754D01*
X0214700Y0049400D02*
X0214700Y0042200D01*
X0213500Y0042200D01*
X0213500Y0041000D01*
X0206300Y0041000D01*
X0206300Y0038369D01*
X0210869Y0033800D01*
X0213500Y0033800D01*
X0213500Y0041000D01*
X0214700Y0041000D01*
X0214700Y0042200D01*
X0221900Y0042200D01*
X0221900Y0044831D01*
X0217331Y0049400D01*
X0214700Y0049400D01*
X0214700Y0047555D02*
X0213500Y0047555D01*
X0213500Y0046357D02*
X0214700Y0046357D01*
X0214700Y0045158D02*
X0213500Y0045158D01*
X0213500Y0043960D02*
X0214700Y0043960D01*
X0214700Y0042761D02*
X0213500Y0042761D01*
X0213500Y0041563D02*
X0171467Y0041563D01*
X0171964Y0040364D02*
X0206300Y0040364D01*
X0206300Y0039166D02*
X0172100Y0039166D01*
X0172018Y0037967D02*
X0206702Y0037967D01*
X0207900Y0036769D02*
X0171522Y0036769D01*
X0170517Y0035570D02*
X0209099Y0035570D01*
X0210297Y0034372D02*
X0143627Y0034372D01*
X0143534Y0034189D02*
X0143863Y0034834D01*
X0144087Y0035523D01*
X0144194Y0036200D01*
X0137000Y0036200D01*
X0137000Y0037000D01*
X0136200Y0037000D01*
X0136200Y0041200D01*
X0133238Y0041200D01*
X0132523Y0041087D01*
X0131834Y0040863D01*
X0131189Y0040534D01*
X0130603Y0040109D01*
X0130091Y0039597D01*
X0129666Y0039011D01*
X0129337Y0038366D01*
X0129113Y0037677D01*
X0129006Y0037000D01*
X0136200Y0037000D01*
X0136200Y0036200D01*
X0137000Y0036200D01*
X0137000Y0032000D01*
X0139962Y0032000D01*
X0140677Y0032113D01*
X0141366Y0032337D01*
X0142011Y0032666D01*
X0142597Y0033091D01*
X0143109Y0033603D01*
X0143534Y0034189D01*
X0142679Y0033173D02*
X0244421Y0033173D01*
X0244421Y0031975D02*
X0116725Y0031975D01*
X0116725Y0033028D02*
X0116599Y0033825D01*
X0116350Y0034592D01*
X0115983Y0035311D01*
X0115509Y0035964D01*
X0114939Y0036534D01*
X0114286Y0037008D01*
X0113567Y0037375D01*
X0112800Y0037624D01*
X0112175Y0037723D01*
X0112175Y0029675D01*
X0116725Y0029675D01*
X0116725Y0033028D01*
X0116702Y0033173D02*
X0130521Y0033173D01*
X0130603Y0033091D02*
X0131189Y0032666D01*
X0131834Y0032337D01*
X0132523Y0032113D01*
X0133238Y0032000D01*
X0136200Y0032000D01*
X0136200Y0036200D01*
X0129006Y0036200D01*
X0129113Y0035523D01*
X0129337Y0034834D01*
X0129666Y0034189D01*
X0130091Y0033603D01*
X0130603Y0033091D01*
X0129573Y0034372D02*
X0116421Y0034372D01*
X0115795Y0035570D02*
X0129106Y0035570D01*
X0129208Y0037967D02*
X0016200Y0037967D01*
X0016200Y0036769D02*
X0088779Y0036769D01*
X0088810Y0036800D02*
X0087425Y0035415D01*
X0086675Y0033605D01*
X0086675Y0024595D01*
X0087425Y0022785D01*
X0088810Y0021400D01*
X0090620Y0020650D01*
X0092580Y0020650D01*
X0094390Y0021400D01*
X0095775Y0022785D01*
X0096525Y0024595D01*
X0096525Y0033605D01*
X0095775Y0035415D01*
X0094390Y0036800D01*
X0092580Y0037550D01*
X0090620Y0037550D01*
X0088810Y0036800D01*
X0087580Y0035570D02*
X0016200Y0035570D01*
X0016200Y0034372D02*
X0086993Y0034372D01*
X0086675Y0033173D02*
X0016200Y0033173D01*
X0016200Y0031975D02*
X0086675Y0031975D01*
X0086675Y0030776D02*
X0016200Y0030776D01*
X0016200Y0029578D02*
X0086675Y0029578D01*
X0086675Y0028379D02*
X0016200Y0028379D01*
X0016200Y0027181D02*
X0016300Y0027181D01*
X0021900Y0027181D02*
X0038924Y0027181D01*
X0039334Y0027591D02*
X0038209Y0026466D01*
X0037600Y0024996D01*
X0037600Y0018204D01*
X0038209Y0016734D01*
X0039334Y0015609D01*
X0040804Y0015000D01*
X0042396Y0015000D01*
X0043866Y0015609D01*
X0044991Y0016734D01*
X0045600Y0018204D01*
X0045600Y0018600D01*
X0047600Y0018600D01*
X0047600Y0018204D01*
X0048209Y0016734D01*
X0049334Y0015609D01*
X0050804Y0015000D01*
X0052396Y0015000D01*
X0053866Y0015609D01*
X0054991Y0016734D01*
X0055600Y0018204D01*
X0055600Y0024996D01*
X0054991Y0026466D01*
X0053866Y0027591D01*
X0052396Y0028200D01*
X0050804Y0028200D01*
X0049334Y0027591D01*
X0048209Y0026466D01*
X0047600Y0024996D01*
X0047600Y0024400D01*
X0045600Y0024400D01*
X0045600Y0024996D01*
X0044991Y0026466D01*
X0043866Y0027591D01*
X0042396Y0028200D01*
X0040804Y0028200D01*
X0039334Y0027591D01*
X0038009Y0025982D02*
X0024291Y0025982D01*
X0025490Y0024784D02*
X0037600Y0024784D01*
X0037600Y0023585D02*
X0026483Y0023585D01*
X0026979Y0022387D02*
X0037600Y0022387D01*
X0037600Y0021188D02*
X0027475Y0021188D01*
X0027637Y0019990D02*
X0037600Y0019990D01*
X0037600Y0018791D02*
X0027637Y0018791D01*
X0027637Y0017593D02*
X0037853Y0017593D01*
X0038549Y0016394D02*
X0027220Y0016394D01*
X0026723Y0015196D02*
X0040332Y0015196D01*
X0042868Y0015196D02*
X0050332Y0015196D01*
X0048549Y0016394D02*
X0044651Y0016394D01*
X0045347Y0017593D02*
X0047853Y0017593D01*
X0052868Y0015196D02*
X0201114Y0015196D01*
X0201828Y0014900D02*
X0200284Y0015539D01*
X0199102Y0016721D01*
X0198463Y0018265D01*
X0198463Y0019935D01*
X0199102Y0021479D01*
X0200284Y0022661D01*
X0201828Y0023300D01*
X0203498Y0023300D01*
X0205042Y0022661D01*
X0206224Y0021479D01*
X0206487Y0020843D01*
X0206774Y0021406D01*
X0207181Y0021966D01*
X0207671Y0022456D01*
X0208231Y0022863D01*
X0208848Y0023178D01*
X0209507Y0023392D01*
X0210191Y0023500D01*
X0210350Y0023500D01*
X0210350Y0019287D01*
X0210724Y0019287D01*
X0214937Y0019287D01*
X0214937Y0019446D01*
X0214829Y0020130D01*
X0214615Y0020789D01*
X0214300Y0021406D01*
X0213893Y0021966D01*
X0213403Y0022456D01*
X0212843Y0022863D01*
X0212226Y0023178D01*
X0211567Y0023392D01*
X0210883Y0023500D01*
X0210724Y0023500D01*
X0210724Y0019287D01*
X0210724Y0018913D01*
X0210724Y0014700D01*
X0210883Y0014700D01*
X0211567Y0014808D01*
X0212226Y0015022D01*
X0212843Y0015337D01*
X0213403Y0015744D01*
X0213893Y0016234D01*
X0214300Y0016794D01*
X0214615Y0017411D01*
X0214829Y0018070D01*
X0214937Y0018754D01*
X0214937Y0018913D01*
X0210724Y0018913D01*
X0210350Y0018913D01*
X0210350Y0014700D01*
X0210191Y0014700D01*
X0209507Y0014808D01*
X0208848Y0015022D01*
X0208231Y0015337D01*
X0207671Y0015744D01*
X0207181Y0016234D01*
X0206774Y0016794D01*
X0206487Y0017357D01*
X0206224Y0016721D01*
X0205042Y0015539D01*
X0203498Y0014900D01*
X0201828Y0014900D01*
X0204212Y0015196D02*
X0208508Y0015196D01*
X0210350Y0015196D02*
X0210724Y0015196D01*
X0210724Y0016394D02*
X0210350Y0016394D01*
X0210350Y0017593D02*
X0210724Y0017593D01*
X0210724Y0018791D02*
X0210350Y0018791D01*
X0210350Y0019990D02*
X0210724Y0019990D01*
X0210724Y0021188D02*
X0210350Y0021188D01*
X0210350Y0022387D02*
X0210724Y0022387D01*
X0213473Y0022387D02*
X0233721Y0022387D01*
X0234217Y0023585D02*
X0172100Y0023585D01*
X0172100Y0023165D02*
X0172100Y0025035D01*
X0171384Y0026762D01*
X0170062Y0028084D01*
X0168335Y0028800D01*
X0159865Y0028800D01*
X0158138Y0028084D01*
X0156816Y0026762D01*
X0156100Y0025035D01*
X0156100Y0023165D01*
X0156816Y0021438D01*
X0158138Y0020116D01*
X0159865Y0019400D01*
X0168335Y0019400D01*
X0170062Y0020116D01*
X0171384Y0021438D01*
X0172100Y0023165D01*
X0171778Y0022387D02*
X0200010Y0022387D01*
X0198982Y0021188D02*
X0171135Y0021188D01*
X0169758Y0019990D02*
X0198485Y0019990D01*
X0198463Y0018791D02*
X0055600Y0018791D01*
X0055600Y0019990D02*
X0158442Y0019990D01*
X0157065Y0021188D02*
X0114279Y0021188D01*
X0114286Y0021192D02*
X0114939Y0021666D01*
X0115509Y0022236D01*
X0115983Y0022889D01*
X0116350Y0023608D01*
X0116599Y0024375D01*
X0116725Y0025172D01*
X0116725Y0028525D01*
X0112175Y0028525D01*
X0112175Y0029675D01*
X0111025Y0029675D01*
X0111025Y0037723D01*
X0110400Y0037624D01*
X0109633Y0037375D01*
X0108914Y0037008D01*
X0108261Y0036534D01*
X0107691Y0035964D01*
X0107217Y0035311D01*
X0106850Y0034592D01*
X0106601Y0033825D01*
X0106475Y0033028D01*
X0106475Y0029675D01*
X0111025Y0029675D01*
X0111025Y0028525D01*
X0112175Y0028525D01*
X0112175Y0020477D01*
X0112800Y0020576D01*
X0113567Y0020825D01*
X0114286Y0021192D01*
X0115618Y0022387D02*
X0156422Y0022387D01*
X0156100Y0023585D02*
X0116338Y0023585D01*
X0116664Y0024784D02*
X0156100Y0024784D01*
X0156492Y0025982D02*
X0116725Y0025982D01*
X0116725Y0027181D02*
X0157234Y0027181D01*
X0158849Y0028379D02*
X0116725Y0028379D01*
X0116725Y0030776D02*
X0244421Y0030776D01*
X0244421Y0029578D02*
X0112175Y0029578D01*
X0111025Y0029578D02*
X0096525Y0029578D01*
X0096525Y0030776D02*
X0106475Y0030776D01*
X0106475Y0031975D02*
X0096525Y0031975D01*
X0096525Y0033173D02*
X0106498Y0033173D01*
X0106779Y0034372D02*
X0096207Y0034372D01*
X0095620Y0035570D02*
X0107405Y0035570D01*
X0108584Y0036769D02*
X0094421Y0036769D01*
X0096525Y0028379D02*
X0106475Y0028379D01*
X0106475Y0028525D02*
X0106475Y0025172D01*
X0106601Y0024375D01*
X0106850Y0023608D01*
X0107217Y0022889D01*
X0107691Y0022236D01*
X0108261Y0021666D01*
X0108914Y0021192D01*
X0109633Y0020825D01*
X0110400Y0020576D01*
X0111025Y0020477D01*
X0111025Y0028525D01*
X0106475Y0028525D01*
X0106475Y0027181D02*
X0096525Y0027181D01*
X0096525Y0025982D02*
X0106475Y0025982D01*
X0106536Y0024784D02*
X0096525Y0024784D01*
X0096107Y0023585D02*
X0106862Y0023585D01*
X0107582Y0022387D02*
X0095377Y0022387D01*
X0093879Y0021188D02*
X0108921Y0021188D01*
X0111025Y0021188D02*
X0112175Y0021188D01*
X0112175Y0022387D02*
X0111025Y0022387D01*
X0111025Y0023585D02*
X0112175Y0023585D01*
X0112175Y0024784D02*
X0111025Y0024784D01*
X0111025Y0025982D02*
X0112175Y0025982D01*
X0112175Y0027181D02*
X0111025Y0027181D01*
X0111025Y0028379D02*
X0112175Y0028379D01*
X0112175Y0030776D02*
X0111025Y0030776D01*
X0111025Y0031975D02*
X0112175Y0031975D01*
X0112175Y0033173D02*
X0111025Y0033173D01*
X0111025Y0034372D02*
X0112175Y0034372D01*
X0112175Y0035570D02*
X0111025Y0035570D01*
X0111025Y0036769D02*
X0112175Y0036769D01*
X0114616Y0036769D02*
X0136200Y0036769D01*
X0137000Y0036769D02*
X0156678Y0036769D01*
X0156182Y0037967D02*
X0143992Y0037967D01*
X0144087Y0037677D02*
X0143863Y0038366D01*
X0143534Y0039011D01*
X0143109Y0039597D01*
X0142597Y0040109D01*
X0142011Y0040534D01*
X0141366Y0040863D01*
X0140677Y0041087D01*
X0139962Y0041200D01*
X0137000Y0041200D01*
X0137000Y0037000D01*
X0144194Y0037000D01*
X0144087Y0037677D01*
X0143422Y0039166D02*
X0156100Y0039166D01*
X0156236Y0040364D02*
X0142245Y0040364D01*
X0144094Y0035570D02*
X0157683Y0035570D01*
X0169351Y0028379D02*
X0244421Y0028379D01*
X0244400Y0027181D02*
X0244421Y0027181D01*
X0238800Y0027181D02*
X0170966Y0027181D01*
X0171708Y0025982D02*
X0236409Y0025982D01*
X0235210Y0024784D02*
X0172100Y0024784D01*
X0170385Y0042761D02*
X0206300Y0042761D01*
X0213500Y0040364D02*
X0214700Y0040364D01*
X0214700Y0041000D02*
X0214700Y0033800D01*
X0217331Y0033800D01*
X0221900Y0038369D01*
X0221900Y0041000D01*
X0214700Y0041000D01*
X0214700Y0041563D02*
X0244421Y0041563D01*
X0244421Y0042761D02*
X0221900Y0042761D01*
X0221900Y0043960D02*
X0244421Y0043960D01*
X0244421Y0045158D02*
X0221573Y0045158D01*
X0220374Y0046357D02*
X0244421Y0046357D01*
X0244421Y0047555D02*
X0219176Y0047555D01*
X0217977Y0048754D02*
X0244421Y0048754D01*
X0244421Y0049952D02*
X0169668Y0049952D01*
X0171098Y0051151D02*
X0244421Y0051151D01*
X0244421Y0052349D02*
X0171762Y0052349D01*
X0172100Y0053548D02*
X0244421Y0053548D01*
X0244421Y0054746D02*
X0172100Y0054746D01*
X0171723Y0055945D02*
X0244421Y0055945D01*
X0244421Y0057143D02*
X0171003Y0057143D01*
X0169441Y0058342D02*
X0244421Y0058342D01*
X0244421Y0059540D02*
X0166300Y0059540D01*
X0166300Y0060739D02*
X0244421Y0060739D01*
X0244421Y0061937D02*
X0166300Y0061937D01*
X0166300Y0063136D02*
X0244421Y0063136D01*
X0244421Y0064334D02*
X0166300Y0064334D01*
X0165778Y0065533D02*
X0244421Y0065533D01*
X0244421Y0066732D02*
X0164580Y0066732D01*
X0163800Y0067930D02*
X0244421Y0067930D01*
X0244421Y0069129D02*
X0163800Y0069129D01*
X0163800Y0070327D02*
X0244421Y0070327D01*
X0244421Y0071526D02*
X0163800Y0071526D01*
X0163800Y0072724D02*
X0244421Y0072724D01*
X0244421Y0073923D02*
X0163800Y0073923D01*
X0163800Y0075121D02*
X0244421Y0075121D01*
X0244421Y0076320D02*
X0163800Y0076320D01*
X0163800Y0077518D02*
X0244421Y0077518D01*
X0244421Y0078717D02*
X0163800Y0078717D01*
X0165638Y0079915D02*
X0167562Y0079915D01*
X0167562Y0079583D02*
X0168382Y0078763D01*
X0175841Y0078763D01*
X0176661Y0079583D01*
X0176661Y0088617D01*
X0175841Y0089437D01*
X0174312Y0089437D01*
X0174312Y0089499D01*
X0166300Y0097511D01*
X0166300Y0100718D01*
X0167075Y0101493D01*
X0167075Y0105802D01*
X0166354Y0106523D01*
X0166657Y0106698D01*
X0166955Y0106996D01*
X0167166Y0107360D01*
X0167275Y0107767D01*
X0167275Y0109365D01*
X0164287Y0109365D01*
X0164287Y0109740D01*
X0163913Y0109740D01*
X0163913Y0112728D01*
X0162315Y0112728D01*
X0161908Y0112619D01*
X0161543Y0112408D01*
X0161245Y0112110D01*
X0161034Y0111745D01*
X0160925Y0111338D01*
X0160925Y0109740D01*
X0163913Y0109740D01*
X0163913Y0109365D01*
X0160925Y0109365D01*
X0160925Y0107767D01*
X0161034Y0107360D01*
X0161245Y0106996D01*
X0161543Y0106698D01*
X0161846Y0106523D01*
X0161125Y0105802D01*
X0161125Y0101493D01*
X0161900Y0100718D01*
X0161900Y0095689D01*
X0163189Y0094400D01*
X0168267Y0089322D01*
X0167562Y0088617D01*
X0167562Y0079583D01*
X0167562Y0081114D02*
X0165638Y0081114D01*
X0165638Y0082312D02*
X0167562Y0082312D01*
X0167562Y0083511D02*
X0165638Y0083511D01*
X0165638Y0084709D02*
X0167562Y0084709D01*
X0167562Y0085908D02*
X0165638Y0085908D01*
X0165638Y0087106D02*
X0167562Y0087106D01*
X0167562Y0088305D02*
X0165638Y0088305D01*
X0166887Y0090702D02*
X0158800Y0090702D01*
X0158800Y0091900D02*
X0165688Y0091900D01*
X0164490Y0093099D02*
X0158800Y0093099D01*
X0158800Y0094297D02*
X0163291Y0094297D01*
X0162093Y0095496D02*
X0158800Y0095496D01*
X0158800Y0096694D02*
X0161900Y0096694D01*
X0161900Y0097893D02*
X0158800Y0097893D01*
X0158800Y0099091D02*
X0161900Y0099091D01*
X0161900Y0100290D02*
X0158800Y0100290D01*
X0158800Y0101488D02*
X0161129Y0101488D01*
X0161125Y0102687D02*
X0158800Y0102687D01*
X0158800Y0103885D02*
X0161125Y0103885D01*
X0161125Y0105084D02*
X0158800Y0105084D01*
X0158800Y0106282D02*
X0161606Y0106282D01*
X0161002Y0107481D02*
X0158800Y0107481D01*
X0158800Y0108679D02*
X0160925Y0108679D01*
X0160925Y0109878D02*
X0158800Y0109878D01*
X0158800Y0111076D02*
X0160925Y0111076D01*
X0161410Y0112275D02*
X0158800Y0112275D01*
X0158800Y0113473D02*
X0244421Y0113473D01*
X0244421Y0112275D02*
X0166790Y0112275D01*
X0166657Y0112408D02*
X0166292Y0112619D01*
X0165885Y0112728D01*
X0164287Y0112728D01*
X0164287Y0109740D01*
X0167275Y0109740D01*
X0167275Y0111338D01*
X0167166Y0111745D01*
X0166955Y0112110D01*
X0166657Y0112408D01*
X0167275Y0111076D02*
X0244421Y0111076D01*
X0244421Y0109878D02*
X0167275Y0109878D01*
X0167275Y0108679D02*
X0244421Y0108679D01*
X0244421Y0107481D02*
X0167198Y0107481D01*
X0166594Y0106282D02*
X0244421Y0106282D01*
X0244421Y0105084D02*
X0167075Y0105084D01*
X0167075Y0103885D02*
X0244421Y0103885D01*
X0244421Y0102687D02*
X0167075Y0102687D01*
X0167071Y0101488D02*
X0244421Y0101488D01*
X0244421Y0100290D02*
X0166300Y0100290D01*
X0166300Y0099091D02*
X0244421Y0099091D01*
X0244421Y0097893D02*
X0166300Y0097893D01*
X0167117Y0096694D02*
X0244421Y0096694D01*
X0244421Y0095496D02*
X0168315Y0095496D01*
X0169514Y0094297D02*
X0244421Y0094297D01*
X0244421Y0093099D02*
X0170712Y0093099D01*
X0171911Y0091900D02*
X0244421Y0091900D01*
X0244421Y0090702D02*
X0173110Y0090702D01*
X0174308Y0089503D02*
X0244421Y0089503D01*
X0244421Y0088305D02*
X0176661Y0088305D01*
X0176661Y0087106D02*
X0244421Y0087106D01*
X0244421Y0085908D02*
X0176661Y0085908D01*
X0176661Y0084709D02*
X0244421Y0084709D01*
X0244421Y0083511D02*
X0176661Y0083511D01*
X0176661Y0082312D02*
X0244421Y0082312D01*
X0244421Y0081114D02*
X0176661Y0081114D01*
X0176661Y0079915D02*
X0244421Y0079915D01*
X0244421Y0114672D02*
X0158800Y0114672D01*
X0158800Y0115870D02*
X0244421Y0115870D01*
X0244421Y0117069D02*
X0158800Y0117069D01*
X0158879Y0118268D02*
X0244421Y0118268D01*
X0244421Y0119466D02*
X0160077Y0119466D01*
X0161276Y0120665D02*
X0244421Y0120665D01*
X0244421Y0121863D02*
X0162474Y0121863D01*
X0163673Y0123062D02*
X0244421Y0123062D01*
X0244421Y0124260D02*
X0164871Y0124260D01*
X0166070Y0125459D02*
X0244421Y0125459D01*
X0244421Y0126657D02*
X0167268Y0126657D01*
X0168467Y0127856D02*
X0244421Y0127856D01*
X0244421Y0129054D02*
X0169665Y0129054D01*
X0170864Y0130253D02*
X0244421Y0130253D01*
X0244421Y0131451D02*
X0171418Y0131451D01*
X0171418Y0132650D02*
X0244421Y0132650D01*
X0244421Y0133848D02*
X0171418Y0133848D01*
X0171418Y0135047D02*
X0244421Y0135047D01*
X0244421Y0136245D02*
X0171418Y0136245D01*
X0171418Y0137444D02*
X0244421Y0137444D01*
X0244421Y0138642D02*
X0171418Y0138642D01*
X0171418Y0139841D02*
X0244421Y0139841D01*
X0244421Y0141039D02*
X0171418Y0141039D01*
X0171418Y0142238D02*
X0244421Y0142238D01*
X0244421Y0143436D02*
X0172719Y0143436D01*
X0172980Y0144635D02*
X0244421Y0144635D01*
X0244421Y0145833D02*
X0172980Y0145833D01*
X0172971Y0147032D02*
X0244421Y0147032D01*
X0244421Y0148230D02*
X0162944Y0148230D01*
X0162944Y0149100D02*
X0158982Y0149100D01*
X0162944Y0149100D01*
X0162735Y0147032D02*
X0165465Y0147032D01*
X0165456Y0145833D02*
X0162744Y0145833D01*
X0162744Y0144635D02*
X0165456Y0144635D01*
X0165717Y0143436D02*
X0162483Y0143436D01*
X0161182Y0142238D02*
X0167018Y0142238D01*
X0167018Y0141039D02*
X0161182Y0141039D01*
X0161182Y0139841D02*
X0167018Y0139841D01*
X0167018Y0138642D02*
X0161561Y0138642D01*
X0162197Y0137444D02*
X0167018Y0137444D01*
X0167018Y0136245D02*
X0162284Y0136245D01*
X0161903Y0135047D02*
X0167018Y0135047D01*
X0167018Y0133848D02*
X0160777Y0133848D01*
X0158559Y0130253D02*
X0164641Y0130253D01*
X0165840Y0131451D02*
X0157360Y0131451D01*
X0156162Y0132650D02*
X0167018Y0132650D01*
X0163443Y0129054D02*
X0158800Y0129054D01*
X0158800Y0127856D02*
X0162244Y0127856D01*
X0161046Y0126657D02*
X0158800Y0126657D01*
X0158800Y0125459D02*
X0159847Y0125459D01*
X0154400Y0125459D02*
X0136150Y0125459D01*
X0136150Y0126657D02*
X0154400Y0126657D01*
X0154400Y0124260D02*
X0135689Y0124260D01*
X0133200Y0123062D02*
X0154400Y0123062D01*
X0154400Y0121863D02*
X0133200Y0121863D01*
X0133200Y0120665D02*
X0154400Y0120665D01*
X0154400Y0119466D02*
X0133200Y0119466D01*
X0136150Y0118268D02*
X0154400Y0118268D01*
X0154400Y0117069D02*
X0136150Y0117069D01*
X0136150Y0115870D02*
X0154400Y0115870D01*
X0154400Y0114672D02*
X0136150Y0114672D01*
X0136150Y0113473D02*
X0154400Y0113473D01*
X0154400Y0112275D02*
X0136150Y0112275D01*
X0136072Y0111076D02*
X0154400Y0111076D01*
X0154400Y0109878D02*
X0136150Y0109878D01*
X0136150Y0108679D02*
X0154400Y0108679D01*
X0154400Y0107481D02*
X0136150Y0107481D01*
X0136150Y0106282D02*
X0154400Y0106282D01*
X0154400Y0105084D02*
X0136150Y0105084D01*
X0118952Y0119466D02*
X0118090Y0119466D01*
X0118328Y0120665D02*
X0117408Y0120665D01*
X0117724Y0121863D02*
X0118219Y0121863D01*
X0118546Y0123062D02*
X0117724Y0123062D01*
X0117899Y0124260D02*
X0119400Y0124260D01*
X0119400Y0125459D02*
X0117724Y0125459D01*
X0117145Y0126657D02*
X0118432Y0126657D01*
X0117233Y0127856D02*
X0101431Y0127856D01*
X0100233Y0129054D02*
X0116035Y0129054D01*
X0114836Y0130253D02*
X0099034Y0130253D01*
X0097836Y0131451D02*
X0113638Y0131451D01*
X0113239Y0132650D02*
X0096637Y0132650D01*
X0095439Y0133848D02*
X0113239Y0133848D01*
X0113239Y0135047D02*
X0094240Y0135047D01*
X0093042Y0136245D02*
X0113239Y0136245D01*
X0112880Y0139671D02*
X0112880Y0142880D01*
X0114100Y0144100D01*
X0105100Y0144635D02*
X0091858Y0144635D01*
X0091858Y0145833D02*
X0105080Y0145833D01*
X0103881Y0147032D02*
X0091858Y0147032D01*
X0091858Y0148230D02*
X0098901Y0148230D01*
X0098901Y0149429D02*
X0091858Y0149429D01*
X0091159Y0150627D02*
X0098901Y0150627D01*
X0105100Y0143436D02*
X0091858Y0143436D01*
X0091858Y0142238D02*
X0105100Y0142238D01*
X0105100Y0141039D02*
X0091858Y0141039D01*
X0091789Y0139841D02*
X0105100Y0139841D01*
X0105476Y0138642D02*
X0090645Y0138642D01*
X0091843Y0137444D02*
X0105476Y0137444D01*
X0106055Y0126657D02*
X0102630Y0126657D01*
X0110320Y0126657D02*
X0110321Y0126657D01*
X0110320Y0125459D02*
X0110321Y0125459D01*
X0110320Y0124260D02*
X0110321Y0124260D01*
X0110320Y0123062D02*
X0110321Y0123062D01*
X0110320Y0121863D02*
X0110321Y0121863D01*
X0110320Y0120665D02*
X0110321Y0120665D01*
X0112879Y0124260D02*
X0112880Y0124260D01*
X0112879Y0125459D02*
X0112880Y0125459D01*
X0112879Y0126657D02*
X0112880Y0126657D01*
X0103701Y0108679D02*
X0093608Y0108679D01*
X0094806Y0107481D02*
X0104013Y0107481D01*
X0099600Y0102687D02*
X0154400Y0102687D01*
X0154400Y0103885D02*
X0098402Y0103885D01*
X0100799Y0101488D02*
X0154400Y0101488D01*
X0154400Y0100290D02*
X0101997Y0100290D01*
X0103196Y0099091D02*
X0154400Y0099091D01*
X0154400Y0097893D02*
X0104394Y0097893D01*
X0105593Y0096694D02*
X0154400Y0096694D01*
X0154400Y0095496D02*
X0106791Y0095496D01*
X0107990Y0094297D02*
X0154400Y0094297D01*
X0154400Y0093099D02*
X0109188Y0093099D01*
X0110387Y0091900D02*
X0154400Y0091900D01*
X0154400Y0090702D02*
X0111585Y0090702D01*
X0112784Y0089503D02*
X0154400Y0089503D01*
X0154400Y0088305D02*
X0113982Y0088305D01*
X0108074Y0081114D02*
X0085861Y0081114D01*
X0085861Y0082312D02*
X0084661Y0082312D01*
X0084661Y0082200D02*
X0084661Y0088121D01*
X0076586Y0088121D01*
X0076179Y0088012D01*
X0075814Y0087802D01*
X0075517Y0087504D01*
X0075306Y0087139D01*
X0075197Y0086732D01*
X0075197Y0082200D01*
X0084661Y0082200D01*
X0084661Y0081114D02*
X0058539Y0081114D01*
X0058539Y0081000D02*
X0068003Y0081000D01*
X0068003Y0076468D01*
X0067894Y0076061D01*
X0067683Y0075696D01*
X0067386Y0075398D01*
X0067021Y0075188D01*
X0066614Y0075079D01*
X0058539Y0075079D01*
X0058539Y0081000D01*
X0058539Y0079915D02*
X0057339Y0079915D01*
X0057339Y0078717D02*
X0058539Y0078717D01*
X0058539Y0077518D02*
X0057339Y0077518D01*
X0057339Y0076320D02*
X0058539Y0076320D01*
X0058539Y0075121D02*
X0057339Y0075121D01*
X0057339Y0082312D02*
X0058539Y0082312D01*
X0058539Y0083511D02*
X0057339Y0083511D01*
X0057339Y0084709D02*
X0058539Y0084709D01*
X0058539Y0085908D02*
X0057339Y0085908D01*
X0057339Y0087106D02*
X0058539Y0087106D01*
X0067903Y0087106D02*
X0075297Y0087106D01*
X0075197Y0085908D02*
X0068003Y0085908D01*
X0068003Y0084709D02*
X0075197Y0084709D01*
X0075197Y0083511D02*
X0068003Y0083511D01*
X0068003Y0082312D02*
X0075197Y0082312D01*
X0075197Y0079915D02*
X0068003Y0079915D01*
X0068003Y0078717D02*
X0075197Y0078717D01*
X0075197Y0077518D02*
X0068003Y0077518D01*
X0067963Y0076320D02*
X0075237Y0076320D01*
X0076428Y0075121D02*
X0066772Y0075121D01*
X0084661Y0075121D02*
X0085861Y0075121D01*
X0085861Y0076320D02*
X0084661Y0076320D01*
X0084661Y0077518D02*
X0085861Y0077518D01*
X0085861Y0078717D02*
X0084661Y0078717D01*
X0084661Y0079915D02*
X0085861Y0079915D01*
X0085861Y0083511D02*
X0084661Y0083511D01*
X0084661Y0084709D02*
X0085861Y0084709D01*
X0085861Y0085908D02*
X0084661Y0085908D01*
X0084661Y0087106D02*
X0085861Y0087106D01*
X0057880Y0120665D02*
X0057879Y0120665D01*
X0057879Y0121863D02*
X0057880Y0121863D01*
X0057879Y0123062D02*
X0057880Y0123062D01*
X0057879Y0124260D02*
X0057880Y0124260D01*
X0057879Y0125459D02*
X0057880Y0125459D01*
X0057879Y0126657D02*
X0057880Y0126657D01*
X0055321Y0126657D02*
X0055320Y0126657D01*
X0055320Y0125459D02*
X0055321Y0125459D01*
X0055320Y0124260D02*
X0055321Y0124260D01*
X0055320Y0123062D02*
X0055321Y0123062D01*
X0055320Y0121863D02*
X0055321Y0121863D01*
X0055320Y0120665D02*
X0055321Y0120665D01*
X0051055Y0126657D02*
X0047730Y0126657D01*
X0043554Y0125459D02*
X0016200Y0125459D01*
X0016200Y0126657D02*
X0042356Y0126657D01*
X0041157Y0127856D02*
X0016200Y0127856D01*
X0016200Y0129054D02*
X0039959Y0129054D01*
X0038760Y0130253D02*
X0016200Y0130253D01*
X0016200Y0131451D02*
X0037562Y0131451D01*
X0036363Y0132650D02*
X0016200Y0132650D01*
X0016200Y0133848D02*
X0035165Y0133848D01*
X0033966Y0135047D02*
X0016200Y0135047D01*
X0016200Y0136245D02*
X0032768Y0136245D01*
X0031569Y0137444D02*
X0016200Y0137444D01*
X0016200Y0138642D02*
X0030371Y0138642D01*
X0016411Y0139841D02*
X0016200Y0139841D01*
X0016200Y0141039D02*
X0016342Y0141039D01*
X0016342Y0142238D02*
X0016200Y0142238D01*
X0016200Y0143436D02*
X0016342Y0143436D01*
X0016342Y0144635D02*
X0016200Y0144635D01*
X0016200Y0145833D02*
X0016342Y0145833D01*
X0016342Y0147032D02*
X0016200Y0147032D01*
X0016200Y0148230D02*
X0016342Y0148230D01*
X0016342Y0149429D02*
X0016200Y0149429D01*
X0016200Y0150627D02*
X0017041Y0150627D01*
X0057339Y0175796D02*
X0058539Y0175796D01*
X0058539Y0176995D02*
X0057339Y0176995D01*
X0057339Y0178193D02*
X0058539Y0178193D01*
X0058539Y0179392D02*
X0057339Y0179392D01*
X0057339Y0180590D02*
X0058539Y0180590D01*
X0058539Y0184186D02*
X0057339Y0184186D01*
X0057339Y0185384D02*
X0058539Y0185384D01*
X0058539Y0186583D02*
X0057339Y0186583D01*
X0057339Y0187781D02*
X0058539Y0187781D01*
X0117066Y0155421D02*
X0118993Y0155421D01*
X0118901Y0154223D02*
X0118264Y0154223D01*
X0127339Y0175796D02*
X0128539Y0175796D01*
X0128539Y0176995D02*
X0127339Y0176995D01*
X0127339Y0178193D02*
X0128539Y0178193D01*
X0128539Y0179392D02*
X0127339Y0179392D01*
X0127339Y0180590D02*
X0128539Y0180590D01*
X0128539Y0184186D02*
X0127339Y0184186D01*
X0127339Y0185384D02*
X0128539Y0185384D01*
X0128539Y0186583D02*
X0127339Y0186583D01*
X0127339Y0187781D02*
X0128539Y0187781D01*
X0148800Y0182987D02*
X0154039Y0182987D01*
X0154039Y0181789D02*
X0148800Y0181789D01*
X0148800Y0180590D02*
X0154039Y0180590D01*
X0154230Y0179392D02*
X0148800Y0179392D01*
X0148800Y0178193D02*
X0156900Y0178193D01*
X0156383Y0176995D02*
X0148800Y0176995D01*
X0148800Y0175796D02*
X0155185Y0175796D01*
X0153986Y0174598D02*
X0148800Y0174598D01*
X0148800Y0173399D02*
X0152788Y0173399D01*
X0149118Y0172201D02*
X0148800Y0172201D01*
X0148800Y0160215D02*
X0149400Y0160215D01*
X0149400Y0159017D02*
X0148800Y0159017D01*
X0148800Y0157818D02*
X0149400Y0157818D01*
X0149400Y0156620D02*
X0148800Y0156620D01*
X0148800Y0155421D02*
X0149400Y0155421D01*
X0149400Y0154223D02*
X0148800Y0154223D01*
X0148800Y0153024D02*
X0149564Y0153024D01*
X0148800Y0151826D02*
X0150763Y0151826D01*
X0148800Y0150627D02*
X0155082Y0150627D01*
X0155020Y0149429D02*
X0148800Y0149429D01*
X0148800Y0148230D02*
X0155020Y0148230D01*
X0155020Y0149100D02*
X0158982Y0149100D01*
X0158982Y0149100D01*
X0158982Y0149100D01*
X0155020Y0149100D01*
X0155229Y0147032D02*
X0148800Y0147032D01*
X0148800Y0145833D02*
X0155220Y0145833D01*
X0155220Y0144635D02*
X0148800Y0144635D01*
X0148800Y0143436D02*
X0155481Y0143436D01*
X0156782Y0142238D02*
X0148800Y0142238D01*
X0148800Y0141039D02*
X0156782Y0141039D01*
X0156782Y0139841D02*
X0148971Y0139841D01*
X0150169Y0138642D02*
X0156639Y0138642D01*
X0156003Y0137444D02*
X0151368Y0137444D01*
X0152566Y0136245D02*
X0155916Y0136245D01*
X0156297Y0135047D02*
X0153765Y0135047D01*
X0154963Y0133848D02*
X0157423Y0133848D01*
X0163913Y0112275D02*
X0164287Y0112275D01*
X0164287Y0111076D02*
X0163913Y0111076D01*
X0163913Y0109878D02*
X0164287Y0109878D01*
X0168085Y0089503D02*
X0158800Y0089503D01*
X0156169Y0085908D02*
X0127803Y0085908D01*
X0127798Y0087106D02*
X0154971Y0087106D01*
X0156539Y0084709D02*
X0127803Y0084709D01*
X0127803Y0083511D02*
X0156539Y0083511D01*
X0156539Y0082312D02*
X0127803Y0082312D01*
X0127803Y0081114D02*
X0156539Y0081114D01*
X0156539Y0079915D02*
X0127803Y0079915D01*
X0127803Y0078717D02*
X0159400Y0078717D01*
X0159400Y0077518D02*
X0127803Y0077518D01*
X0127803Y0076320D02*
X0159400Y0076320D01*
X0137000Y0040364D02*
X0136200Y0040364D01*
X0136200Y0039166D02*
X0137000Y0039166D01*
X0137000Y0037967D02*
X0136200Y0037967D01*
X0136200Y0035570D02*
X0137000Y0035570D01*
X0137000Y0034372D02*
X0136200Y0034372D01*
X0136200Y0033173D02*
X0137000Y0033173D01*
X0129778Y0039166D02*
X0016200Y0039166D01*
X0016200Y0040364D02*
X0130955Y0040364D01*
X0089321Y0021188D02*
X0055600Y0021188D01*
X0055600Y0022387D02*
X0087823Y0022387D01*
X0087093Y0023585D02*
X0055600Y0023585D01*
X0055600Y0024784D02*
X0086675Y0024784D01*
X0086675Y0025982D02*
X0055191Y0025982D01*
X0054276Y0027181D02*
X0086675Y0027181D01*
X0055347Y0017593D02*
X0198741Y0017593D01*
X0199429Y0016394D02*
X0054651Y0016394D01*
X0047600Y0024784D02*
X0045600Y0024784D01*
X0045191Y0025982D02*
X0048009Y0025982D01*
X0048924Y0027181D02*
X0044276Y0027181D01*
X0026070Y0013997D02*
X0234630Y0013997D01*
X0233977Y0015196D02*
X0212566Y0015196D01*
X0214010Y0016394D02*
X0233480Y0016394D01*
X0233063Y0017593D02*
X0214674Y0017593D01*
X0214937Y0018791D02*
X0233063Y0018791D01*
X0233063Y0019990D02*
X0214851Y0019990D01*
X0214411Y0021188D02*
X0233225Y0021188D01*
X0235828Y0012799D02*
X0024872Y0012799D01*
X0023302Y0011600D02*
X0237398Y0011600D01*
X0244421Y0034372D02*
X0217903Y0034372D01*
X0219101Y0035570D02*
X0244421Y0035570D01*
X0244421Y0036769D02*
X0220300Y0036769D01*
X0221498Y0037967D02*
X0244421Y0037967D01*
X0244421Y0039166D02*
X0221900Y0039166D01*
X0221900Y0040364D02*
X0244421Y0040364D01*
X0214700Y0039166D02*
X0213500Y0039166D01*
X0213500Y0037967D02*
X0214700Y0037967D01*
X0214700Y0036769D02*
X0213500Y0036769D01*
X0213500Y0035570D02*
X0214700Y0035570D01*
X0214700Y0034372D02*
X0213500Y0034372D01*
X0207601Y0022387D02*
X0205316Y0022387D01*
X0206344Y0021188D02*
X0206663Y0021188D01*
X0207064Y0016394D02*
X0205897Y0016394D01*
X0165254Y0179392D02*
X0162946Y0179392D01*
X0163138Y0180590D02*
X0165062Y0180590D01*
X0165062Y0181789D02*
X0163138Y0181789D01*
X0163138Y0182987D02*
X0165062Y0182987D01*
X0165062Y0184186D02*
X0163138Y0184186D01*
X0163138Y0185384D02*
X0165062Y0185384D01*
X0165062Y0186583D02*
X0163138Y0186583D01*
X0163138Y0187781D02*
X0165062Y0187781D01*
X0165425Y0188980D02*
X0162775Y0188980D01*
X0043450Y0087106D02*
X0035121Y0087106D01*
X0035126Y0085908D02*
X0043450Y0085908D01*
X0043450Y0084709D02*
X0035126Y0084709D01*
X0035126Y0083511D02*
X0043450Y0083511D01*
X0043450Y0082312D02*
X0035126Y0082312D01*
X0035126Y0081114D02*
X0043450Y0081114D01*
X0043450Y0079915D02*
X0035126Y0079915D01*
X0035126Y0078717D02*
X0043450Y0078717D01*
X0043450Y0077518D02*
X0035126Y0077518D01*
X0035126Y0076320D02*
X0043450Y0076320D01*
X0043450Y0075121D02*
X0035880Y0075121D01*
X0037079Y0073923D02*
X0043450Y0073923D01*
X0043450Y0072724D02*
X0038277Y0072724D01*
X0039476Y0071526D02*
X0043450Y0071526D01*
X0043450Y0070327D02*
X0040674Y0070327D01*
X0041873Y0069129D02*
X0043450Y0069129D01*
X0043450Y0067930D02*
X0043071Y0067930D01*
X0038400Y0064334D02*
X0016200Y0064334D01*
X0016200Y0063136D02*
X0038400Y0063136D01*
X0038400Y0061937D02*
X0016200Y0061937D01*
X0016200Y0060739D02*
X0038400Y0060739D01*
X0038400Y0059540D02*
X0016200Y0059540D01*
X0016200Y0058342D02*
X0038400Y0058342D01*
X0037266Y0065533D02*
X0016200Y0065533D01*
X0016200Y0066732D02*
X0036067Y0066732D01*
X0034869Y0067930D02*
X0016200Y0067930D01*
X0016200Y0069129D02*
X0033670Y0069129D01*
X0032472Y0070327D02*
X0016200Y0070327D01*
X0016200Y0071526D02*
X0031273Y0071526D01*
X0030075Y0072724D02*
X0016200Y0072724D01*
X0016200Y0073923D02*
X0028876Y0073923D01*
X0027678Y0075121D02*
X0016200Y0075121D01*
D30*
X0066600Y0116600D02*
X0066600Y0126600D01*
X0060439Y0132761D01*
X0060439Y0139671D01*
X0115439Y0139671D02*
X0115439Y0132761D01*
X0121600Y0126600D01*
X0121600Y0121600D01*
X0146600Y0139100D02*
X0156600Y0129100D01*
X0156600Y0119100D01*
X0156600Y0088588D01*
X0161088Y0084100D01*
X0161600Y0083588D01*
X0161600Y0066600D01*
X0164100Y0064100D01*
X0164100Y0054100D01*
X0161088Y0084100D02*
X0161600Y0084612D01*
X0172112Y0084100D02*
X0172112Y0088588D01*
X0164100Y0096600D01*
X0164100Y0103647D01*
X0156600Y0119100D02*
X0169218Y0131718D01*
X0169218Y0145360D01*
X0169218Y0152840D02*
X0179100Y0162722D01*
X0179100Y0201600D01*
X0176600Y0204100D01*
X0169612Y0204100D01*
X0166600Y0194100D02*
X0151600Y0194100D01*
X0146600Y0189100D01*
X0146600Y0139100D01*
X0158982Y0136718D02*
X0159100Y0136600D01*
X0158982Y0136718D02*
X0158982Y0145360D01*
X0158982Y0152840D02*
X0152860Y0152840D01*
X0151600Y0154100D01*
X0151600Y0163647D01*
X0151600Y0169553D02*
X0152053Y0169553D01*
X0159100Y0176600D01*
X0159100Y0183588D01*
X0158588Y0184100D01*
X0169612Y0184100D02*
X0169612Y0191088D01*
X0166600Y0194100D01*
X0214100Y0041600D02*
X0214100Y0019100D01*
X0210537Y0019100D01*
D31*
X0121600Y0121600D03*
X0066600Y0116600D03*
D32*
X0159100Y0136600D03*
D33*
X0194100Y0041600D03*
X0236600Y0041600D03*
M02*
