G75*
%MOIN*%
%OFA0B0*%
%FSLAX25Y25*%
%IPPOS*%
%LPD*%
%AMOC8*
5,1,8,0,0,1.08239X$1,22.5*
%
%ADD10C,0.07050*%
%ADD11C,0.05200*%
%ADD12C,0.06000*%
%ADD13OC8,0.12400*%
%ADD14C,0.06600*%
%ADD15C,0.05600*%
%ADD16C,0.01000*%
%ADD17C,0.03000*%
%ADD18C,0.04000*%
%ADD19C,0.01600*%
%ADD20C,0.03962*%
%ADD21C,0.03569*%
%ADD22OC8,0.12661*%
%ADD23C,0.01200*%
%ADD24C,0.03200*%
D10*
X0091600Y0025575D02*
X0091600Y0032625D01*
X0111600Y0032625D02*
X0111600Y0025575D01*
X0101600Y0225575D02*
X0101600Y0232625D01*
X0121600Y0232625D02*
X0121600Y0225575D01*
X0051600Y0225575D02*
X0051600Y0232625D01*
X0031600Y0232625D02*
X0031600Y0225575D01*
D11*
X0041600Y0054200D02*
X0041600Y0049000D01*
X0051600Y0049000D02*
X0051600Y0054200D01*
X0051600Y0024200D02*
X0051600Y0019000D01*
X0041600Y0019000D02*
X0041600Y0024200D01*
D12*
X0133600Y0036600D02*
X0139600Y0036600D01*
X0139600Y0046600D02*
X0133600Y0046600D01*
X0133600Y0056600D02*
X0139600Y0056600D01*
D13*
X0214100Y0041600D03*
X0194100Y0241600D03*
X0234100Y0241600D03*
D14*
X0174100Y0234900D02*
X0174100Y0228300D01*
X0159100Y0228300D02*
X0159100Y0234900D01*
X0144100Y0234900D02*
X0144100Y0228300D01*
X0160800Y0054100D02*
X0167400Y0054100D01*
X0167400Y0039100D02*
X0160800Y0039100D01*
X0160800Y0024100D02*
X0167400Y0024100D01*
D15*
X0202663Y0019100D03*
X0210537Y0019100D03*
D16*
X0115100Y0115100D02*
X0115100Y0117800D01*
X0121400Y0228500D02*
X0121600Y0229100D01*
X0052100Y0228500D02*
X0051600Y0229100D01*
D17*
X0052100Y0228500D02*
X0055700Y0224900D01*
X0055700Y0214150D01*
X0104650Y0214150D01*
X0112750Y0228500D01*
X0121400Y0228500D01*
X0055700Y0214150D02*
X0055700Y0118700D01*
X0115100Y0115100D02*
X0051600Y0051600D01*
D18*
X0055700Y0118700D03*
X0115100Y0117800D03*
D19*
X0121600Y0121600D02*
X0136600Y0121600D01*
X0141600Y0116600D01*
X0141600Y0066600D01*
X0136600Y0061600D01*
X0136600Y0056600D01*
X0136600Y0046600D02*
X0141600Y0046600D01*
X0146600Y0051600D01*
X0146600Y0124100D01*
X0141600Y0131600D01*
X0071600Y0131600D01*
X0066600Y0126600D01*
X0066600Y0116600D01*
X0044100Y0141600D02*
X0044100Y0071600D01*
X0029100Y0056600D01*
X0029100Y0034100D01*
X0041600Y0021600D01*
X0091600Y0019100D02*
X0091600Y0029100D01*
X0091600Y0019100D02*
X0094100Y0016600D01*
X0131600Y0016600D01*
X0154100Y0039100D01*
X0164100Y0039100D01*
X0136600Y0036600D02*
X0136600Y0031600D01*
X0131600Y0026600D01*
X0114100Y0026600D01*
X0111600Y0029100D01*
X0194100Y0041600D02*
X0214100Y0041600D01*
X0236600Y0041600D01*
X0174100Y0129100D02*
X0161600Y0129100D01*
X0159100Y0131600D01*
X0159100Y0136600D01*
X0174100Y0129100D02*
X0179100Y0134100D01*
X0179100Y0214100D01*
X0174100Y0219100D01*
X0174100Y0231600D01*
X0144100Y0231600D02*
X0144100Y0216600D01*
X0134100Y0206600D01*
X0084100Y0206600D01*
X0076600Y0199100D01*
X0076600Y0166600D01*
X0061600Y0151600D01*
X0054100Y0151600D01*
X0044100Y0141600D01*
D20*
X0066600Y0116600D03*
X0121600Y0121600D03*
D21*
X0159100Y0136600D03*
D22*
X0194100Y0041600D03*
X0236600Y0041600D03*
D23*
X0023936Y0011863D02*
X0022336Y0011200D01*
X0238364Y0011200D01*
X0236764Y0011863D01*
X0234363Y0014264D01*
X0233063Y0017402D01*
X0233063Y0020798D01*
X0234363Y0023936D01*
X0236764Y0026337D01*
X0239902Y0027637D01*
X0243298Y0027637D01*
X0244421Y0027172D01*
X0244421Y0250701D01*
X0016200Y0250701D01*
X0016200Y0027139D01*
X0017402Y0027637D01*
X0020798Y0027637D01*
X0023936Y0026337D01*
X0026337Y0023936D01*
X0027637Y0020798D01*
X0027637Y0017402D01*
X0026337Y0014264D01*
X0023936Y0011863D01*
X0023302Y0011600D02*
X0237398Y0011600D01*
X0235828Y0012799D02*
X0024872Y0012799D01*
X0026070Y0013997D02*
X0234630Y0013997D01*
X0233977Y0015196D02*
X0212566Y0015196D01*
X0212843Y0015337D02*
X0213403Y0015744D01*
X0213893Y0016234D01*
X0214300Y0016794D01*
X0214615Y0017411D01*
X0214829Y0018070D01*
X0214937Y0018754D01*
X0214937Y0018913D01*
X0210724Y0018913D01*
X0210724Y0014700D01*
X0210883Y0014700D01*
X0211567Y0014808D01*
X0212226Y0015022D01*
X0212843Y0015337D01*
X0214010Y0016394D02*
X0233480Y0016394D01*
X0233063Y0017593D02*
X0214674Y0017593D01*
X0214937Y0018791D02*
X0233063Y0018791D01*
X0233063Y0019990D02*
X0214851Y0019990D01*
X0214829Y0020130D02*
X0214615Y0020789D01*
X0214300Y0021406D01*
X0213893Y0021966D01*
X0213403Y0022456D01*
X0212843Y0022863D01*
X0212226Y0023178D01*
X0211567Y0023392D01*
X0210883Y0023500D01*
X0210724Y0023500D01*
X0210724Y0019287D01*
X0210350Y0019287D01*
X0210350Y0023500D01*
X0210191Y0023500D01*
X0209507Y0023392D01*
X0208848Y0023178D01*
X0208231Y0022863D01*
X0207671Y0022456D01*
X0207181Y0021966D01*
X0206774Y0021406D01*
X0206487Y0020843D01*
X0206224Y0021479D01*
X0205042Y0022661D01*
X0203498Y0023300D01*
X0201828Y0023300D01*
X0200284Y0022661D01*
X0199723Y0022100D01*
X0195343Y0022100D01*
X0184600Y0032843D01*
X0184600Y0067857D01*
X0195799Y0079057D01*
X0196643Y0079901D01*
X0197100Y0081003D01*
X0197100Y0234000D01*
X0197248Y0234000D01*
X0201700Y0238452D01*
X0201700Y0244748D01*
X0197248Y0249200D01*
X0190952Y0249200D01*
X0190847Y0249095D01*
X0190799Y0249143D01*
X0189697Y0249600D01*
X0158503Y0249600D01*
X0157401Y0249143D01*
X0156557Y0248299D01*
X0156100Y0247197D01*
X0156100Y0238547D01*
X0155116Y0237562D01*
X0154400Y0235835D01*
X0154400Y0227365D01*
X0155116Y0225638D01*
X0156438Y0224316D01*
X0158165Y0223600D01*
X0160035Y0223600D01*
X0161762Y0224316D01*
X0163084Y0225638D01*
X0163800Y0227365D01*
X0163800Y0235835D01*
X0163084Y0237562D01*
X0162100Y0238547D01*
X0162100Y0243600D01*
X0186500Y0243600D01*
X0186500Y0238452D01*
X0190952Y0234000D01*
X0191100Y0234000D01*
X0191100Y0082843D01*
X0179057Y0070799D01*
X0178600Y0069697D01*
X0178600Y0031003D01*
X0179057Y0029901D01*
X0179901Y0029057D01*
X0192401Y0016557D01*
X0193503Y0016100D01*
X0199723Y0016100D01*
X0200284Y0015539D01*
X0201828Y0014900D01*
X0203498Y0014900D01*
X0205042Y0015539D01*
X0206224Y0016721D01*
X0206487Y0017357D01*
X0206774Y0016794D01*
X0207181Y0016234D01*
X0207671Y0015744D01*
X0208231Y0015337D01*
X0208848Y0015022D01*
X0209507Y0014808D01*
X0210191Y0014700D01*
X0210350Y0014700D01*
X0210350Y0018913D01*
X0210724Y0018913D01*
X0210724Y0019287D01*
X0214937Y0019287D01*
X0214937Y0019446D01*
X0214829Y0020130D01*
X0214411Y0021188D02*
X0233225Y0021188D01*
X0233721Y0022387D02*
X0213473Y0022387D01*
X0210724Y0022387D02*
X0210350Y0022387D01*
X0210350Y0021188D02*
X0210724Y0021188D01*
X0210724Y0019990D02*
X0210350Y0019990D01*
X0210350Y0018791D02*
X0210724Y0018791D01*
X0210724Y0017593D02*
X0210350Y0017593D01*
X0210350Y0016394D02*
X0210724Y0016394D01*
X0210724Y0015196D02*
X0210350Y0015196D01*
X0208508Y0015196D02*
X0204212Y0015196D01*
X0205897Y0016394D02*
X0207064Y0016394D01*
X0206663Y0021188D02*
X0206344Y0021188D01*
X0205316Y0022387D02*
X0207601Y0022387D01*
X0200010Y0022387D02*
X0195056Y0022387D01*
X0193858Y0023585D02*
X0234217Y0023585D01*
X0235210Y0024784D02*
X0192659Y0024784D01*
X0191460Y0025982D02*
X0236409Y0025982D01*
X0238800Y0027181D02*
X0190262Y0027181D01*
X0189063Y0028379D02*
X0244421Y0028379D01*
X0244400Y0027181D02*
X0244421Y0027181D01*
X0244421Y0029578D02*
X0187865Y0029578D01*
X0186666Y0030776D02*
X0244421Y0030776D01*
X0244421Y0031975D02*
X0185468Y0031975D01*
X0184600Y0033173D02*
X0244421Y0033173D01*
X0244421Y0034372D02*
X0217903Y0034372D01*
X0217331Y0033800D02*
X0221900Y0038369D01*
X0221900Y0041000D01*
X0214700Y0041000D01*
X0214700Y0042200D01*
X0213500Y0042200D01*
X0213500Y0049400D01*
X0210869Y0049400D01*
X0206300Y0044831D01*
X0206300Y0042200D01*
X0213500Y0042200D01*
X0213500Y0041000D01*
X0206300Y0041000D01*
X0206300Y0038369D01*
X0210869Y0033800D01*
X0213500Y0033800D01*
X0213500Y0041000D01*
X0214700Y0041000D01*
X0214700Y0033800D01*
X0217331Y0033800D01*
X0219101Y0035570D02*
X0244421Y0035570D01*
X0244421Y0036769D02*
X0220300Y0036769D01*
X0221498Y0037967D02*
X0244421Y0037967D01*
X0244421Y0039166D02*
X0221900Y0039166D01*
X0221900Y0040364D02*
X0244421Y0040364D01*
X0244421Y0041563D02*
X0214700Y0041563D01*
X0214700Y0042200D02*
X0221900Y0042200D01*
X0221900Y0044831D01*
X0217331Y0049400D01*
X0214700Y0049400D01*
X0214700Y0042200D01*
X0214700Y0042761D02*
X0213500Y0042761D01*
X0213500Y0041563D02*
X0184600Y0041563D01*
X0184600Y0042761D02*
X0206300Y0042761D01*
X0206300Y0043960D02*
X0184600Y0043960D01*
X0184600Y0045158D02*
X0206627Y0045158D01*
X0207826Y0046357D02*
X0184600Y0046357D01*
X0184600Y0047555D02*
X0209024Y0047555D01*
X0210223Y0048754D02*
X0184600Y0048754D01*
X0184600Y0049952D02*
X0244421Y0049952D01*
X0244421Y0048754D02*
X0217977Y0048754D01*
X0219176Y0047555D02*
X0244421Y0047555D01*
X0244421Y0046357D02*
X0220374Y0046357D01*
X0221573Y0045158D02*
X0244421Y0045158D01*
X0244421Y0043960D02*
X0221900Y0043960D01*
X0221900Y0042761D02*
X0244421Y0042761D01*
X0244421Y0051151D02*
X0184600Y0051151D01*
X0184600Y0052349D02*
X0244421Y0052349D01*
X0244421Y0053548D02*
X0184600Y0053548D01*
X0184600Y0054746D02*
X0244421Y0054746D01*
X0244421Y0055945D02*
X0184600Y0055945D01*
X0184600Y0057143D02*
X0244421Y0057143D01*
X0244421Y0058342D02*
X0184600Y0058342D01*
X0184600Y0059540D02*
X0244421Y0059540D01*
X0244421Y0060739D02*
X0184600Y0060739D01*
X0184600Y0061937D02*
X0244421Y0061937D01*
X0244421Y0063136D02*
X0184600Y0063136D01*
X0184600Y0064334D02*
X0244421Y0064334D01*
X0244421Y0065533D02*
X0184600Y0065533D01*
X0184600Y0066732D02*
X0244421Y0066732D01*
X0244421Y0067930D02*
X0184673Y0067930D01*
X0185871Y0069129D02*
X0244421Y0069129D01*
X0244421Y0070327D02*
X0187070Y0070327D01*
X0188268Y0071526D02*
X0244421Y0071526D01*
X0244421Y0072724D02*
X0189467Y0072724D01*
X0190665Y0073923D02*
X0244421Y0073923D01*
X0244421Y0075121D02*
X0191864Y0075121D01*
X0193062Y0076320D02*
X0244421Y0076320D01*
X0244421Y0077518D02*
X0194261Y0077518D01*
X0195459Y0078717D02*
X0244421Y0078717D01*
X0244421Y0079915D02*
X0196649Y0079915D01*
X0197100Y0081114D02*
X0244421Y0081114D01*
X0244421Y0082312D02*
X0197100Y0082312D01*
X0197100Y0083511D02*
X0244421Y0083511D01*
X0244421Y0084709D02*
X0197100Y0084709D01*
X0197100Y0085908D02*
X0244421Y0085908D01*
X0244421Y0087106D02*
X0197100Y0087106D01*
X0197100Y0088305D02*
X0244421Y0088305D01*
X0244421Y0089503D02*
X0197100Y0089503D01*
X0197100Y0090702D02*
X0244421Y0090702D01*
X0244421Y0091900D02*
X0197100Y0091900D01*
X0197100Y0093099D02*
X0244421Y0093099D01*
X0244421Y0094297D02*
X0197100Y0094297D01*
X0197100Y0095496D02*
X0244421Y0095496D01*
X0244421Y0096694D02*
X0197100Y0096694D01*
X0197100Y0097893D02*
X0244421Y0097893D01*
X0244421Y0099091D02*
X0197100Y0099091D01*
X0197100Y0100290D02*
X0244421Y0100290D01*
X0244421Y0101488D02*
X0197100Y0101488D01*
X0197100Y0102687D02*
X0244421Y0102687D01*
X0244421Y0103885D02*
X0197100Y0103885D01*
X0197100Y0105084D02*
X0244421Y0105084D01*
X0244421Y0106282D02*
X0197100Y0106282D01*
X0197100Y0107481D02*
X0244421Y0107481D01*
X0244421Y0108679D02*
X0197100Y0108679D01*
X0197100Y0109878D02*
X0244421Y0109878D01*
X0244421Y0111076D02*
X0197100Y0111076D01*
X0197100Y0112275D02*
X0244421Y0112275D01*
X0244421Y0113473D02*
X0197100Y0113473D01*
X0197100Y0114672D02*
X0244421Y0114672D01*
X0244421Y0115870D02*
X0197100Y0115870D01*
X0197100Y0117069D02*
X0244421Y0117069D01*
X0244421Y0118268D02*
X0197100Y0118268D01*
X0197100Y0119466D02*
X0244421Y0119466D01*
X0244421Y0120665D02*
X0197100Y0120665D01*
X0197100Y0121863D02*
X0244421Y0121863D01*
X0244421Y0123062D02*
X0197100Y0123062D01*
X0197100Y0124260D02*
X0244421Y0124260D01*
X0244421Y0125459D02*
X0197100Y0125459D01*
X0197100Y0126657D02*
X0244421Y0126657D01*
X0244421Y0127856D02*
X0197100Y0127856D01*
X0197100Y0129054D02*
X0244421Y0129054D01*
X0244421Y0130253D02*
X0197100Y0130253D01*
X0197100Y0131451D02*
X0244421Y0131451D01*
X0244421Y0132650D02*
X0197100Y0132650D01*
X0197100Y0133848D02*
X0244421Y0133848D01*
X0244421Y0135047D02*
X0197100Y0135047D01*
X0197100Y0136245D02*
X0244421Y0136245D01*
X0244421Y0137444D02*
X0197100Y0137444D01*
X0197100Y0138642D02*
X0244421Y0138642D01*
X0244421Y0139841D02*
X0197100Y0139841D01*
X0197100Y0141039D02*
X0244421Y0141039D01*
X0244421Y0142238D02*
X0197100Y0142238D01*
X0197100Y0143436D02*
X0244421Y0143436D01*
X0244421Y0144635D02*
X0197100Y0144635D01*
X0197100Y0145833D02*
X0244421Y0145833D01*
X0244421Y0147032D02*
X0197100Y0147032D01*
X0197100Y0148230D02*
X0244421Y0148230D01*
X0244421Y0149429D02*
X0197100Y0149429D01*
X0197100Y0150627D02*
X0244421Y0150627D01*
X0244421Y0151826D02*
X0197100Y0151826D01*
X0197100Y0153024D02*
X0244421Y0153024D01*
X0244421Y0154223D02*
X0197100Y0154223D01*
X0197100Y0155421D02*
X0244421Y0155421D01*
X0244421Y0156620D02*
X0197100Y0156620D01*
X0197100Y0157818D02*
X0244421Y0157818D01*
X0244421Y0159017D02*
X0197100Y0159017D01*
X0197100Y0160215D02*
X0244421Y0160215D01*
X0244421Y0161414D02*
X0197100Y0161414D01*
X0197100Y0162612D02*
X0244421Y0162612D01*
X0244421Y0163811D02*
X0197100Y0163811D01*
X0197100Y0165009D02*
X0244421Y0165009D01*
X0244421Y0166208D02*
X0197100Y0166208D01*
X0197100Y0167406D02*
X0244421Y0167406D01*
X0244421Y0168605D02*
X0197100Y0168605D01*
X0197100Y0169803D02*
X0244421Y0169803D01*
X0244421Y0171002D02*
X0197100Y0171002D01*
X0197100Y0172201D02*
X0244421Y0172201D01*
X0244421Y0173399D02*
X0197100Y0173399D01*
X0197100Y0174598D02*
X0244421Y0174598D01*
X0244421Y0175796D02*
X0197100Y0175796D01*
X0197100Y0176995D02*
X0244421Y0176995D01*
X0244421Y0178193D02*
X0197100Y0178193D01*
X0197100Y0179392D02*
X0244421Y0179392D01*
X0244421Y0180590D02*
X0197100Y0180590D01*
X0197100Y0181789D02*
X0244421Y0181789D01*
X0244421Y0182987D02*
X0197100Y0182987D01*
X0197100Y0184186D02*
X0244421Y0184186D01*
X0244421Y0185384D02*
X0197100Y0185384D01*
X0197100Y0186583D02*
X0244421Y0186583D01*
X0244421Y0187781D02*
X0197100Y0187781D01*
X0197100Y0188980D02*
X0244421Y0188980D01*
X0244421Y0190178D02*
X0197100Y0190178D01*
X0197100Y0191377D02*
X0244421Y0191377D01*
X0244421Y0192575D02*
X0197100Y0192575D01*
X0197100Y0193774D02*
X0244421Y0193774D01*
X0244421Y0194972D02*
X0197100Y0194972D01*
X0197100Y0196171D02*
X0244421Y0196171D01*
X0244421Y0197369D02*
X0197100Y0197369D01*
X0197100Y0198568D02*
X0244421Y0198568D01*
X0244421Y0199766D02*
X0197100Y0199766D01*
X0197100Y0200965D02*
X0244421Y0200965D01*
X0244421Y0202163D02*
X0197100Y0202163D01*
X0197100Y0203362D02*
X0244421Y0203362D01*
X0244421Y0204560D02*
X0197100Y0204560D01*
X0197100Y0205759D02*
X0244421Y0205759D01*
X0244421Y0206957D02*
X0197100Y0206957D01*
X0197100Y0208156D02*
X0244421Y0208156D01*
X0244421Y0209354D02*
X0197100Y0209354D01*
X0197100Y0210553D02*
X0244421Y0210553D01*
X0244421Y0211751D02*
X0197100Y0211751D01*
X0197100Y0212950D02*
X0244421Y0212950D01*
X0244421Y0214148D02*
X0197100Y0214148D01*
X0197100Y0215347D02*
X0244421Y0215347D01*
X0244421Y0216545D02*
X0197100Y0216545D01*
X0197100Y0217744D02*
X0244421Y0217744D01*
X0244421Y0218942D02*
X0197100Y0218942D01*
X0197100Y0220141D02*
X0244421Y0220141D01*
X0244421Y0221339D02*
X0197100Y0221339D01*
X0197100Y0222538D02*
X0244421Y0222538D01*
X0244421Y0223737D02*
X0197100Y0223737D01*
X0197100Y0224935D02*
X0244421Y0224935D01*
X0244421Y0226134D02*
X0197100Y0226134D01*
X0197100Y0227332D02*
X0244421Y0227332D01*
X0244421Y0228531D02*
X0197100Y0228531D01*
X0197100Y0229729D02*
X0244421Y0229729D01*
X0244421Y0230928D02*
X0197100Y0230928D01*
X0197100Y0232126D02*
X0244421Y0232126D01*
X0244421Y0233325D02*
X0197100Y0233325D01*
X0197771Y0234523D02*
X0230429Y0234523D01*
X0230952Y0234000D02*
X0237248Y0234000D01*
X0241700Y0238452D01*
X0241700Y0244748D01*
X0237248Y0249200D01*
X0230952Y0249200D01*
X0226500Y0244748D01*
X0226500Y0238452D01*
X0230952Y0234000D01*
X0229230Y0235722D02*
X0198970Y0235722D01*
X0200168Y0236920D02*
X0228032Y0236920D01*
X0226833Y0238119D02*
X0201367Y0238119D01*
X0201700Y0239317D02*
X0226500Y0239317D01*
X0226500Y0240516D02*
X0201700Y0240516D01*
X0201700Y0241714D02*
X0226500Y0241714D01*
X0226500Y0242913D02*
X0201700Y0242913D01*
X0201700Y0244111D02*
X0226500Y0244111D01*
X0227062Y0245310D02*
X0201138Y0245310D01*
X0199940Y0246508D02*
X0228260Y0246508D01*
X0229459Y0247707D02*
X0198741Y0247707D01*
X0197543Y0248905D02*
X0230657Y0248905D01*
X0237543Y0248905D02*
X0244421Y0248905D01*
X0244421Y0247707D02*
X0238741Y0247707D01*
X0239940Y0246508D02*
X0244421Y0246508D01*
X0244421Y0245310D02*
X0241138Y0245310D01*
X0241700Y0244111D02*
X0244421Y0244111D01*
X0244421Y0242913D02*
X0241700Y0242913D01*
X0241700Y0241714D02*
X0244421Y0241714D01*
X0244421Y0240516D02*
X0241700Y0240516D01*
X0241700Y0239317D02*
X0244421Y0239317D01*
X0244421Y0238119D02*
X0241367Y0238119D01*
X0240168Y0236920D02*
X0244421Y0236920D01*
X0244421Y0235722D02*
X0238970Y0235722D01*
X0237771Y0234523D02*
X0244421Y0234523D01*
X0244421Y0250104D02*
X0016200Y0250104D01*
X0016200Y0248905D02*
X0157163Y0248905D01*
X0156311Y0247707D02*
X0016200Y0247707D01*
X0016200Y0246508D02*
X0156100Y0246508D01*
X0156100Y0245310D02*
X0016200Y0245310D01*
X0016200Y0244111D02*
X0072425Y0244111D01*
X0071764Y0243837D02*
X0069363Y0241436D01*
X0068063Y0238298D01*
X0068063Y0234902D01*
X0069363Y0231764D01*
X0071764Y0229363D01*
X0074902Y0228063D01*
X0078298Y0228063D01*
X0081436Y0229363D01*
X0083837Y0231764D01*
X0085137Y0234902D01*
X0085137Y0238298D01*
X0083837Y0241436D01*
X0081436Y0243837D01*
X0078298Y0245137D01*
X0074902Y0245137D01*
X0071764Y0243837D01*
X0070840Y0242913D02*
X0016200Y0242913D01*
X0016200Y0241714D02*
X0069641Y0241714D01*
X0068982Y0240516D02*
X0016200Y0240516D01*
X0016200Y0239317D02*
X0068485Y0239317D01*
X0068063Y0238119D02*
X0016200Y0238119D01*
X0016200Y0236920D02*
X0029100Y0236920D01*
X0028810Y0236800D02*
X0027425Y0235415D01*
X0026675Y0233605D01*
X0026675Y0224595D01*
X0027425Y0222785D01*
X0028810Y0221400D01*
X0030620Y0220650D01*
X0032580Y0220650D01*
X0034390Y0221400D01*
X0035775Y0222785D01*
X0036525Y0224595D01*
X0036525Y0233605D01*
X0035775Y0235415D01*
X0034390Y0236800D01*
X0032580Y0237550D01*
X0030620Y0237550D01*
X0028810Y0236800D01*
X0027732Y0235722D02*
X0016200Y0235722D01*
X0016200Y0234523D02*
X0027055Y0234523D01*
X0026675Y0233325D02*
X0016200Y0233325D01*
X0016200Y0232126D02*
X0026675Y0232126D01*
X0026675Y0230928D02*
X0016200Y0230928D01*
X0016200Y0229729D02*
X0026675Y0229729D01*
X0026675Y0228531D02*
X0016200Y0228531D01*
X0016200Y0227332D02*
X0026675Y0227332D01*
X0026675Y0226134D02*
X0016200Y0226134D01*
X0016200Y0224935D02*
X0026675Y0224935D01*
X0027031Y0223737D02*
X0016200Y0223737D01*
X0016200Y0222538D02*
X0027672Y0222538D01*
X0028956Y0221339D02*
X0016200Y0221339D01*
X0016200Y0220141D02*
X0141900Y0220141D01*
X0141900Y0221339D02*
X0124489Y0221339D01*
X0124286Y0221192D02*
X0124939Y0221666D01*
X0125509Y0222236D01*
X0125983Y0222889D01*
X0126350Y0223608D01*
X0126599Y0224375D01*
X0126725Y0225172D01*
X0126725Y0228525D01*
X0122175Y0228525D01*
X0122175Y0229675D01*
X0121025Y0229675D01*
X0121025Y0237723D01*
X0120400Y0237624D01*
X0119633Y0237375D01*
X0118914Y0237008D01*
X0118261Y0236534D01*
X0117691Y0235964D01*
X0117217Y0235311D01*
X0116850Y0234592D01*
X0116601Y0233825D01*
X0116475Y0233028D01*
X0116475Y0229675D01*
X0121025Y0229675D01*
X0121025Y0228525D01*
X0116475Y0228525D01*
X0116475Y0225172D01*
X0116601Y0224375D01*
X0116850Y0223608D01*
X0117217Y0222889D01*
X0117691Y0222236D01*
X0118261Y0221666D01*
X0118914Y0221192D01*
X0119633Y0220825D01*
X0120400Y0220576D01*
X0121025Y0220477D01*
X0121025Y0228525D01*
X0122175Y0228525D01*
X0122175Y0220477D01*
X0122800Y0220576D01*
X0123567Y0220825D01*
X0124286Y0221192D01*
X0125728Y0222538D02*
X0141900Y0222538D01*
X0141900Y0223737D02*
X0126391Y0223737D01*
X0126687Y0224935D02*
X0140818Y0224935D01*
X0141438Y0224316D02*
X0140116Y0225638D01*
X0139400Y0227365D01*
X0139400Y0235835D01*
X0140116Y0237562D01*
X0141438Y0238884D01*
X0143165Y0239600D01*
X0145035Y0239600D01*
X0146762Y0238884D01*
X0148084Y0237562D01*
X0148800Y0235835D01*
X0148800Y0227365D01*
X0148084Y0225638D01*
X0146762Y0224316D01*
X0146300Y0224124D01*
X0146300Y0215689D01*
X0136300Y0205689D01*
X0135011Y0204400D01*
X0085011Y0204400D01*
X0078800Y0198189D01*
X0078800Y0165689D01*
X0063800Y0150689D01*
X0062511Y0149400D01*
X0055011Y0149400D01*
X0046300Y0140689D01*
X0046300Y0070689D01*
X0031300Y0055689D01*
X0031300Y0035011D01*
X0039027Y0027284D01*
X0039334Y0027591D01*
X0040804Y0028200D01*
X0042396Y0028200D01*
X0043866Y0027591D01*
X0044991Y0026466D01*
X0045600Y0024996D01*
X0045600Y0018204D01*
X0044991Y0016734D01*
X0043866Y0015609D01*
X0042396Y0015000D01*
X0040804Y0015000D01*
X0039334Y0015609D01*
X0038209Y0016734D01*
X0037600Y0018204D01*
X0037600Y0022489D01*
X0026900Y0033189D01*
X0026900Y0057511D01*
X0028189Y0058800D01*
X0041900Y0072511D01*
X0041900Y0142511D01*
X0043189Y0143800D01*
X0053189Y0153800D01*
X0060689Y0153800D01*
X0074400Y0167511D01*
X0074400Y0200011D01*
X0075689Y0201300D01*
X0083189Y0208800D01*
X0133189Y0208800D01*
X0141900Y0217511D01*
X0141900Y0224124D01*
X0141438Y0224316D01*
X0139910Y0226134D02*
X0126725Y0226134D01*
X0126725Y0227332D02*
X0139414Y0227332D01*
X0139400Y0228531D02*
X0122175Y0228531D01*
X0122175Y0229675D02*
X0126725Y0229675D01*
X0126725Y0233028D01*
X0126599Y0233825D01*
X0126350Y0234592D01*
X0125983Y0235311D01*
X0125509Y0235964D01*
X0124939Y0236534D01*
X0124286Y0237008D01*
X0123567Y0237375D01*
X0122800Y0237624D01*
X0122175Y0237723D01*
X0122175Y0229675D01*
X0122175Y0229729D02*
X0121025Y0229729D01*
X0121025Y0228531D02*
X0106525Y0228531D01*
X0106525Y0229729D02*
X0116475Y0229729D01*
X0116475Y0230928D02*
X0106525Y0230928D01*
X0106525Y0232126D02*
X0116475Y0232126D01*
X0116522Y0233325D02*
X0106525Y0233325D01*
X0106525Y0233605D02*
X0105775Y0235415D01*
X0104390Y0236800D01*
X0102580Y0237550D01*
X0100620Y0237550D01*
X0098810Y0236800D01*
X0097425Y0235415D01*
X0096675Y0233605D01*
X0096675Y0224595D01*
X0097425Y0222785D01*
X0098810Y0221400D01*
X0100620Y0220650D01*
X0102580Y0220650D01*
X0104390Y0221400D01*
X0105775Y0222785D01*
X0106525Y0224595D01*
X0106525Y0233605D01*
X0106145Y0234523D02*
X0116828Y0234523D01*
X0117515Y0235722D02*
X0105468Y0235722D01*
X0104100Y0236920D02*
X0118793Y0236920D01*
X0121025Y0236920D02*
X0122175Y0236920D01*
X0122175Y0235722D02*
X0121025Y0235722D01*
X0121025Y0234523D02*
X0122175Y0234523D01*
X0122175Y0233325D02*
X0121025Y0233325D01*
X0121025Y0232126D02*
X0122175Y0232126D01*
X0122175Y0230928D02*
X0121025Y0230928D01*
X0121025Y0227332D02*
X0122175Y0227332D01*
X0122175Y0226134D02*
X0121025Y0226134D01*
X0121025Y0224935D02*
X0122175Y0224935D01*
X0122175Y0223737D02*
X0121025Y0223737D01*
X0121025Y0222538D02*
X0122175Y0222538D01*
X0122175Y0221339D02*
X0121025Y0221339D01*
X0118711Y0221339D02*
X0104244Y0221339D01*
X0105528Y0222538D02*
X0117472Y0222538D01*
X0116809Y0223737D02*
X0106169Y0223737D01*
X0106525Y0224935D02*
X0116512Y0224935D01*
X0116475Y0226134D02*
X0106525Y0226134D01*
X0106525Y0227332D02*
X0116475Y0227332D01*
X0126372Y0234523D02*
X0139400Y0234523D01*
X0139400Y0233325D02*
X0126678Y0233325D01*
X0126725Y0232126D02*
X0139400Y0232126D01*
X0139400Y0230928D02*
X0126725Y0230928D01*
X0126725Y0229729D02*
X0139400Y0229729D01*
X0139400Y0235722D02*
X0125685Y0235722D01*
X0124407Y0236920D02*
X0139850Y0236920D01*
X0140672Y0238119D02*
X0085137Y0238119D01*
X0085137Y0236920D02*
X0099100Y0236920D01*
X0097732Y0235722D02*
X0085137Y0235722D01*
X0084980Y0234523D02*
X0097055Y0234523D01*
X0096675Y0233325D02*
X0084484Y0233325D01*
X0083987Y0232126D02*
X0096675Y0232126D01*
X0096675Y0230928D02*
X0083001Y0230928D01*
X0081802Y0229729D02*
X0096675Y0229729D01*
X0096675Y0228531D02*
X0079427Y0228531D01*
X0073773Y0228531D02*
X0052175Y0228531D01*
X0052175Y0228525D02*
X0052175Y0229675D01*
X0051025Y0229675D01*
X0051025Y0237723D01*
X0050400Y0237624D01*
X0049633Y0237375D01*
X0048914Y0237008D01*
X0048261Y0236534D01*
X0047691Y0235964D01*
X0047217Y0235311D01*
X0046850Y0234592D01*
X0046601Y0233825D01*
X0046475Y0233028D01*
X0046475Y0229675D01*
X0051025Y0229675D01*
X0051025Y0228525D01*
X0046475Y0228525D01*
X0046475Y0225172D01*
X0046601Y0224375D01*
X0046850Y0223608D01*
X0047217Y0222889D01*
X0047691Y0222236D01*
X0048261Y0221666D01*
X0048914Y0221192D01*
X0049633Y0220825D01*
X0050400Y0220576D01*
X0051025Y0220477D01*
X0051025Y0228525D01*
X0052175Y0228525D01*
X0056725Y0228525D01*
X0056725Y0225172D01*
X0056599Y0224375D01*
X0056350Y0223608D01*
X0055983Y0222889D01*
X0055509Y0222236D01*
X0054939Y0221666D01*
X0054286Y0221192D01*
X0053567Y0220825D01*
X0052800Y0220576D01*
X0052175Y0220477D01*
X0052175Y0228525D01*
X0052175Y0229675D02*
X0056725Y0229675D01*
X0056725Y0233028D01*
X0056599Y0233825D01*
X0056350Y0234592D01*
X0055983Y0235311D01*
X0055509Y0235964D01*
X0054939Y0236534D01*
X0054286Y0237008D01*
X0053567Y0237375D01*
X0052800Y0237624D01*
X0052175Y0237723D01*
X0052175Y0229675D01*
X0052175Y0229729D02*
X0051025Y0229729D01*
X0051025Y0228531D02*
X0036525Y0228531D01*
X0036525Y0229729D02*
X0046475Y0229729D01*
X0046475Y0230928D02*
X0036525Y0230928D01*
X0036525Y0232126D02*
X0046475Y0232126D01*
X0046522Y0233325D02*
X0036525Y0233325D01*
X0036145Y0234523D02*
X0046828Y0234523D01*
X0047515Y0235722D02*
X0035468Y0235722D01*
X0034100Y0236920D02*
X0048793Y0236920D01*
X0051025Y0236920D02*
X0052175Y0236920D01*
X0052175Y0235722D02*
X0051025Y0235722D01*
X0051025Y0234523D02*
X0052175Y0234523D01*
X0052175Y0233325D02*
X0051025Y0233325D01*
X0051025Y0232126D02*
X0052175Y0232126D01*
X0052175Y0230928D02*
X0051025Y0230928D01*
X0051025Y0227332D02*
X0052175Y0227332D01*
X0052175Y0226134D02*
X0051025Y0226134D01*
X0051025Y0224935D02*
X0052175Y0224935D01*
X0052175Y0223737D02*
X0051025Y0223737D01*
X0051025Y0222538D02*
X0052175Y0222538D01*
X0052175Y0221339D02*
X0051025Y0221339D01*
X0048711Y0221339D02*
X0034244Y0221339D01*
X0035528Y0222538D02*
X0047472Y0222538D01*
X0046809Y0223737D02*
X0036169Y0223737D01*
X0036525Y0224935D02*
X0046512Y0224935D01*
X0046475Y0226134D02*
X0036525Y0226134D01*
X0036525Y0227332D02*
X0046475Y0227332D01*
X0054489Y0221339D02*
X0098956Y0221339D01*
X0097672Y0222538D02*
X0055728Y0222538D01*
X0056391Y0223737D02*
X0097031Y0223737D01*
X0096675Y0224935D02*
X0056687Y0224935D01*
X0056725Y0226134D02*
X0096675Y0226134D01*
X0096675Y0227332D02*
X0056725Y0227332D01*
X0056725Y0229729D02*
X0071398Y0229729D01*
X0070199Y0230928D02*
X0056725Y0230928D01*
X0056725Y0232126D02*
X0069213Y0232126D01*
X0068716Y0233325D02*
X0056678Y0233325D01*
X0056372Y0234523D02*
X0068220Y0234523D01*
X0068063Y0235722D02*
X0055685Y0235722D01*
X0054407Y0236920D02*
X0068063Y0236920D01*
X0080775Y0244111D02*
X0156100Y0244111D01*
X0156100Y0242913D02*
X0082360Y0242913D01*
X0083559Y0241714D02*
X0156100Y0241714D01*
X0156100Y0240516D02*
X0084218Y0240516D01*
X0084715Y0239317D02*
X0142482Y0239317D01*
X0145718Y0239317D02*
X0156100Y0239317D01*
X0155672Y0238119D02*
X0147528Y0238119D01*
X0148350Y0236920D02*
X0154850Y0236920D01*
X0154400Y0235722D02*
X0148800Y0235722D01*
X0148800Y0234523D02*
X0154400Y0234523D01*
X0154400Y0233325D02*
X0148800Y0233325D01*
X0148800Y0232126D02*
X0154400Y0232126D01*
X0154400Y0230928D02*
X0148800Y0230928D01*
X0148800Y0229729D02*
X0154400Y0229729D01*
X0154400Y0228531D02*
X0148800Y0228531D01*
X0148786Y0227332D02*
X0154414Y0227332D01*
X0154910Y0226134D02*
X0148290Y0226134D01*
X0147382Y0224935D02*
X0155818Y0224935D01*
X0157836Y0223737D02*
X0146300Y0223737D01*
X0146300Y0222538D02*
X0171900Y0222538D01*
X0171900Y0223737D02*
X0160364Y0223737D01*
X0162382Y0224935D02*
X0170818Y0224935D01*
X0171438Y0224316D02*
X0171900Y0224124D01*
X0171900Y0218189D01*
X0176900Y0213189D01*
X0176900Y0135011D01*
X0173189Y0131300D01*
X0162511Y0131300D01*
X0161300Y0132511D01*
X0161300Y0134297D01*
X0161799Y0134796D01*
X0162284Y0135967D01*
X0162284Y0137233D01*
X0161799Y0138404D01*
X0160904Y0139299D01*
X0159733Y0139784D01*
X0158467Y0139784D01*
X0157296Y0139299D01*
X0156401Y0138404D01*
X0155916Y0137233D01*
X0155916Y0135967D01*
X0156401Y0134796D01*
X0156900Y0134297D01*
X0156900Y0130689D01*
X0158189Y0129400D01*
X0160689Y0126900D01*
X0175011Y0126900D01*
X0176300Y0128189D01*
X0181300Y0133189D01*
X0181300Y0215011D01*
X0180011Y0216300D01*
X0176300Y0220011D01*
X0176300Y0224124D01*
X0176762Y0224316D01*
X0178084Y0225638D01*
X0178800Y0227365D01*
X0178800Y0235835D01*
X0178084Y0237562D01*
X0176762Y0238884D01*
X0175035Y0239600D01*
X0173165Y0239600D01*
X0171438Y0238884D01*
X0170116Y0237562D01*
X0169400Y0235835D01*
X0169400Y0227365D01*
X0170116Y0225638D01*
X0171438Y0224316D01*
X0169910Y0226134D02*
X0163290Y0226134D01*
X0163786Y0227332D02*
X0169414Y0227332D01*
X0169400Y0228531D02*
X0163800Y0228531D01*
X0163800Y0229729D02*
X0169400Y0229729D01*
X0169400Y0230928D02*
X0163800Y0230928D01*
X0163800Y0232126D02*
X0169400Y0232126D01*
X0169400Y0233325D02*
X0163800Y0233325D01*
X0163800Y0234523D02*
X0169400Y0234523D01*
X0169400Y0235722D02*
X0163800Y0235722D01*
X0163350Y0236920D02*
X0169850Y0236920D01*
X0170672Y0238119D02*
X0162528Y0238119D01*
X0162100Y0239317D02*
X0172482Y0239317D01*
X0175718Y0239317D02*
X0186500Y0239317D01*
X0186500Y0240516D02*
X0162100Y0240516D01*
X0162100Y0241714D02*
X0186500Y0241714D01*
X0186500Y0242913D02*
X0162100Y0242913D01*
X0177528Y0238119D02*
X0186833Y0238119D01*
X0188032Y0236920D02*
X0178350Y0236920D01*
X0178800Y0235722D02*
X0189230Y0235722D01*
X0190429Y0234523D02*
X0178800Y0234523D01*
X0178800Y0233325D02*
X0191100Y0233325D01*
X0191100Y0232126D02*
X0178800Y0232126D01*
X0178800Y0230928D02*
X0191100Y0230928D01*
X0191100Y0229729D02*
X0178800Y0229729D01*
X0178800Y0228531D02*
X0191100Y0228531D01*
X0191100Y0227332D02*
X0178786Y0227332D01*
X0178290Y0226134D02*
X0191100Y0226134D01*
X0191100Y0224935D02*
X0177382Y0224935D01*
X0176300Y0223737D02*
X0191100Y0223737D01*
X0191100Y0222538D02*
X0176300Y0222538D01*
X0176300Y0221339D02*
X0191100Y0221339D01*
X0191100Y0220141D02*
X0176300Y0220141D01*
X0177369Y0218942D02*
X0191100Y0218942D01*
X0191100Y0217744D02*
X0178567Y0217744D01*
X0179766Y0216545D02*
X0191100Y0216545D01*
X0191100Y0215347D02*
X0180964Y0215347D01*
X0181300Y0214148D02*
X0191100Y0214148D01*
X0191100Y0212950D02*
X0181300Y0212950D01*
X0181300Y0211751D02*
X0191100Y0211751D01*
X0191100Y0210553D02*
X0181300Y0210553D01*
X0181300Y0209354D02*
X0191100Y0209354D01*
X0191100Y0208156D02*
X0181300Y0208156D01*
X0181300Y0206957D02*
X0191100Y0206957D01*
X0191100Y0205759D02*
X0181300Y0205759D01*
X0181300Y0204560D02*
X0191100Y0204560D01*
X0191100Y0203362D02*
X0181300Y0203362D01*
X0181300Y0202163D02*
X0191100Y0202163D01*
X0191100Y0200965D02*
X0181300Y0200965D01*
X0181300Y0199766D02*
X0191100Y0199766D01*
X0191100Y0198568D02*
X0181300Y0198568D01*
X0181300Y0197369D02*
X0191100Y0197369D01*
X0191100Y0196171D02*
X0181300Y0196171D01*
X0181300Y0194972D02*
X0191100Y0194972D01*
X0191100Y0193774D02*
X0181300Y0193774D01*
X0181300Y0192575D02*
X0191100Y0192575D01*
X0191100Y0191377D02*
X0181300Y0191377D01*
X0181300Y0190178D02*
X0191100Y0190178D01*
X0191100Y0188980D02*
X0181300Y0188980D01*
X0181300Y0187781D02*
X0191100Y0187781D01*
X0191100Y0186583D02*
X0181300Y0186583D01*
X0181300Y0185384D02*
X0191100Y0185384D01*
X0191100Y0184186D02*
X0181300Y0184186D01*
X0181300Y0182987D02*
X0191100Y0182987D01*
X0191100Y0181789D02*
X0181300Y0181789D01*
X0181300Y0180590D02*
X0191100Y0180590D01*
X0191100Y0179392D02*
X0181300Y0179392D01*
X0181300Y0178193D02*
X0191100Y0178193D01*
X0191100Y0176995D02*
X0181300Y0176995D01*
X0181300Y0175796D02*
X0191100Y0175796D01*
X0191100Y0174598D02*
X0181300Y0174598D01*
X0181300Y0173399D02*
X0191100Y0173399D01*
X0191100Y0172201D02*
X0181300Y0172201D01*
X0181300Y0171002D02*
X0191100Y0171002D01*
X0191100Y0169803D02*
X0181300Y0169803D01*
X0181300Y0168605D02*
X0191100Y0168605D01*
X0191100Y0167406D02*
X0181300Y0167406D01*
X0181300Y0166208D02*
X0191100Y0166208D01*
X0191100Y0165009D02*
X0181300Y0165009D01*
X0181300Y0163811D02*
X0191100Y0163811D01*
X0191100Y0162612D02*
X0181300Y0162612D01*
X0181300Y0161414D02*
X0191100Y0161414D01*
X0191100Y0160215D02*
X0181300Y0160215D01*
X0181300Y0159017D02*
X0191100Y0159017D01*
X0191100Y0157818D02*
X0181300Y0157818D01*
X0181300Y0156620D02*
X0191100Y0156620D01*
X0191100Y0155421D02*
X0181300Y0155421D01*
X0181300Y0154223D02*
X0191100Y0154223D01*
X0191100Y0153024D02*
X0181300Y0153024D01*
X0181300Y0151826D02*
X0191100Y0151826D01*
X0191100Y0150627D02*
X0181300Y0150627D01*
X0181300Y0149429D02*
X0191100Y0149429D01*
X0191100Y0148230D02*
X0181300Y0148230D01*
X0181300Y0147032D02*
X0191100Y0147032D01*
X0191100Y0145833D02*
X0181300Y0145833D01*
X0181300Y0144635D02*
X0191100Y0144635D01*
X0191100Y0143436D02*
X0181300Y0143436D01*
X0181300Y0142238D02*
X0191100Y0142238D01*
X0191100Y0141039D02*
X0181300Y0141039D01*
X0181300Y0139841D02*
X0191100Y0139841D01*
X0191100Y0138642D02*
X0181300Y0138642D01*
X0181300Y0137444D02*
X0191100Y0137444D01*
X0191100Y0136245D02*
X0181300Y0136245D01*
X0181300Y0135047D02*
X0191100Y0135047D01*
X0191100Y0133848D02*
X0181300Y0133848D01*
X0180761Y0132650D02*
X0191100Y0132650D01*
X0191100Y0131451D02*
X0179562Y0131451D01*
X0178364Y0130253D02*
X0191100Y0130253D01*
X0191100Y0129054D02*
X0177165Y0129054D01*
X0175967Y0127856D02*
X0191100Y0127856D01*
X0191100Y0126657D02*
X0147539Y0126657D01*
X0148310Y0125502D02*
X0143800Y0132266D01*
X0143800Y0132511D01*
X0143310Y0133002D01*
X0142925Y0133579D01*
X0142685Y0133627D01*
X0142511Y0133800D01*
X0141818Y0133800D01*
X0141138Y0133936D01*
X0140934Y0133800D01*
X0070689Y0133800D01*
X0065689Y0128800D01*
X0064400Y0127511D01*
X0064400Y0119182D01*
X0063734Y0118515D01*
X0063219Y0117273D01*
X0063219Y0115927D01*
X0063734Y0114685D01*
X0064685Y0113734D01*
X0065927Y0113219D01*
X0067273Y0113219D01*
X0068515Y0113734D01*
X0069466Y0114685D01*
X0069981Y0115927D01*
X0069981Y0117273D01*
X0069466Y0118515D01*
X0068800Y0119182D01*
X0068800Y0125689D01*
X0072511Y0129400D01*
X0140423Y0129400D01*
X0144400Y0123434D01*
X0144400Y0052511D01*
X0142156Y0050267D01*
X0142092Y0050330D01*
X0140475Y0051000D01*
X0132725Y0051000D01*
X0131108Y0050330D01*
X0129870Y0049092D01*
X0129200Y0047475D01*
X0129200Y0045725D01*
X0129870Y0044108D01*
X0131108Y0042870D01*
X0132725Y0042200D01*
X0140475Y0042200D01*
X0142092Y0042870D01*
X0143330Y0044108D01*
X0144000Y0045725D01*
X0144000Y0045889D01*
X0147511Y0049400D01*
X0148800Y0050689D01*
X0148800Y0123882D01*
X0148936Y0124562D01*
X0148800Y0124766D01*
X0148800Y0125011D01*
X0148310Y0125502D01*
X0148353Y0125459D02*
X0191100Y0125459D01*
X0191100Y0124260D02*
X0148876Y0124260D01*
X0148800Y0123062D02*
X0191100Y0123062D01*
X0191100Y0121863D02*
X0148800Y0121863D01*
X0148800Y0120665D02*
X0191100Y0120665D01*
X0191100Y0119466D02*
X0148800Y0119466D01*
X0148800Y0118268D02*
X0191100Y0118268D01*
X0191100Y0117069D02*
X0148800Y0117069D01*
X0148800Y0115870D02*
X0191100Y0115870D01*
X0191100Y0114672D02*
X0148800Y0114672D01*
X0148800Y0113473D02*
X0191100Y0113473D01*
X0191100Y0112275D02*
X0148800Y0112275D01*
X0148800Y0111076D02*
X0191100Y0111076D01*
X0191100Y0109878D02*
X0148800Y0109878D01*
X0148800Y0108679D02*
X0191100Y0108679D01*
X0191100Y0107481D02*
X0148800Y0107481D01*
X0148800Y0106282D02*
X0191100Y0106282D01*
X0191100Y0105084D02*
X0148800Y0105084D01*
X0148800Y0103885D02*
X0191100Y0103885D01*
X0191100Y0102687D02*
X0148800Y0102687D01*
X0148800Y0101488D02*
X0191100Y0101488D01*
X0191100Y0100290D02*
X0148800Y0100290D01*
X0148800Y0099091D02*
X0191100Y0099091D01*
X0191100Y0097893D02*
X0148800Y0097893D01*
X0148800Y0096694D02*
X0191100Y0096694D01*
X0191100Y0095496D02*
X0148800Y0095496D01*
X0148800Y0094297D02*
X0191100Y0094297D01*
X0191100Y0093099D02*
X0148800Y0093099D01*
X0148800Y0091900D02*
X0191100Y0091900D01*
X0191100Y0090702D02*
X0148800Y0090702D01*
X0148800Y0089503D02*
X0191100Y0089503D01*
X0191100Y0088305D02*
X0148800Y0088305D01*
X0148800Y0087106D02*
X0191100Y0087106D01*
X0191100Y0085908D02*
X0148800Y0085908D01*
X0148800Y0084709D02*
X0191100Y0084709D01*
X0191100Y0083511D02*
X0148800Y0083511D01*
X0148800Y0082312D02*
X0190570Y0082312D01*
X0189371Y0081114D02*
X0148800Y0081114D01*
X0148800Y0079915D02*
X0188173Y0079915D01*
X0186974Y0078717D02*
X0148800Y0078717D01*
X0148800Y0077518D02*
X0185775Y0077518D01*
X0184577Y0076320D02*
X0148800Y0076320D01*
X0148800Y0075121D02*
X0183378Y0075121D01*
X0182180Y0073923D02*
X0148800Y0073923D01*
X0148800Y0072724D02*
X0180981Y0072724D01*
X0179783Y0071526D02*
X0148800Y0071526D01*
X0148800Y0070327D02*
X0178861Y0070327D01*
X0178600Y0069129D02*
X0148800Y0069129D01*
X0148800Y0067930D02*
X0178600Y0067930D01*
X0178600Y0066732D02*
X0148800Y0066732D01*
X0148800Y0065533D02*
X0178600Y0065533D01*
X0178600Y0064334D02*
X0148800Y0064334D01*
X0148800Y0063136D02*
X0178600Y0063136D01*
X0178600Y0061937D02*
X0148800Y0061937D01*
X0148800Y0060739D02*
X0178600Y0060739D01*
X0178600Y0059540D02*
X0148800Y0059540D01*
X0148800Y0058342D02*
X0158759Y0058342D01*
X0158138Y0058084D02*
X0156816Y0056762D01*
X0156100Y0055035D01*
X0156100Y0053165D01*
X0156816Y0051438D01*
X0158138Y0050116D01*
X0159865Y0049400D01*
X0168335Y0049400D01*
X0170062Y0050116D01*
X0171384Y0051438D01*
X0172100Y0053165D01*
X0172100Y0055035D01*
X0171384Y0056762D01*
X0170062Y0058084D01*
X0168335Y0058800D01*
X0159865Y0058800D01*
X0158138Y0058084D01*
X0157197Y0057143D02*
X0148800Y0057143D01*
X0148800Y0055945D02*
X0156477Y0055945D01*
X0156100Y0054746D02*
X0148800Y0054746D01*
X0148800Y0053548D02*
X0156100Y0053548D01*
X0156438Y0052349D02*
X0148800Y0052349D01*
X0148800Y0051151D02*
X0157102Y0051151D01*
X0158532Y0049952D02*
X0148064Y0049952D01*
X0146865Y0048754D02*
X0178600Y0048754D01*
X0178600Y0049952D02*
X0169668Y0049952D01*
X0171098Y0051151D02*
X0178600Y0051151D01*
X0178600Y0052349D02*
X0171762Y0052349D01*
X0172100Y0053548D02*
X0178600Y0053548D01*
X0178600Y0054746D02*
X0172100Y0054746D01*
X0171723Y0055945D02*
X0178600Y0055945D01*
X0178600Y0057143D02*
X0171003Y0057143D01*
X0169441Y0058342D02*
X0178600Y0058342D01*
X0178600Y0047555D02*
X0145667Y0047555D01*
X0144468Y0046357D02*
X0178600Y0046357D01*
X0178600Y0045158D02*
X0143765Y0045158D01*
X0143182Y0043960D02*
X0178600Y0043960D01*
X0178600Y0042761D02*
X0170385Y0042761D01*
X0170062Y0043084D02*
X0168335Y0043800D01*
X0159865Y0043800D01*
X0158138Y0043084D01*
X0156816Y0041762D01*
X0156624Y0041300D01*
X0153189Y0041300D01*
X0130689Y0018800D01*
X0095011Y0018800D01*
X0093800Y0020011D01*
X0093800Y0021155D01*
X0094390Y0021400D01*
X0095775Y0022785D01*
X0096525Y0024595D01*
X0096525Y0033605D01*
X0095775Y0035415D01*
X0094390Y0036800D01*
X0092580Y0037550D01*
X0090620Y0037550D01*
X0088810Y0036800D01*
X0087425Y0035415D01*
X0086675Y0033605D01*
X0086675Y0024595D01*
X0087425Y0022785D01*
X0088810Y0021400D01*
X0089400Y0021155D01*
X0089400Y0018189D01*
X0090689Y0016900D01*
X0093189Y0014400D01*
X0132511Y0014400D01*
X0133800Y0015689D01*
X0155011Y0036900D01*
X0156624Y0036900D01*
X0156816Y0036438D01*
X0158138Y0035116D01*
X0159865Y0034400D01*
X0168335Y0034400D01*
X0170062Y0035116D01*
X0171384Y0036438D01*
X0172100Y0038165D01*
X0172100Y0040035D01*
X0171384Y0041762D01*
X0170062Y0043084D01*
X0171467Y0041563D02*
X0178600Y0041563D01*
X0178600Y0040364D02*
X0171964Y0040364D01*
X0172100Y0039166D02*
X0178600Y0039166D01*
X0178600Y0037967D02*
X0172018Y0037967D01*
X0171522Y0036769D02*
X0178600Y0036769D01*
X0178600Y0035570D02*
X0170517Y0035570D01*
X0168335Y0028800D02*
X0170062Y0028084D01*
X0171384Y0026762D01*
X0172100Y0025035D01*
X0172100Y0023165D01*
X0171384Y0021438D01*
X0170062Y0020116D01*
X0168335Y0019400D01*
X0159865Y0019400D01*
X0158138Y0020116D01*
X0156816Y0021438D01*
X0156100Y0023165D01*
X0156100Y0025035D01*
X0156816Y0026762D01*
X0158138Y0028084D01*
X0159865Y0028800D01*
X0168335Y0028800D01*
X0169351Y0028379D02*
X0180578Y0028379D01*
X0179380Y0029578D02*
X0147689Y0029578D01*
X0148887Y0030776D02*
X0178694Y0030776D01*
X0178600Y0031975D02*
X0150086Y0031975D01*
X0151284Y0033173D02*
X0178600Y0033173D01*
X0178600Y0034372D02*
X0152483Y0034372D01*
X0153681Y0035570D02*
X0157683Y0035570D01*
X0156678Y0036769D02*
X0154880Y0036769D01*
X0152253Y0040364D02*
X0142245Y0040364D01*
X0142011Y0040534D02*
X0141366Y0040863D01*
X0140677Y0041087D01*
X0139962Y0041200D01*
X0137000Y0041200D01*
X0137000Y0037000D01*
X0136200Y0037000D01*
X0136200Y0041200D01*
X0133238Y0041200D01*
X0132523Y0041087D01*
X0131834Y0040863D01*
X0131189Y0040534D01*
X0130603Y0040109D01*
X0130091Y0039597D01*
X0129666Y0039011D01*
X0129337Y0038366D01*
X0129113Y0037677D01*
X0129006Y0037000D01*
X0136200Y0037000D01*
X0136200Y0036200D01*
X0137000Y0036200D01*
X0137000Y0037000D01*
X0144194Y0037000D01*
X0144087Y0037677D01*
X0143863Y0038366D01*
X0143534Y0039011D01*
X0143109Y0039597D01*
X0142597Y0040109D01*
X0142011Y0040534D01*
X0143422Y0039166D02*
X0151054Y0039166D01*
X0149856Y0037967D02*
X0143992Y0037967D01*
X0144194Y0036200D02*
X0137000Y0036200D01*
X0137000Y0032000D01*
X0139962Y0032000D01*
X0140677Y0032113D01*
X0141366Y0032337D01*
X0142011Y0032666D01*
X0142597Y0033091D01*
X0143109Y0033603D01*
X0143534Y0034189D01*
X0143863Y0034834D01*
X0144087Y0035523D01*
X0144194Y0036200D01*
X0144094Y0035570D02*
X0147459Y0035570D01*
X0146260Y0034372D02*
X0143627Y0034372D01*
X0142679Y0033173D02*
X0145062Y0033173D01*
X0143863Y0031975D02*
X0116725Y0031975D01*
X0116725Y0033028D02*
X0116599Y0033825D01*
X0116350Y0034592D01*
X0115983Y0035311D01*
X0115509Y0035964D01*
X0114939Y0036534D01*
X0114286Y0037008D01*
X0113567Y0037375D01*
X0112800Y0037624D01*
X0112175Y0037723D01*
X0112175Y0029675D01*
X0116725Y0029675D01*
X0116725Y0033028D01*
X0116702Y0033173D02*
X0130521Y0033173D01*
X0130603Y0033091D02*
X0131189Y0032666D01*
X0131834Y0032337D01*
X0132523Y0032113D01*
X0133238Y0032000D01*
X0136200Y0032000D01*
X0136200Y0036200D01*
X0129006Y0036200D01*
X0129113Y0035523D01*
X0129337Y0034834D01*
X0129666Y0034189D01*
X0130091Y0033603D01*
X0130603Y0033091D01*
X0129573Y0034372D02*
X0116421Y0034372D01*
X0115795Y0035570D02*
X0129106Y0035570D01*
X0129208Y0037967D02*
X0031300Y0037967D01*
X0031300Y0036769D02*
X0088779Y0036769D01*
X0087580Y0035570D02*
X0031300Y0035570D01*
X0031940Y0034372D02*
X0086993Y0034372D01*
X0086675Y0033173D02*
X0033138Y0033173D01*
X0034337Y0031975D02*
X0086675Y0031975D01*
X0086675Y0030776D02*
X0035535Y0030776D01*
X0036734Y0029578D02*
X0086675Y0029578D01*
X0086675Y0028379D02*
X0037932Y0028379D01*
X0035305Y0024784D02*
X0025490Y0024784D01*
X0026483Y0023585D02*
X0036504Y0023585D01*
X0037600Y0022387D02*
X0026979Y0022387D01*
X0027475Y0021188D02*
X0037600Y0021188D01*
X0037600Y0019990D02*
X0027637Y0019990D01*
X0027637Y0018791D02*
X0037600Y0018791D01*
X0037853Y0017593D02*
X0027637Y0017593D01*
X0027220Y0016394D02*
X0038549Y0016394D01*
X0040332Y0015196D02*
X0026723Y0015196D01*
X0024291Y0025982D02*
X0034107Y0025982D01*
X0032908Y0027181D02*
X0021900Y0027181D01*
X0016300Y0027181D02*
X0016200Y0027181D01*
X0016200Y0028379D02*
X0031710Y0028379D01*
X0030511Y0029578D02*
X0016200Y0029578D01*
X0016200Y0030776D02*
X0029313Y0030776D01*
X0028114Y0031975D02*
X0016200Y0031975D01*
X0016200Y0033173D02*
X0026916Y0033173D01*
X0026900Y0034372D02*
X0016200Y0034372D01*
X0016200Y0035570D02*
X0026900Y0035570D01*
X0026900Y0036769D02*
X0016200Y0036769D01*
X0016200Y0037967D02*
X0026900Y0037967D01*
X0026900Y0039166D02*
X0016200Y0039166D01*
X0016200Y0040364D02*
X0026900Y0040364D01*
X0026900Y0041563D02*
X0016200Y0041563D01*
X0016200Y0042761D02*
X0026900Y0042761D01*
X0026900Y0043960D02*
X0016200Y0043960D01*
X0016200Y0045158D02*
X0026900Y0045158D01*
X0026900Y0046357D02*
X0016200Y0046357D01*
X0016200Y0047555D02*
X0026900Y0047555D01*
X0026900Y0048754D02*
X0016200Y0048754D01*
X0016200Y0049952D02*
X0026900Y0049952D01*
X0026900Y0051151D02*
X0016200Y0051151D01*
X0016200Y0052349D02*
X0026900Y0052349D01*
X0026900Y0053548D02*
X0016200Y0053548D01*
X0016200Y0054746D02*
X0026900Y0054746D01*
X0026900Y0055945D02*
X0016200Y0055945D01*
X0016200Y0057143D02*
X0026900Y0057143D01*
X0027731Y0058342D02*
X0016200Y0058342D01*
X0016200Y0059540D02*
X0028929Y0059540D01*
X0030128Y0060739D02*
X0016200Y0060739D01*
X0016200Y0061937D02*
X0031326Y0061937D01*
X0032525Y0063136D02*
X0016200Y0063136D01*
X0016200Y0064334D02*
X0033723Y0064334D01*
X0034922Y0065533D02*
X0016200Y0065533D01*
X0016200Y0066732D02*
X0036120Y0066732D01*
X0037319Y0067930D02*
X0016200Y0067930D01*
X0016200Y0069129D02*
X0038517Y0069129D01*
X0039716Y0070327D02*
X0016200Y0070327D01*
X0016200Y0071526D02*
X0040914Y0071526D01*
X0041900Y0072724D02*
X0016200Y0072724D01*
X0016200Y0073923D02*
X0041900Y0073923D01*
X0041900Y0075121D02*
X0016200Y0075121D01*
X0016200Y0076320D02*
X0041900Y0076320D01*
X0041900Y0077518D02*
X0016200Y0077518D01*
X0016200Y0078717D02*
X0041900Y0078717D01*
X0041900Y0079915D02*
X0016200Y0079915D01*
X0016200Y0081114D02*
X0041900Y0081114D01*
X0041900Y0082312D02*
X0016200Y0082312D01*
X0016200Y0083511D02*
X0041900Y0083511D01*
X0041900Y0084709D02*
X0016200Y0084709D01*
X0016200Y0085908D02*
X0041900Y0085908D01*
X0041900Y0087106D02*
X0016200Y0087106D01*
X0016200Y0088305D02*
X0041900Y0088305D01*
X0041900Y0089503D02*
X0016200Y0089503D01*
X0016200Y0090702D02*
X0041900Y0090702D01*
X0041900Y0091900D02*
X0016200Y0091900D01*
X0016200Y0093099D02*
X0041900Y0093099D01*
X0041900Y0094297D02*
X0016200Y0094297D01*
X0016200Y0095496D02*
X0041900Y0095496D01*
X0041900Y0096694D02*
X0016200Y0096694D01*
X0016200Y0097893D02*
X0041900Y0097893D01*
X0041900Y0099091D02*
X0016200Y0099091D01*
X0016200Y0100290D02*
X0041900Y0100290D01*
X0041900Y0101488D02*
X0016200Y0101488D01*
X0016200Y0102687D02*
X0041900Y0102687D01*
X0041900Y0103885D02*
X0016200Y0103885D01*
X0016200Y0105084D02*
X0041900Y0105084D01*
X0041900Y0106282D02*
X0016200Y0106282D01*
X0016200Y0107481D02*
X0041900Y0107481D01*
X0041900Y0108679D02*
X0016200Y0108679D01*
X0016200Y0109878D02*
X0041900Y0109878D01*
X0041900Y0111076D02*
X0016200Y0111076D01*
X0016200Y0112275D02*
X0041900Y0112275D01*
X0041900Y0113473D02*
X0016200Y0113473D01*
X0016200Y0114672D02*
X0041900Y0114672D01*
X0041900Y0115870D02*
X0016200Y0115870D01*
X0016200Y0117069D02*
X0041900Y0117069D01*
X0041900Y0118268D02*
X0016200Y0118268D01*
X0016200Y0119466D02*
X0041900Y0119466D01*
X0041900Y0120665D02*
X0016200Y0120665D01*
X0016200Y0121863D02*
X0041900Y0121863D01*
X0041900Y0123062D02*
X0016200Y0123062D01*
X0016200Y0124260D02*
X0041900Y0124260D01*
X0041900Y0125459D02*
X0016200Y0125459D01*
X0016200Y0126657D02*
X0041900Y0126657D01*
X0041900Y0127856D02*
X0016200Y0127856D01*
X0016200Y0129054D02*
X0041900Y0129054D01*
X0041900Y0130253D02*
X0016200Y0130253D01*
X0016200Y0131451D02*
X0041900Y0131451D01*
X0041900Y0132650D02*
X0016200Y0132650D01*
X0016200Y0133848D02*
X0041900Y0133848D01*
X0041900Y0135047D02*
X0016200Y0135047D01*
X0016200Y0136245D02*
X0041900Y0136245D01*
X0041900Y0137444D02*
X0016200Y0137444D01*
X0016200Y0138642D02*
X0041900Y0138642D01*
X0041900Y0139841D02*
X0016200Y0139841D01*
X0016200Y0141039D02*
X0041900Y0141039D01*
X0041900Y0142238D02*
X0016200Y0142238D01*
X0016200Y0143436D02*
X0042825Y0143436D01*
X0044023Y0144635D02*
X0016200Y0144635D01*
X0016200Y0145833D02*
X0045222Y0145833D01*
X0046421Y0147032D02*
X0016200Y0147032D01*
X0016200Y0148230D02*
X0047619Y0148230D01*
X0048818Y0149429D02*
X0016200Y0149429D01*
X0016200Y0150627D02*
X0050016Y0150627D01*
X0051215Y0151826D02*
X0016200Y0151826D01*
X0016200Y0153024D02*
X0052413Y0153024D01*
X0053842Y0148230D02*
X0176900Y0148230D01*
X0176900Y0147032D02*
X0052643Y0147032D01*
X0051445Y0145833D02*
X0176900Y0145833D01*
X0176900Y0144635D02*
X0050246Y0144635D01*
X0049048Y0143436D02*
X0176900Y0143436D01*
X0176900Y0142238D02*
X0047849Y0142238D01*
X0046650Y0141039D02*
X0176900Y0141039D01*
X0176900Y0139841D02*
X0046300Y0139841D01*
X0046300Y0138642D02*
X0156639Y0138642D01*
X0156003Y0137444D02*
X0046300Y0137444D01*
X0046300Y0136245D02*
X0155916Y0136245D01*
X0156297Y0135047D02*
X0046300Y0135047D01*
X0046300Y0133848D02*
X0141006Y0133848D01*
X0141577Y0133848D02*
X0156900Y0133848D01*
X0156900Y0132650D02*
X0143662Y0132650D01*
X0144343Y0131451D02*
X0156900Y0131451D01*
X0157336Y0130253D02*
X0145142Y0130253D01*
X0145941Y0129054D02*
X0158535Y0129054D01*
X0159733Y0127856D02*
X0146740Y0127856D01*
X0143050Y0125459D02*
X0068800Y0125459D01*
X0068800Y0124260D02*
X0119478Y0124260D01*
X0119685Y0124466D02*
X0118734Y0123515D01*
X0118219Y0122273D01*
X0118219Y0120927D01*
X0118734Y0119685D01*
X0119685Y0118734D01*
X0120927Y0118219D01*
X0122273Y0118219D01*
X0123515Y0118734D01*
X0124182Y0119400D01*
X0135689Y0119400D01*
X0139400Y0115689D01*
X0139400Y0067511D01*
X0134400Y0062511D01*
X0134400Y0061000D01*
X0132725Y0061000D01*
X0131108Y0060330D01*
X0129870Y0059092D01*
X0129200Y0057475D01*
X0129200Y0055725D01*
X0129870Y0054108D01*
X0131108Y0052870D01*
X0132725Y0052200D01*
X0140475Y0052200D01*
X0142092Y0052870D01*
X0143330Y0054108D01*
X0144000Y0055725D01*
X0144000Y0057475D01*
X0143330Y0059092D01*
X0142092Y0060330D01*
X0140475Y0061000D01*
X0139111Y0061000D01*
X0142511Y0064400D01*
X0143800Y0065689D01*
X0143800Y0117511D01*
X0138800Y0122511D01*
X0137511Y0123800D01*
X0124182Y0123800D01*
X0123515Y0124466D01*
X0122273Y0124981D01*
X0120927Y0124981D01*
X0119685Y0124466D01*
X0118546Y0123062D02*
X0068800Y0123062D01*
X0068800Y0121863D02*
X0118219Y0121863D01*
X0118328Y0120665D02*
X0117044Y0120665D01*
X0117026Y0120682D02*
X0115776Y0121200D01*
X0114424Y0121200D01*
X0113174Y0120682D01*
X0112218Y0119726D01*
X0111700Y0118476D01*
X0111700Y0117124D01*
X0112087Y0116189D01*
X0053600Y0057701D01*
X0052396Y0058200D01*
X0050804Y0058200D01*
X0049334Y0057591D01*
X0048209Y0056466D01*
X0047600Y0054996D01*
X0047600Y0048204D01*
X0048209Y0046734D01*
X0049334Y0045609D01*
X0050804Y0045000D01*
X0052396Y0045000D01*
X0053866Y0045609D01*
X0054991Y0046734D01*
X0055600Y0048204D01*
X0055600Y0051499D01*
X0117558Y0113457D01*
X0118000Y0114523D01*
X0118000Y0115677D01*
X0117937Y0115829D01*
X0117982Y0115874D01*
X0118500Y0117124D01*
X0118500Y0118476D01*
X0117982Y0119726D01*
X0117026Y0120682D01*
X0118090Y0119466D02*
X0118952Y0119466D01*
X0118500Y0118268D02*
X0120810Y0118268D01*
X0122390Y0118268D02*
X0136821Y0118268D01*
X0138020Y0117069D02*
X0118477Y0117069D01*
X0117979Y0115870D02*
X0139218Y0115870D01*
X0139400Y0114672D02*
X0118000Y0114672D01*
X0117565Y0113473D02*
X0139400Y0113473D01*
X0139400Y0112275D02*
X0116376Y0112275D01*
X0115178Y0111076D02*
X0139400Y0111076D01*
X0139400Y0109878D02*
X0113979Y0109878D01*
X0112781Y0108679D02*
X0139400Y0108679D01*
X0139400Y0107481D02*
X0111582Y0107481D01*
X0110384Y0106282D02*
X0139400Y0106282D01*
X0139400Y0105084D02*
X0109185Y0105084D01*
X0107987Y0103885D02*
X0139400Y0103885D01*
X0139400Y0102687D02*
X0106788Y0102687D01*
X0105590Y0101488D02*
X0139400Y0101488D01*
X0139400Y0100290D02*
X0104391Y0100290D01*
X0103193Y0099091D02*
X0139400Y0099091D01*
X0139400Y0097893D02*
X0101994Y0097893D01*
X0100796Y0096694D02*
X0139400Y0096694D01*
X0139400Y0095496D02*
X0099597Y0095496D01*
X0098398Y0094297D02*
X0139400Y0094297D01*
X0139400Y0093099D02*
X0097200Y0093099D01*
X0096001Y0091900D02*
X0139400Y0091900D01*
X0139400Y0090702D02*
X0094803Y0090702D01*
X0093604Y0089503D02*
X0139400Y0089503D01*
X0139400Y0088305D02*
X0092406Y0088305D01*
X0091207Y0087106D02*
X0139400Y0087106D01*
X0139400Y0085908D02*
X0090009Y0085908D01*
X0088810Y0084709D02*
X0139400Y0084709D01*
X0139400Y0083511D02*
X0087612Y0083511D01*
X0086413Y0082312D02*
X0139400Y0082312D01*
X0139400Y0081114D02*
X0085215Y0081114D01*
X0084016Y0079915D02*
X0139400Y0079915D01*
X0139400Y0078717D02*
X0082818Y0078717D01*
X0081619Y0077518D02*
X0139400Y0077518D01*
X0139400Y0076320D02*
X0080421Y0076320D01*
X0079222Y0075121D02*
X0139400Y0075121D01*
X0139400Y0073923D02*
X0078024Y0073923D01*
X0076825Y0072724D02*
X0139400Y0072724D01*
X0139400Y0071526D02*
X0075627Y0071526D01*
X0074428Y0070327D02*
X0139400Y0070327D01*
X0139400Y0069129D02*
X0073230Y0069129D01*
X0072031Y0067930D02*
X0139400Y0067930D01*
X0138620Y0066732D02*
X0070833Y0066732D01*
X0069634Y0065533D02*
X0137422Y0065533D01*
X0136223Y0064334D02*
X0068436Y0064334D01*
X0067237Y0063136D02*
X0135025Y0063136D01*
X0134400Y0061937D02*
X0066039Y0061937D01*
X0064840Y0060739D02*
X0132095Y0060739D01*
X0130318Y0059540D02*
X0063642Y0059540D01*
X0062443Y0058342D02*
X0129559Y0058342D01*
X0129200Y0057143D02*
X0061245Y0057143D01*
X0060046Y0055945D02*
X0129200Y0055945D01*
X0129605Y0054746D02*
X0058848Y0054746D01*
X0057649Y0053548D02*
X0130430Y0053548D01*
X0132364Y0052349D02*
X0056451Y0052349D01*
X0055600Y0051151D02*
X0143040Y0051151D01*
X0144238Y0052349D02*
X0140836Y0052349D01*
X0142770Y0053548D02*
X0144400Y0053548D01*
X0144400Y0054746D02*
X0143595Y0054746D01*
X0144000Y0055945D02*
X0144400Y0055945D01*
X0144400Y0057143D02*
X0144000Y0057143D01*
X0143641Y0058342D02*
X0144400Y0058342D01*
X0144400Y0059540D02*
X0142882Y0059540D01*
X0144400Y0060739D02*
X0141105Y0060739D01*
X0140049Y0061937D02*
X0144400Y0061937D01*
X0144400Y0063136D02*
X0141247Y0063136D01*
X0142446Y0064334D02*
X0144400Y0064334D01*
X0144400Y0065533D02*
X0143644Y0065533D01*
X0143800Y0066732D02*
X0144400Y0066732D01*
X0144400Y0067930D02*
X0143800Y0067930D01*
X0143800Y0069129D02*
X0144400Y0069129D01*
X0144400Y0070327D02*
X0143800Y0070327D01*
X0143800Y0071526D02*
X0144400Y0071526D01*
X0144400Y0072724D02*
X0143800Y0072724D01*
X0143800Y0073923D02*
X0144400Y0073923D01*
X0144400Y0075121D02*
X0143800Y0075121D01*
X0143800Y0076320D02*
X0144400Y0076320D01*
X0144400Y0077518D02*
X0143800Y0077518D01*
X0143800Y0078717D02*
X0144400Y0078717D01*
X0144400Y0079915D02*
X0143800Y0079915D01*
X0143800Y0081114D02*
X0144400Y0081114D01*
X0144400Y0082312D02*
X0143800Y0082312D01*
X0143800Y0083511D02*
X0144400Y0083511D01*
X0144400Y0084709D02*
X0143800Y0084709D01*
X0143800Y0085908D02*
X0144400Y0085908D01*
X0144400Y0087106D02*
X0143800Y0087106D01*
X0143800Y0088305D02*
X0144400Y0088305D01*
X0144400Y0089503D02*
X0143800Y0089503D01*
X0143800Y0090702D02*
X0144400Y0090702D01*
X0144400Y0091900D02*
X0143800Y0091900D01*
X0143800Y0093099D02*
X0144400Y0093099D01*
X0144400Y0094297D02*
X0143800Y0094297D01*
X0143800Y0095496D02*
X0144400Y0095496D01*
X0144400Y0096694D02*
X0143800Y0096694D01*
X0143800Y0097893D02*
X0144400Y0097893D01*
X0144400Y0099091D02*
X0143800Y0099091D01*
X0143800Y0100290D02*
X0144400Y0100290D01*
X0144400Y0101488D02*
X0143800Y0101488D01*
X0143800Y0102687D02*
X0144400Y0102687D01*
X0144400Y0103885D02*
X0143800Y0103885D01*
X0143800Y0105084D02*
X0144400Y0105084D01*
X0144400Y0106282D02*
X0143800Y0106282D01*
X0143800Y0107481D02*
X0144400Y0107481D01*
X0144400Y0108679D02*
X0143800Y0108679D01*
X0143800Y0109878D02*
X0144400Y0109878D01*
X0144400Y0111076D02*
X0143800Y0111076D01*
X0143800Y0112275D02*
X0144400Y0112275D01*
X0144400Y0113473D02*
X0143800Y0113473D01*
X0143800Y0114672D02*
X0144400Y0114672D01*
X0144400Y0115870D02*
X0143800Y0115870D01*
X0143800Y0117069D02*
X0144400Y0117069D01*
X0144400Y0118268D02*
X0143044Y0118268D01*
X0141845Y0119466D02*
X0144400Y0119466D01*
X0144400Y0120665D02*
X0140647Y0120665D01*
X0139448Y0121863D02*
X0144400Y0121863D01*
X0144400Y0123062D02*
X0138250Y0123062D01*
X0142251Y0126657D02*
X0069768Y0126657D01*
X0070967Y0127856D02*
X0141452Y0127856D01*
X0140653Y0129054D02*
X0072165Y0129054D01*
X0068340Y0131451D02*
X0046300Y0131451D01*
X0046300Y0130253D02*
X0067141Y0130253D01*
X0065943Y0129054D02*
X0046300Y0129054D01*
X0046300Y0127856D02*
X0064744Y0127856D01*
X0064400Y0126657D02*
X0046300Y0126657D01*
X0046300Y0125459D02*
X0064400Y0125459D01*
X0064400Y0124260D02*
X0046300Y0124260D01*
X0046300Y0123062D02*
X0064400Y0123062D01*
X0064400Y0121863D02*
X0046300Y0121863D01*
X0046300Y0120665D02*
X0064400Y0120665D01*
X0064400Y0119466D02*
X0046300Y0119466D01*
X0046300Y0118268D02*
X0063631Y0118268D01*
X0063219Y0117069D02*
X0046300Y0117069D01*
X0046300Y0115870D02*
X0063242Y0115870D01*
X0063746Y0114672D02*
X0046300Y0114672D01*
X0046300Y0113473D02*
X0065313Y0113473D01*
X0067887Y0113473D02*
X0109372Y0113473D01*
X0108174Y0112275D02*
X0046300Y0112275D01*
X0046300Y0111076D02*
X0106975Y0111076D01*
X0105777Y0109878D02*
X0046300Y0109878D01*
X0046300Y0108679D02*
X0104578Y0108679D01*
X0103380Y0107481D02*
X0046300Y0107481D01*
X0046300Y0106282D02*
X0102181Y0106282D01*
X0100983Y0105084D02*
X0046300Y0105084D01*
X0046300Y0103885D02*
X0099784Y0103885D01*
X0098586Y0102687D02*
X0046300Y0102687D01*
X0046300Y0101488D02*
X0097387Y0101488D01*
X0096189Y0100290D02*
X0046300Y0100290D01*
X0046300Y0099091D02*
X0094990Y0099091D01*
X0093792Y0097893D02*
X0046300Y0097893D01*
X0046300Y0096694D02*
X0092593Y0096694D01*
X0091395Y0095496D02*
X0046300Y0095496D01*
X0046300Y0094297D02*
X0090196Y0094297D01*
X0088998Y0093099D02*
X0046300Y0093099D01*
X0046300Y0091900D02*
X0087799Y0091900D01*
X0086601Y0090702D02*
X0046300Y0090702D01*
X0046300Y0089503D02*
X0085402Y0089503D01*
X0084204Y0088305D02*
X0046300Y0088305D01*
X0046300Y0087106D02*
X0083005Y0087106D01*
X0081806Y0085908D02*
X0046300Y0085908D01*
X0046300Y0084709D02*
X0080608Y0084709D01*
X0079409Y0083511D02*
X0046300Y0083511D01*
X0046300Y0082312D02*
X0078211Y0082312D01*
X0077012Y0081114D02*
X0046300Y0081114D01*
X0046300Y0079915D02*
X0075814Y0079915D01*
X0074615Y0078717D02*
X0046300Y0078717D01*
X0046300Y0077518D02*
X0073417Y0077518D01*
X0072218Y0076320D02*
X0046300Y0076320D01*
X0046300Y0075121D02*
X0071020Y0075121D01*
X0069821Y0073923D02*
X0046300Y0073923D01*
X0046300Y0072724D02*
X0068623Y0072724D01*
X0067424Y0071526D02*
X0046300Y0071526D01*
X0045938Y0070327D02*
X0066226Y0070327D01*
X0065027Y0069129D02*
X0044740Y0069129D01*
X0043541Y0067930D02*
X0063829Y0067930D01*
X0062630Y0066732D02*
X0042343Y0066732D01*
X0041144Y0065533D02*
X0061432Y0065533D01*
X0060233Y0064334D02*
X0039946Y0064334D01*
X0038747Y0063136D02*
X0059035Y0063136D01*
X0057836Y0061937D02*
X0037549Y0061937D01*
X0036350Y0060739D02*
X0056638Y0060739D01*
X0055439Y0059540D02*
X0035152Y0059540D01*
X0033953Y0058342D02*
X0054241Y0058342D01*
X0048887Y0057143D02*
X0044313Y0057143D01*
X0043866Y0057591D02*
X0044991Y0056466D01*
X0045600Y0054996D01*
X0045600Y0048204D01*
X0044991Y0046734D01*
X0043866Y0045609D01*
X0042396Y0045000D01*
X0040804Y0045000D01*
X0039334Y0045609D01*
X0038209Y0046734D01*
X0037600Y0048204D01*
X0037600Y0054996D01*
X0038209Y0056466D01*
X0039334Y0057591D01*
X0040804Y0058200D01*
X0042396Y0058200D01*
X0043866Y0057591D01*
X0045207Y0055945D02*
X0047993Y0055945D01*
X0047600Y0054746D02*
X0045600Y0054746D01*
X0045600Y0053548D02*
X0047600Y0053548D01*
X0047600Y0052349D02*
X0045600Y0052349D01*
X0045600Y0051151D02*
X0047600Y0051151D01*
X0047600Y0049952D02*
X0045600Y0049952D01*
X0045600Y0048754D02*
X0047600Y0048754D01*
X0047869Y0047555D02*
X0045331Y0047555D01*
X0044614Y0046357D02*
X0048586Y0046357D01*
X0050422Y0045158D02*
X0042778Y0045158D01*
X0040422Y0045158D02*
X0031300Y0045158D01*
X0031300Y0043960D02*
X0130018Y0043960D01*
X0129435Y0045158D02*
X0052778Y0045158D01*
X0054614Y0046357D02*
X0129200Y0046357D01*
X0129233Y0047555D02*
X0055331Y0047555D01*
X0055600Y0048754D02*
X0129730Y0048754D01*
X0130730Y0049952D02*
X0055600Y0049952D01*
X0038887Y0057143D02*
X0032755Y0057143D01*
X0031556Y0055945D02*
X0037993Y0055945D01*
X0037600Y0054746D02*
X0031300Y0054746D01*
X0031300Y0053548D02*
X0037600Y0053548D01*
X0037600Y0052349D02*
X0031300Y0052349D01*
X0031300Y0051151D02*
X0037600Y0051151D01*
X0037600Y0049952D02*
X0031300Y0049952D01*
X0031300Y0048754D02*
X0037600Y0048754D01*
X0037869Y0047555D02*
X0031300Y0047555D01*
X0031300Y0046357D02*
X0038586Y0046357D01*
X0031300Y0042761D02*
X0131370Y0042761D01*
X0130955Y0040364D02*
X0031300Y0040364D01*
X0031300Y0039166D02*
X0129778Y0039166D01*
X0136200Y0039166D02*
X0137000Y0039166D01*
X0137000Y0040364D02*
X0136200Y0040364D01*
X0136200Y0037967D02*
X0137000Y0037967D01*
X0137000Y0036769D02*
X0148657Y0036769D01*
X0142665Y0030776D02*
X0116725Y0030776D01*
X0116725Y0028525D02*
X0112175Y0028525D01*
X0112175Y0029675D01*
X0111025Y0029675D01*
X0111025Y0037723D01*
X0110400Y0037624D01*
X0109633Y0037375D01*
X0108914Y0037008D01*
X0108261Y0036534D01*
X0107691Y0035964D01*
X0107217Y0035311D01*
X0106850Y0034592D01*
X0106601Y0033825D01*
X0106475Y0033028D01*
X0106475Y0029675D01*
X0111025Y0029675D01*
X0111025Y0028525D01*
X0112175Y0028525D01*
X0112175Y0020477D01*
X0112800Y0020576D01*
X0113567Y0020825D01*
X0114286Y0021192D01*
X0114939Y0021666D01*
X0115509Y0022236D01*
X0115983Y0022889D01*
X0116350Y0023608D01*
X0116599Y0024375D01*
X0116725Y0025172D01*
X0116725Y0028525D01*
X0116725Y0028379D02*
X0140268Y0028379D01*
X0139069Y0027181D02*
X0116725Y0027181D01*
X0116725Y0025982D02*
X0137871Y0025982D01*
X0136672Y0024784D02*
X0116664Y0024784D01*
X0116338Y0023585D02*
X0135474Y0023585D01*
X0134275Y0022387D02*
X0115618Y0022387D01*
X0114279Y0021188D02*
X0133077Y0021188D01*
X0131878Y0019990D02*
X0093822Y0019990D01*
X0093879Y0021188D02*
X0108921Y0021188D01*
X0108914Y0021192D02*
X0109633Y0020825D01*
X0110400Y0020576D01*
X0111025Y0020477D01*
X0111025Y0028525D01*
X0106475Y0028525D01*
X0106475Y0025172D01*
X0106601Y0024375D01*
X0106850Y0023608D01*
X0107217Y0022889D01*
X0107691Y0022236D01*
X0108261Y0021666D01*
X0108914Y0021192D01*
X0107582Y0022387D02*
X0095377Y0022387D01*
X0096107Y0023585D02*
X0106862Y0023585D01*
X0106536Y0024784D02*
X0096525Y0024784D01*
X0096525Y0025982D02*
X0106475Y0025982D01*
X0106475Y0027181D02*
X0096525Y0027181D01*
X0096525Y0028379D02*
X0106475Y0028379D01*
X0106475Y0030776D02*
X0096525Y0030776D01*
X0096525Y0029578D02*
X0111025Y0029578D01*
X0112175Y0029578D02*
X0141466Y0029578D01*
X0144093Y0025982D02*
X0156492Y0025982D01*
X0156100Y0024784D02*
X0142895Y0024784D01*
X0141696Y0023585D02*
X0156100Y0023585D01*
X0156422Y0022387D02*
X0140498Y0022387D01*
X0139299Y0021188D02*
X0157065Y0021188D01*
X0158442Y0019990D02*
X0138101Y0019990D01*
X0136902Y0018791D02*
X0190166Y0018791D01*
X0188968Y0019990D02*
X0169758Y0019990D01*
X0171135Y0021188D02*
X0187769Y0021188D01*
X0186571Y0022387D02*
X0171778Y0022387D01*
X0172100Y0023585D02*
X0185372Y0023585D01*
X0184174Y0024784D02*
X0172100Y0024784D01*
X0171708Y0025982D02*
X0182975Y0025982D01*
X0181777Y0027181D02*
X0170966Y0027181D01*
X0158849Y0028379D02*
X0146490Y0028379D01*
X0145292Y0027181D02*
X0157234Y0027181D01*
X0156733Y0041563D02*
X0031300Y0041563D01*
X0044276Y0027181D02*
X0048924Y0027181D01*
X0049334Y0027591D02*
X0048209Y0026466D01*
X0047600Y0024996D01*
X0047600Y0018204D01*
X0048209Y0016734D01*
X0049334Y0015609D01*
X0050804Y0015000D01*
X0052396Y0015000D01*
X0053866Y0015609D01*
X0054991Y0016734D01*
X0055600Y0018204D01*
X0055600Y0024996D01*
X0054991Y0026466D01*
X0053866Y0027591D01*
X0052396Y0028200D01*
X0050804Y0028200D01*
X0049334Y0027591D01*
X0048009Y0025982D02*
X0045191Y0025982D01*
X0045600Y0024784D02*
X0047600Y0024784D01*
X0047600Y0023585D02*
X0045600Y0023585D01*
X0045600Y0022387D02*
X0047600Y0022387D01*
X0047600Y0021188D02*
X0045600Y0021188D01*
X0045600Y0019990D02*
X0047600Y0019990D01*
X0047600Y0018791D02*
X0045600Y0018791D01*
X0045347Y0017593D02*
X0047853Y0017593D01*
X0048549Y0016394D02*
X0044651Y0016394D01*
X0042868Y0015196D02*
X0050332Y0015196D01*
X0052868Y0015196D02*
X0092393Y0015196D01*
X0091195Y0016394D02*
X0054651Y0016394D01*
X0055347Y0017593D02*
X0089996Y0017593D01*
X0089400Y0018791D02*
X0055600Y0018791D01*
X0055600Y0019990D02*
X0089400Y0019990D01*
X0089321Y0021188D02*
X0055600Y0021188D01*
X0055600Y0022387D02*
X0087823Y0022387D01*
X0087093Y0023585D02*
X0055600Y0023585D01*
X0055600Y0024784D02*
X0086675Y0024784D01*
X0086675Y0025982D02*
X0055191Y0025982D01*
X0054276Y0027181D02*
X0086675Y0027181D01*
X0096525Y0031975D02*
X0106475Y0031975D01*
X0106498Y0033173D02*
X0096525Y0033173D01*
X0096207Y0034372D02*
X0106779Y0034372D01*
X0107405Y0035570D02*
X0095620Y0035570D01*
X0094421Y0036769D02*
X0108584Y0036769D01*
X0111025Y0036769D02*
X0112175Y0036769D01*
X0112175Y0035570D02*
X0111025Y0035570D01*
X0111025Y0034372D02*
X0112175Y0034372D01*
X0112175Y0033173D02*
X0111025Y0033173D01*
X0111025Y0031975D02*
X0112175Y0031975D01*
X0112175Y0030776D02*
X0111025Y0030776D01*
X0111025Y0028379D02*
X0112175Y0028379D01*
X0112175Y0027181D02*
X0111025Y0027181D01*
X0111025Y0025982D02*
X0112175Y0025982D01*
X0112175Y0024784D02*
X0111025Y0024784D01*
X0111025Y0023585D02*
X0112175Y0023585D01*
X0112175Y0022387D02*
X0111025Y0022387D01*
X0111025Y0021188D02*
X0112175Y0021188D01*
X0114616Y0036769D02*
X0136200Y0036769D01*
X0136200Y0035570D02*
X0137000Y0035570D01*
X0137000Y0034372D02*
X0136200Y0034372D01*
X0136200Y0033173D02*
X0137000Y0033173D01*
X0141830Y0042761D02*
X0157814Y0042761D01*
X0184600Y0040364D02*
X0206300Y0040364D01*
X0206300Y0039166D02*
X0184600Y0039166D01*
X0184600Y0037967D02*
X0206702Y0037967D01*
X0207900Y0036769D02*
X0184600Y0036769D01*
X0184600Y0035570D02*
X0209099Y0035570D01*
X0210297Y0034372D02*
X0184600Y0034372D01*
X0191365Y0017593D02*
X0135704Y0017593D01*
X0134505Y0016394D02*
X0192793Y0016394D01*
X0201114Y0015196D02*
X0133307Y0015196D01*
X0213500Y0034372D02*
X0214700Y0034372D01*
X0214700Y0035570D02*
X0213500Y0035570D01*
X0213500Y0036769D02*
X0214700Y0036769D01*
X0214700Y0037967D02*
X0213500Y0037967D01*
X0213500Y0039166D02*
X0214700Y0039166D01*
X0214700Y0040364D02*
X0213500Y0040364D01*
X0213500Y0043960D02*
X0214700Y0043960D01*
X0214700Y0045158D02*
X0213500Y0045158D01*
X0213500Y0046357D02*
X0214700Y0046357D01*
X0214700Y0047555D02*
X0213500Y0047555D01*
X0213500Y0048754D02*
X0214700Y0048754D01*
X0143849Y0124260D02*
X0123722Y0124260D01*
X0113156Y0120665D02*
X0068800Y0120665D01*
X0068800Y0119466D02*
X0112110Y0119466D01*
X0111700Y0118268D02*
X0069569Y0118268D01*
X0069981Y0117069D02*
X0111723Y0117069D01*
X0111769Y0115870D02*
X0069957Y0115870D01*
X0069454Y0114672D02*
X0110571Y0114672D01*
X0069538Y0132650D02*
X0046300Y0132650D01*
X0062540Y0149429D02*
X0176900Y0149429D01*
X0176900Y0150627D02*
X0063739Y0150627D01*
X0064937Y0151826D02*
X0176900Y0151826D01*
X0176900Y0153024D02*
X0066136Y0153024D01*
X0067334Y0154223D02*
X0176900Y0154223D01*
X0176900Y0155421D02*
X0068533Y0155421D01*
X0069731Y0156620D02*
X0176900Y0156620D01*
X0176900Y0157818D02*
X0070930Y0157818D01*
X0072128Y0159017D02*
X0176900Y0159017D01*
X0176900Y0160215D02*
X0073327Y0160215D01*
X0074525Y0161414D02*
X0176900Y0161414D01*
X0176900Y0162612D02*
X0075724Y0162612D01*
X0076922Y0163811D02*
X0176900Y0163811D01*
X0176900Y0165009D02*
X0078121Y0165009D01*
X0078800Y0166208D02*
X0176900Y0166208D01*
X0176900Y0167406D02*
X0078800Y0167406D01*
X0078800Y0168605D02*
X0176900Y0168605D01*
X0176900Y0169803D02*
X0078800Y0169803D01*
X0078800Y0171002D02*
X0176900Y0171002D01*
X0176900Y0172201D02*
X0078800Y0172201D01*
X0078800Y0173399D02*
X0176900Y0173399D01*
X0176900Y0174598D02*
X0078800Y0174598D01*
X0078800Y0175796D02*
X0176900Y0175796D01*
X0176900Y0176995D02*
X0078800Y0176995D01*
X0078800Y0178193D02*
X0176900Y0178193D01*
X0176900Y0179392D02*
X0078800Y0179392D01*
X0078800Y0180590D02*
X0176900Y0180590D01*
X0176900Y0181789D02*
X0078800Y0181789D01*
X0078800Y0182987D02*
X0176900Y0182987D01*
X0176900Y0184186D02*
X0078800Y0184186D01*
X0078800Y0185384D02*
X0176900Y0185384D01*
X0176900Y0186583D02*
X0078800Y0186583D01*
X0078800Y0187781D02*
X0176900Y0187781D01*
X0176900Y0188980D02*
X0078800Y0188980D01*
X0078800Y0190178D02*
X0176900Y0190178D01*
X0176900Y0191377D02*
X0078800Y0191377D01*
X0078800Y0192575D02*
X0176900Y0192575D01*
X0176900Y0193774D02*
X0078800Y0193774D01*
X0078800Y0194972D02*
X0176900Y0194972D01*
X0176900Y0196171D02*
X0078800Y0196171D01*
X0078800Y0197369D02*
X0176900Y0197369D01*
X0176900Y0198568D02*
X0079179Y0198568D01*
X0080378Y0199766D02*
X0176900Y0199766D01*
X0176900Y0200965D02*
X0081576Y0200965D01*
X0082775Y0202163D02*
X0176900Y0202163D01*
X0176900Y0203362D02*
X0083973Y0203362D01*
X0080148Y0205759D02*
X0016200Y0205759D01*
X0016200Y0206957D02*
X0081346Y0206957D01*
X0082545Y0208156D02*
X0016200Y0208156D01*
X0016200Y0209354D02*
X0133743Y0209354D01*
X0134942Y0210553D02*
X0016200Y0210553D01*
X0016200Y0211751D02*
X0136140Y0211751D01*
X0137339Y0212950D02*
X0016200Y0212950D01*
X0016200Y0214148D02*
X0138537Y0214148D01*
X0139736Y0215347D02*
X0016200Y0215347D01*
X0016200Y0216545D02*
X0140934Y0216545D01*
X0141900Y0217744D02*
X0016200Y0217744D01*
X0016200Y0218942D02*
X0141900Y0218942D01*
X0146300Y0218942D02*
X0171900Y0218942D01*
X0171900Y0220141D02*
X0146300Y0220141D01*
X0146300Y0221339D02*
X0171900Y0221339D01*
X0172345Y0217744D02*
X0146300Y0217744D01*
X0146300Y0216545D02*
X0173543Y0216545D01*
X0174742Y0215347D02*
X0145958Y0215347D01*
X0144760Y0214148D02*
X0175940Y0214148D01*
X0176900Y0212950D02*
X0143561Y0212950D01*
X0142363Y0211751D02*
X0176900Y0211751D01*
X0176900Y0210553D02*
X0141164Y0210553D01*
X0139966Y0209354D02*
X0176900Y0209354D01*
X0176900Y0208156D02*
X0138767Y0208156D01*
X0137569Y0206957D02*
X0176900Y0206957D01*
X0176900Y0205759D02*
X0136370Y0205759D01*
X0135172Y0204560D02*
X0176900Y0204560D01*
X0176900Y0138642D02*
X0161561Y0138642D01*
X0162197Y0137444D02*
X0176900Y0137444D01*
X0176900Y0136245D02*
X0162284Y0136245D01*
X0161903Y0135047D02*
X0176900Y0135047D01*
X0175737Y0133848D02*
X0161300Y0133848D01*
X0161300Y0132650D02*
X0174538Y0132650D01*
X0173340Y0131451D02*
X0162360Y0131451D01*
X0078949Y0204560D02*
X0016200Y0204560D01*
X0016200Y0203362D02*
X0077751Y0203362D01*
X0076552Y0202163D02*
X0016200Y0202163D01*
X0016200Y0200965D02*
X0075354Y0200965D01*
X0074400Y0199766D02*
X0016200Y0199766D01*
X0016200Y0198568D02*
X0074400Y0198568D01*
X0074400Y0197369D02*
X0016200Y0197369D01*
X0016200Y0196171D02*
X0074400Y0196171D01*
X0074400Y0194972D02*
X0016200Y0194972D01*
X0016200Y0193774D02*
X0074400Y0193774D01*
X0074400Y0192575D02*
X0016200Y0192575D01*
X0016200Y0191377D02*
X0074400Y0191377D01*
X0074400Y0190178D02*
X0016200Y0190178D01*
X0016200Y0188980D02*
X0074400Y0188980D01*
X0074400Y0187781D02*
X0016200Y0187781D01*
X0016200Y0186583D02*
X0074400Y0186583D01*
X0074400Y0185384D02*
X0016200Y0185384D01*
X0016200Y0184186D02*
X0074400Y0184186D01*
X0074400Y0182987D02*
X0016200Y0182987D01*
X0016200Y0181789D02*
X0074400Y0181789D01*
X0074400Y0180590D02*
X0016200Y0180590D01*
X0016200Y0179392D02*
X0074400Y0179392D01*
X0074400Y0178193D02*
X0016200Y0178193D01*
X0016200Y0176995D02*
X0074400Y0176995D01*
X0074400Y0175796D02*
X0016200Y0175796D01*
X0016200Y0174598D02*
X0074400Y0174598D01*
X0074400Y0173399D02*
X0016200Y0173399D01*
X0016200Y0172201D02*
X0074400Y0172201D01*
X0074400Y0171002D02*
X0016200Y0171002D01*
X0016200Y0169803D02*
X0074400Y0169803D01*
X0074400Y0168605D02*
X0016200Y0168605D01*
X0016200Y0167406D02*
X0074295Y0167406D01*
X0073097Y0166208D02*
X0016200Y0166208D01*
X0016200Y0165009D02*
X0071898Y0165009D01*
X0070700Y0163811D02*
X0016200Y0163811D01*
X0016200Y0162612D02*
X0069501Y0162612D01*
X0068303Y0161414D02*
X0016200Y0161414D01*
X0016200Y0160215D02*
X0067104Y0160215D01*
X0065906Y0159017D02*
X0016200Y0159017D01*
X0016200Y0157818D02*
X0064707Y0157818D01*
X0063509Y0156620D02*
X0016200Y0156620D01*
X0016200Y0155421D02*
X0062310Y0155421D01*
X0061112Y0154223D02*
X0016200Y0154223D01*
D24*
X0159100Y0231600D02*
X0159100Y0246600D01*
X0189100Y0246600D01*
X0194100Y0241600D01*
X0194100Y0081600D01*
X0181600Y0069100D01*
X0181600Y0031600D01*
X0194100Y0019100D01*
X0202663Y0019100D01*
M02*
