G75*
%MOIN*%
%OFA0B0*%
%FSLAX25Y25*%
%IPPOS*%
%LPD*%
%AMOC8*
5,1,8,0,0,1.08239X$1,22.5*
%
%ADD10C,0.08674*%
%ADD11C,0.07850*%
%ADD12R,0.17729X0.10643*%
%ADD13R,0.01969X0.04232*%
%ADD14R,0.18517X0.09658*%
%ADD15R,0.07099X0.05918*%
%ADD16R,0.05918X0.07099*%
%ADD17C,0.06000*%
%ADD18C,0.06800*%
%ADD19R,0.05524X0.02965*%
%ADD20R,0.07099X0.08674*%
%ADD21R,0.03950X0.03950*%
%ADD22OC8,0.13200*%
%ADD23C,0.07400*%
%ADD24C,0.06400*%
%ADD25C,0.04800*%
%ADD26C,0.04762*%
%ADD27C,0.04369*%
%ADD28OC8,0.13461*%
D10*
X0019100Y0019100D03*
X0076600Y0236600D03*
X0241600Y0019100D03*
D11*
X0111600Y0025575D02*
X0111600Y0032625D01*
X0091600Y0032625D02*
X0091600Y0025575D01*
X0101600Y0225575D02*
X0101600Y0232625D01*
X0121600Y0232625D02*
X0121600Y0225575D01*
X0051600Y0225575D02*
X0051600Y0232625D01*
X0031600Y0232625D02*
X0031600Y0225575D01*
D12*
X0025261Y0181600D03*
X0057939Y0181600D03*
X0095261Y0181600D03*
X0127939Y0181600D03*
X0117939Y0081600D03*
X0085261Y0081600D03*
X0057939Y0081600D03*
X0025261Y0081600D03*
D13*
X0052761Y0123480D03*
X0055320Y0123480D03*
X0057880Y0123480D03*
X0060439Y0123480D03*
X0060439Y0139720D03*
X0057880Y0139720D03*
X0055320Y0139720D03*
X0052761Y0139720D03*
X0107761Y0139720D03*
X0110320Y0139720D03*
X0112880Y0139720D03*
X0115439Y0139720D03*
X0115439Y0123480D03*
X0112880Y0123480D03*
X0110320Y0123480D03*
X0107761Y0123480D03*
D14*
X0081600Y0118281D03*
X0081600Y0144919D03*
X0026600Y0144919D03*
X0026600Y0118281D03*
D15*
X0131600Y0115340D03*
X0131600Y0107860D03*
X0131600Y0127860D03*
X0131600Y0135340D03*
D16*
X0130340Y0151600D03*
X0122860Y0151600D03*
X0110340Y0151600D03*
X0102860Y0151600D03*
X0107860Y0111600D03*
X0115340Y0111600D03*
D17*
X0051600Y0054200D02*
X0051600Y0049000D01*
X0041600Y0049000D02*
X0041600Y0054200D01*
X0041600Y0024200D02*
X0041600Y0019000D01*
X0051600Y0019000D02*
X0051600Y0024200D01*
D18*
X0133600Y0036600D02*
X0139600Y0036600D01*
X0139600Y0046600D02*
X0133600Y0046600D01*
X0133600Y0056600D02*
X0139600Y0056600D01*
D19*
X0158982Y0145360D03*
X0158982Y0149100D03*
X0158982Y0152840D03*
X0169218Y0152840D03*
X0169218Y0145360D03*
D20*
X0169612Y0184100D03*
X0158588Y0184100D03*
X0158588Y0204100D03*
X0169612Y0204100D03*
X0172112Y0084100D03*
X0161088Y0084100D03*
D21*
X0164100Y0103647D03*
X0164100Y0109553D03*
X0151600Y0163647D03*
X0151600Y0169553D03*
D22*
X0194100Y0241600D03*
X0234100Y0241600D03*
X0214100Y0041600D03*
D23*
X0167400Y0039100D02*
X0160800Y0039100D01*
X0160800Y0054100D02*
X0167400Y0054100D01*
X0167400Y0024100D02*
X0160800Y0024100D01*
X0159100Y0228300D02*
X0159100Y0234900D01*
X0144100Y0234900D02*
X0144100Y0228300D01*
X0174100Y0228300D02*
X0174100Y0234900D01*
D24*
X0202663Y0019100D03*
X0210537Y0019100D03*
D25*
X0115100Y0117800D03*
X0055700Y0118700D03*
D26*
X0066600Y0116600D03*
X0121600Y0121600D03*
D27*
X0159100Y0136600D03*
D28*
X0194100Y0041600D03*
X0236600Y0041600D03*
M02*
